<?xml version="1.0" encoding="UTF-8" standalone="no"?>
<svg xmlns="http://www.w3.org/2000/svg"
     xmlns:xlink="http://www.w3.org/1999/xlink"
     width="576px" height="432px" viewBox="0 0 576 432">
<title>gl2ps_renderer figure</title>
<desc>
Creator: GL2PS 1.4.0, (C) 1999-2017 C. Geuzaine
For: Octave
CreationDate: Fri Sep 20 13:20:14 2019
</desc>
<defs>
</defs>
<polygon fill="#ffffff" points="0,0 576,0 576,432 0,432"/>
<g>
<polygon fill="#ffffff" points="0,432 576,432 576,0 0,0" shape-rendering="crispEdges"/>
<clipPath id="cp00576432">
  <polygon points="0,432 576,432 576,0 0,0"/>
</clipPath>
<g clip-path="url(#cp00576432)">
<polygon fill="#ffffff" shape-rendering="crispEdges" points="74.88,384.48 521.28,384.48 74.88,32.4"/>
<polygon fill="#ffffff" shape-rendering="crispEdges" points="521.28,384.48 521.28,32.4 74.88,32.4"/>
<polyline fill="none" stroke="#262626" stroke-width="0.5" stroke-linecap="butt" stroke-linejoin="miter" stroke-opacity="0.15" stroke-dasharray="16,0" points="74.88,384.48 74.88,32.4"/>
<polyline fill="none" stroke="#262626" stroke-width="0.5" stroke-linecap="butt" stroke-linejoin="miter" stroke-opacity="0.15" stroke-dasharray="16,0" points="149.28,384.48 149.28,32.4"/>
<polyline fill="none" stroke="#262626" stroke-width="0.5" stroke-linecap="butt" stroke-linejoin="miter" stroke-opacity="0.15" stroke-dasharray="16,0" points="223.68,384.48 223.68,32.4"/>
<polyline fill="none" stroke="#262626" stroke-width="0.5" stroke-linecap="butt" stroke-linejoin="miter" stroke-opacity="0.15" stroke-dasharray="16,0" points="298.08,384.48 298.08,32.4"/>
<polyline fill="none" stroke="#262626" stroke-width="0.5" stroke-linecap="butt" stroke-linejoin="miter" stroke-opacity="0.15" stroke-dasharray="16,0" points="372.48,384.48 372.48,32.4"/>
<polyline fill="none" stroke="#262626" stroke-width="0.5" stroke-linecap="butt" stroke-linejoin="miter" stroke-opacity="0.15" stroke-dasharray="16,0" points="446.88,384.48 446.88,32.4"/>
<polyline fill="none" stroke="#262626" stroke-width="0.5" stroke-linecap="butt" stroke-linejoin="miter" stroke-opacity="0.15" stroke-dasharray="16,0" points="521.28,384.48 521.28,32.4"/>
<polyline fill="none" stroke="#262626" stroke-width="0.5" stroke-linecap="butt" stroke-linejoin="miter" points="74.88,384.48 74.88,380.015"/>
<polyline fill="none" stroke="#262626" stroke-width="0.5" stroke-linecap="butt" stroke-linejoin="miter" points="149.28,384.48 149.28,380.015"/>
<polyline fill="none" stroke="#262626" stroke-width="0.5" stroke-linecap="butt" stroke-linejoin="miter" points="223.68,384.48 223.68,380.015"/>
<polyline fill="none" stroke="#262626" stroke-width="0.5" stroke-linecap="butt" stroke-linejoin="miter" points="298.08,384.48 298.08,380.015"/>
<polyline fill="none" stroke="#262626" stroke-width="0.5" stroke-linecap="butt" stroke-linejoin="miter" points="372.48,384.48 372.48,380.015"/>
<polyline fill="none" stroke="#262626" stroke-width="0.5" stroke-linecap="butt" stroke-linejoin="miter" points="446.88,384.48 446.88,380.015"/>
<polyline fill="none" stroke="#262626" stroke-width="0.5" stroke-linecap="butt" stroke-linejoin="miter" points="521.28,384.48 521.28,380.015"/>
<text fill="#262626" x="74.88" y="389.481" font-size="10" text-anchor="middle" dy="10" font-family="Helvetica">0</text>
<text fill="#262626" x="149.28" y="389.481" font-size="10" text-anchor="middle" dy="10" font-family="Helvetica">5</text>
<text fill="#262626" x="223.68" y="389.481" font-size="10" text-anchor="middle" dy="10" font-family="Helvetica">10</text>
<text fill="#262626" x="298.08" y="389.481" font-size="10" text-anchor="middle" dy="10" font-family="Helvetica">15</text>
<text fill="#262626" x="372.48" y="389.481" font-size="10" text-anchor="middle" dy="10" font-family="Helvetica">20</text>
<text fill="#262626" x="446.88" y="389.481" font-size="10" text-anchor="middle" dy="10" font-family="Helvetica">25</text>
<text fill="#262626" x="521.28" y="389.481" font-size="10" text-anchor="middle" dy="10" font-family="Helvetica">30</text>
<polyline fill="none" stroke="#262626" stroke-width="0.5" stroke-linecap="butt" stroke-linejoin="miter" stroke-opacity="0.15" stroke-dasharray="16,0" points="74.88,384.48 521.28,384.48"/>
<polyline fill="none" stroke="#262626" stroke-width="0.5" stroke-linecap="butt" stroke-linejoin="miter" stroke-opacity="0.15" stroke-dasharray="16,0" points="74.88,296.46 521.28,296.46"/>
<polyline fill="none" stroke="#262626" stroke-width="0.5" stroke-linecap="butt" stroke-linejoin="miter" stroke-opacity="0.15" stroke-dasharray="16,0" points="74.88,208.44 521.28,208.44"/>
<polyline fill="none" stroke="#262626" stroke-width="0.5" stroke-linecap="butt" stroke-linejoin="miter" stroke-opacity="0.15" stroke-dasharray="16,0" points="74.88,120.42 521.28,120.42"/>
<polyline fill="none" stroke="#262626" stroke-width="0.5" stroke-linecap="butt" stroke-linejoin="miter" stroke-opacity="0.15" stroke-dasharray="16,0" points="74.88,32.4 521.28,32.4"/>
<polyline fill="none" stroke="#262626" stroke-width="0.5" stroke-linecap="butt" stroke-linejoin="miter" points="74.88,384.48 79.348,384.48"/>
<polyline fill="none" stroke="#262626" stroke-width="0.5" stroke-linecap="butt" stroke-linejoin="miter" points="74.88,296.46 79.348,296.46"/>
<polyline fill="none" stroke="#262626" stroke-width="0.5" stroke-linecap="butt" stroke-linejoin="miter" points="74.88,208.44 79.348,208.44"/>
<polyline fill="none" stroke="#262626" stroke-width="0.5" stroke-linecap="butt" stroke-linejoin="miter" points="74.88,120.42 79.348,120.42"/>
<polyline fill="none" stroke="#262626" stroke-width="0.5" stroke-linecap="butt" stroke-linejoin="miter" points="74.88,32.4 79.348,32.4"/>
<text fill="#262626" x="69.8755" y="384.48" font-size="10" text-anchor="end" dy="5" font-family="Helvetica">0</text>
<text fill="#262626" x="69.8755" y="296.46" font-size="10" text-anchor="end" dy="5" font-family="Helvetica">5</text>
<text fill="#262626" x="69.8755" y="208.44" font-size="10" text-anchor="end" dy="5" font-family="Helvetica">10</text>
<text fill="#262626" x="69.8755" y="120.42" font-size="10" text-anchor="end" dy="5" font-family="Helvetica">15</text>
<text fill="#262626" x="69.8755" y="32.4" font-size="10" text-anchor="end" dy="5" font-family="Helvetica">20</text>
<polyline fill="none" stroke="#262626" stroke-width="0.5" stroke-linecap="butt" stroke-linejoin="miter" stroke-dasharray="16,0" points="74.88,384.48 521.28,384.48"/>
<polyline fill="none" stroke="#262626" stroke-width="0.5" stroke-linecap="butt" stroke-linejoin="miter" stroke-dasharray="16,0" points="74.88,384.48 74.88,32.4"/>
<polyline fill="none" stroke="#ff0000" stroke-width="2" stroke-linecap="butt" stroke-linejoin="miter" points="74.88,382.72 76.368,382.191 78.3024,380.704 81.4942,377.506 87.3892,371.373 98.4678,359.788 113.671,342.304 114.861,332.647 114.861,332.647 150.253,331.347 151.443,329.782 151.443,329.782 197.677,321.578 209.786,308.164 210.976,300.542 210.976,300.542 281.926,287.951 363.518,218.912 503.466,76.7744"/>
<polyline fill="none" stroke="#ff0000" stroke-width="2" stroke-linecap="butt" stroke-linejoin="miter" points="77.88,382.72 77.3071,384.483 75.8071,385.573 73.9529,385.573 72.4529,384.483 71.88,382.72 72.4529,380.956 73.9529,379.866 75.8071,379.866 77.3071,380.956 77.88,382.72"/>
<polyline fill="none" stroke="#ff0000" stroke-width="2" stroke-linecap="butt" stroke-linejoin="miter" points="79.368,382.191 78.795,383.955 77.295,385.045 75.4409,385.045 73.9409,383.955 73.368,382.191 73.9409,380.428 75.4409,379.338 77.295,379.338 78.795,380.428 79.368,382.191"/>
<polyline fill="none" stroke="#ff0000" stroke-width="2" stroke-linecap="butt" stroke-linejoin="miter" points="81.3024,380.704 80.7295,382.467 79.2295,383.557 77.3754,383.557 75.8754,382.467 75.3024,380.704 75.8754,378.941 77.3754,377.851 79.2295,377.851 80.7295,378.941 81.3024,380.704"/>
<polyline fill="none" stroke="#ff0000" stroke-width="2" stroke-linecap="butt" stroke-linejoin="miter" points="84.4942,377.506 83.9212,379.269 82.4212,380.359 80.5671,380.359 79.0671,379.269 78.4942,377.506 79.0671,375.742 80.5671,374.653 82.4212,374.653 83.9212,375.742 84.4942,377.506"/>
<polyline fill="none" stroke="#ff0000" stroke-width="2" stroke-linecap="butt" stroke-linejoin="miter" points="90.3892,371.373 89.8163,373.137 88.3163,374.227 86.4622,374.227 84.9622,373.137 84.3892,371.373 84.9622,369.61 86.4622,368.52 88.3163,368.52 89.8163,369.61 90.3892,371.373"/>
<polyline fill="none" stroke="#ff0000" stroke-width="2" stroke-linecap="butt" stroke-linejoin="miter" points="101.468,359.788 100.895,361.551 99.3948,362.641 97.5407,362.641 96.0407,361.551 95.4678,359.788 96.0407,358.025 97.5407,356.935 99.3948,356.935 100.895,358.025 101.468,359.788"/>
<polyline fill="none" stroke="#ff0000" stroke-width="2" stroke-linecap="butt" stroke-linejoin="miter" points="116.671,342.304 116.098,344.068 114.598,345.157 112.744,345.157 111.244,344.068 110.671,342.304 111.244,340.541 112.744,339.451 114.598,339.451 116.098,340.541 116.671,342.304"/>
<polyline fill="none" stroke="#ff0000" stroke-width="2" stroke-linecap="butt" stroke-linejoin="miter" points="117.861,332.647 117.288,334.41 115.788,335.5 113.934,335.5 112.434,334.41 111.861,332.647 112.434,330.884 113.934,329.794 115.788,329.794 117.288,330.884 117.861,332.647 117.288,334.41 115.788,335.5 113.934,335.5 112.434,334.41 111.861,332.647 112.434,330.884 113.934,329.794 115.788,329.794 117.288,330.884 117.861,332.647"/>
<polyline fill="none" stroke="#ff0000" stroke-width="2" stroke-linecap="butt" stroke-linejoin="miter" points="153.253,331.347 152.68,333.111 151.18,334.201 149.326,334.201 147.826,333.111 147.253,331.347 147.826,329.584 149.326,328.494 151.18,328.494 152.68,329.584 153.253,331.347"/>
<polyline fill="none" stroke="#ff0000" stroke-width="2" stroke-linecap="butt" stroke-linejoin="miter" points="154.443,329.782 153.87,331.546 152.37,332.635 150.516,332.635 149.016,331.546 148.443,329.782 149.016,328.019 150.516,326.929 152.37,326.929 153.87,328.019 154.443,329.782 153.87,331.546 152.37,332.635 150.516,332.635 149.016,331.546 148.443,329.782 149.016,328.019 150.516,326.929 152.37,326.929 153.87,328.019 154.443,329.782"/>
<polyline fill="none" stroke="#ff0000" stroke-width="2" stroke-linecap="butt" stroke-linejoin="miter" points="200.677,321.578 200.104,323.341 198.604,324.431 196.75,324.431 195.25,323.341 194.677,321.578 195.25,319.814 196.75,318.725 198.604,318.725 200.104,319.814 200.677,321.578"/>
<polyline fill="none" stroke="#ff0000" stroke-width="2" stroke-linecap="butt" stroke-linejoin="miter" points="212.786,308.164 212.213,309.928 210.713,311.017 208.858,311.017 207.358,309.928 206.786,308.164 207.358,306.401 208.858,305.311 210.713,305.311 212.213,306.401 212.786,308.164"/>
<polyline fill="none" stroke="#ff0000" stroke-width="2" stroke-linecap="butt" stroke-linejoin="miter" points="213.976,300.542 213.403,302.305 211.903,303.395 210.049,303.395 208.549,302.305 207.976,300.542 208.549,298.779 210.049,297.689 211.903,297.689 213.403,298.779 213.976,300.542 213.403,302.305 211.903,303.395 210.049,303.395 208.549,302.305 207.976,300.542 208.549,298.779 210.049,297.689 211.903,297.689 213.403,298.779 213.976,300.542"/>
<polyline fill="none" stroke="#ff0000" stroke-width="2" stroke-linecap="butt" stroke-linejoin="miter" points="284.926,287.951 284.353,289.715 282.853,290.804 280.999,290.804 279.499,289.715 278.926,287.951 279.499,286.188 280.999,285.098 282.853,285.098 284.353,286.188 284.926,287.951"/>
<polyline fill="none" stroke="#ff0000" stroke-width="2" stroke-linecap="butt" stroke-linejoin="miter" points="366.518,218.912 365.945,220.676 364.445,221.765 362.591,221.765 361.091,220.676 360.518,218.912 361.091,217.149 362.591,216.059 364.445,216.059 365.945,217.149 366.518,218.912"/>
<polyline fill="none" stroke="#ff0000" stroke-width="2" stroke-linecap="butt" stroke-linejoin="miter" points="506.466,76.7744 505.893,78.5378 504.393,79.6276 502.539,79.6276 501.039,78.5378 500.466,76.7744 501.039,75.011 502.539,73.9212 504.393,73.9212 505.893,75.011 506.466,76.7744"/>
<polyline fill="none" stroke="#00ff00" stroke-width="2" stroke-linecap="butt" stroke-linejoin="miter" points="74.88,366.876 89.76,361.595 109.104,346.719 113.671,335.77 114.861,329.38 114.861,329.38 150.253,329.714 151.443,328.966 151.443,328.966 198.368,320.638 209.786,307.695 210.976,300.307 210.976,300.307 282.124,287.681 363.945,218.449 504.284,75.9136"/>
<polyline fill="none" stroke="#00ff00" stroke-width="2" stroke-linecap="butt" stroke-linejoin="miter" points="77.88,366.876 77.3071,368.639 75.8071,369.729 73.9529,369.729 72.4529,368.639 71.88,366.876 72.4529,365.113 73.9529,364.023 75.8071,364.023 77.3071,365.113 77.88,366.876"/>
<polyline fill="none" stroke="#00ff00" stroke-width="2" stroke-linecap="butt" stroke-linejoin="miter" points="92.76,361.595 92.1871,363.358 90.6871,364.448 88.8329,364.448 87.3329,363.358 86.76,361.595 87.3329,359.831 88.8329,358.742 90.6871,358.742 92.1871,359.831 92.76,361.595"/>
<polyline fill="none" stroke="#00ff00" stroke-width="2" stroke-linecap="butt" stroke-linejoin="miter" points="112.104,346.719 111.531,348.483 110.031,349.573 108.177,349.573 106.677,348.483 106.104,346.719 106.677,344.956 108.177,343.866 110.031,343.866 111.531,344.956 112.104,346.719"/>
<polyline fill="none" stroke="#00ff00" stroke-width="2" stroke-linecap="butt" stroke-linejoin="miter" points="116.671,335.77 116.098,337.533 114.598,338.623 112.744,338.623 111.244,337.533 110.671,335.77 111.244,334.007 112.744,332.917 114.598,332.917 116.098,334.007 116.671,335.77"/>
<polyline fill="none" stroke="#00ff00" stroke-width="2" stroke-linecap="butt" stroke-linejoin="miter" points="117.861,329.38 117.288,331.143 115.788,332.233 113.934,332.233 112.434,331.143 111.861,329.38 112.434,327.616 113.934,326.527 115.788,326.527 117.288,327.616 117.861,329.38 117.288,331.143 115.788,332.233 113.934,332.233 112.434,331.143 111.861,329.38 112.434,327.616 113.934,326.527 115.788,326.527 117.288,327.616 117.861,329.38"/>
<polyline fill="none" stroke="#00ff00" stroke-width="2" stroke-linecap="butt" stroke-linejoin="miter" points="153.253,329.714 152.68,331.477 151.18,332.567 149.326,332.567 147.826,331.477 147.253,329.714 147.826,327.951 149.326,326.861 151.18,326.861 152.68,327.951 153.253,329.714"/>
<polyline fill="none" stroke="#00ff00" stroke-width="2" stroke-linecap="butt" stroke-linejoin="miter" points="154.443,328.966 153.87,330.729 152.37,331.819 150.516,331.819 149.016,330.729 148.443,328.966 149.016,327.202 150.516,326.112 152.37,326.112 153.87,327.202 154.443,328.966 153.87,330.729 152.37,331.819 150.516,331.819 149.016,330.729 148.443,328.966 149.016,327.202 150.516,326.112 152.37,326.112 153.87,327.202 154.443,328.966"/>
<polyline fill="none" stroke="#00ff00" stroke-width="2" stroke-linecap="butt" stroke-linejoin="miter" points="201.368,320.638 200.795,322.402 199.295,323.492 197.441,323.492 195.941,322.402 195.368,320.638 195.941,318.875 197.441,317.785 199.295,317.785 200.795,318.875 201.368,320.638"/>
<polyline fill="none" stroke="#00ff00" stroke-width="2" stroke-linecap="butt" stroke-linejoin="miter" points="212.786,307.695 212.213,309.458 210.713,310.548 208.858,310.548 207.358,309.458 206.786,307.695 207.358,305.931 208.858,304.841 210.713,304.841 212.213,305.931 212.786,307.695"/>
<polyline fill="none" stroke="#00ff00" stroke-width="2" stroke-linecap="butt" stroke-linejoin="miter" points="213.976,300.307 213.403,302.071 211.903,303.16 210.049,303.16 208.549,302.071 207.976,300.307 208.549,298.544 210.049,297.454 211.903,297.454 213.403,298.544 213.976,300.307 213.403,302.071 211.903,303.16 210.049,303.16 208.549,302.071 207.976,300.307 208.549,298.544 210.049,297.454 211.903,297.454 213.403,298.544 213.976,300.307"/>
<polyline fill="none" stroke="#00ff00" stroke-width="2" stroke-linecap="butt" stroke-linejoin="miter" points="285.124,287.681 284.551,289.445 283.051,290.534 281.197,290.534 279.697,289.445 279.124,287.681 279.697,285.918 281.197,284.828 283.051,284.828 284.551,285.918 285.124,287.681"/>
<polyline fill="none" stroke="#00ff00" stroke-width="2" stroke-linecap="butt" stroke-linejoin="miter" points="366.945,218.449 366.372,220.212 364.872,221.302 363.018,221.302 361.518,220.212 360.945,218.449 361.518,216.686 363.018,215.596 364.872,215.596 366.372,216.686 366.945,218.449"/>
<polyline fill="none" stroke="#00ff00" stroke-width="2" stroke-linecap="butt" stroke-linejoin="miter" points="507.284,75.9136 506.711,77.6769 505.211,78.7667 503.357,78.7667 501.857,77.6769 501.284,75.9136 501.857,74.1502 503.357,73.0604 505.211,73.0604 506.711,74.1502 507.284,75.9136"/>
<polyline fill="none" stroke="#0000ff" stroke-width="2" stroke-linecap="butt" stroke-linejoin="miter" points="74.88,208.44 113.671,324.82 114.861,323.905 114.861,323.905 150.253,326.977 151.443,327.597 151.443,327.597 199.525,319.064 209.786,306.907 210.976,299.914 210.976,299.914 282.456,287.229 364.659,217.673 505.656,74.47"/>
<polyline fill="none" stroke="#0000ff" stroke-width="2" stroke-linecap="butt" stroke-linejoin="miter" points="77.88,208.44 77.3071,210.203 75.8071,211.293 73.9529,211.293 72.4529,210.203 71.88,208.44 72.4529,206.677 73.9529,205.587 75.8071,205.587 77.3071,206.677 77.88,208.44"/>
<polyline fill="none" stroke="#0000ff" stroke-width="2" stroke-linecap="butt" stroke-linejoin="miter" points="116.671,324.82 116.098,326.584 114.598,327.674 112.744,327.674 111.244,326.584 110.671,324.82 111.244,323.057 112.744,321.967 114.598,321.967 116.098,323.057 116.671,324.82"/>
<polyline fill="none" stroke="#0000ff" stroke-width="2" stroke-linecap="butt" stroke-linejoin="miter" points="117.861,323.905 117.288,325.668 115.788,326.758 113.934,326.758 112.434,325.668 111.861,323.905 112.434,322.142 113.934,321.052 115.788,321.052 117.288,322.142 117.861,323.905 117.288,325.668 115.788,326.758 113.934,326.758 112.434,325.668 111.861,323.905 112.434,322.142 113.934,321.052 115.788,321.052 117.288,322.142 117.861,323.905"/>
<polyline fill="none" stroke="#0000ff" stroke-width="2" stroke-linecap="butt" stroke-linejoin="miter" points="153.253,326.977 152.68,328.74 151.18,329.83 149.326,329.83 147.826,328.74 147.253,326.977 147.826,325.213 149.326,324.123 151.18,324.123 152.68,325.213 153.253,326.977"/>
<polyline fill="none" stroke="#0000ff" stroke-width="2" stroke-linecap="butt" stroke-linejoin="miter" points="154.443,327.597 153.87,329.36 152.37,330.45 150.516,330.45 149.016,329.36 148.443,327.597 149.016,325.834 150.516,324.744 152.37,324.744 153.87,325.834 154.443,327.597 153.87,329.36 152.37,330.45 150.516,330.45 149.016,329.36 148.443,327.597 149.016,325.834 150.516,324.744 152.37,324.744 153.87,325.834 154.443,327.597"/>
<polyline fill="none" stroke="#0000ff" stroke-width="2" stroke-linecap="butt" stroke-linejoin="miter" points="202.525,319.064 201.952,320.828 200.452,321.918 198.598,321.918 197.098,320.828 196.525,319.064 197.098,317.301 198.598,316.211 200.452,316.211 201.952,317.301 202.525,319.064"/>
<polyline fill="none" stroke="#0000ff" stroke-width="2" stroke-linecap="butt" stroke-linejoin="miter" points="212.786,306.907 212.213,308.671 210.713,309.761 208.858,309.761 207.358,308.671 206.786,306.907 207.358,305.144 208.858,304.054 210.713,304.054 212.213,305.144 212.786,306.907"/>
<polyline fill="none" stroke="#0000ff" stroke-width="2" stroke-linecap="butt" stroke-linejoin="miter" points="213.976,299.914 213.403,301.677 211.903,302.767 210.049,302.767 208.549,301.677 207.976,299.914 208.549,298.15 210.049,297.061 211.903,297.061 213.403,298.15 213.976,299.914 213.403,301.677 211.903,302.767 210.049,302.767 208.549,301.677 207.976,299.914 208.549,298.15 210.049,297.061 211.903,297.061 213.403,298.15 213.976,299.914"/>
<polyline fill="none" stroke="#0000ff" stroke-width="2" stroke-linecap="butt" stroke-linejoin="miter" points="285.456,287.229 284.883,288.992 283.383,290.082 281.529,290.082 280.029,288.992 279.456,287.229 280.029,285.465 281.529,284.375 283.383,284.375 284.883,285.465 285.456,287.229"/>
<polyline fill="none" stroke="#0000ff" stroke-width="2" stroke-linecap="butt" stroke-linejoin="miter" points="367.659,217.673 367.086,219.436 365.586,220.526 363.732,220.526 362.232,219.436 361.659,217.673 362.232,215.91 363.732,214.82 365.586,214.82 367.086,215.91 367.659,217.673"/>
<polyline fill="none" stroke="#0000ff" stroke-width="2" stroke-linecap="butt" stroke-linejoin="miter" points="508.656,74.47 508.083,76.2334 506.583,77.3232 504.729,77.3232 503.229,76.2334 502.656,74.47 503.229,72.7067 504.729,71.6169 506.583,71.6169 508.083,72.7067 508.656,74.47"/>
</g>
<clipPath id="cp00576432">
  <polygon points="0,432 576,432 576,0 0,0"/>
</clipPath>
<g clip-path="url(#cp00576432)">
<polygon fill="#ffffff" shape-rendering="crispEdges" points="417.712,83.4944 518.535,83.4944 417.712,35.145"/>
<polygon fill="#ffffff" shape-rendering="crispEdges" points="518.535,83.4944 518.535,35.145 417.712,35.145"/>
<polyline fill="none" stroke="#262626" stroke-width="0.5" stroke-linecap="butt" stroke-linejoin="miter" stroke-dasharray="16,0" points="417.712,83.4944 518.535,83.4944"/>
<polyline fill="none" stroke="#262626" stroke-width="0.5" stroke-linecap="butt" stroke-linejoin="miter" stroke-dasharray="16,0" points="417.712,35.145 518.535,35.145"/>
<polyline fill="none" stroke="#262626" stroke-width="0.5" stroke-linecap="butt" stroke-linejoin="miter" stroke-dasharray="16,0" points="417.712,83.4944 417.712,35.145"/>
<polyline fill="none" stroke="#262626" stroke-width="0.5" stroke-linecap="butt" stroke-linejoin="miter" stroke-dasharray="16,0" points="518.535,83.4944 518.535,35.145"/>
<text fill="#000000" x="443.79" y="43.2032" font-size="10" text-anchor="start" dy="5" font-family="Helvetica">Initial step 0.1</text>
<text fill="#000000" x="443.79" y="59.3197" font-size="10" text-anchor="start" dy="5" font-family="Helvetica">Initial step 1</text>
<text fill="#000000" x="443.79" y="75.4362" font-size="10" text-anchor="start" dy="5" font-family="Helvetica">Initial step 10</text>
<polyline fill="none" stroke="#ff0000" stroke-width="2" stroke-linecap="butt" stroke-linejoin="miter" points="420.457,43.2032 441.045,43.2032"/>
<polyline fill="none" stroke="#ff0000" stroke-width="2" stroke-linecap="butt" stroke-linejoin="miter" points="433.751,43.2032 433.178,44.9666 431.678,46.0564 429.824,46.0564 428.324,44.9666 427.751,43.2032 428.324,41.4399 429.824,40.3501 431.678,40.3501 433.178,41.4399 433.751,43.2032"/>
<polyline fill="none" stroke="#00ff00" stroke-width="2" stroke-linecap="butt" stroke-linejoin="miter" points="420.457,59.3197 441.045,59.3197"/>
<polyline fill="none" stroke="#00ff00" stroke-width="2" stroke-linecap="butt" stroke-linejoin="miter" points="433.751,59.3197 433.178,61.0831 431.678,62.1729 429.824,62.1729 428.324,61.0831 427.751,59.3197 428.324,57.5563 429.824,56.4665 431.678,56.4665 433.178,57.5563 433.751,59.3197"/>
<polyline fill="none" stroke="#0000ff" stroke-width="2" stroke-linecap="butt" stroke-linejoin="miter" points="420.457,75.4362 441.045,75.4362"/>
<polyline fill="none" stroke="#0000ff" stroke-width="2" stroke-linecap="butt" stroke-linejoin="miter" points="433.751,75.4362 433.178,77.1995 431.678,78.2893 429.824,78.2893 428.324,77.1995 427.751,75.4362 428.324,73.6728 429.824,72.583 431.678,72.583 433.178,73.6728 433.751,75.4362"/>
</g>
</g>
</svg>
