<?xml version="1.0" encoding="UTF-8" standalone="no"?>
<svg
   xmlns:dc="http://purl.org/dc/elements/1.1/"
   xmlns:cc="http://creativecommons.org/ns#"
   xmlns:rdf="http://www.w3.org/1999/02/22-rdf-syntax-ns#"
   xmlns:svg="http://www.w3.org/2000/svg"
   xmlns="http://www.w3.org/2000/svg"
   xmlns:sodipodi="http://sodipodi.sourceforge.net/DTD/sodipodi-0.dtd"
   xmlns:inkscape="http://www.inkscape.org/namespaces/inkscape"
   width="495.26959"
   height="371.79471"
   viewBox="0 0 495.2696 371.79471"
   version="1.1"
   id="svg157"
   sodipodi:docname="wallclockt_vs_delta_t.svg"
   inkscape:version="0.92.3 (2405546, 2018-03-11)">
  <metadata
     id="metadata161">
    <rdf:RDF>
      <cc:Work
         rdf:about="">
        <dc:format>image/svg+xml</dc:format>
        <dc:type
           rdf:resource="http://purl.org/dc/dcmitype/StillImage" />
      </cc:Work>
    </rdf:RDF>
  </metadata>
  <sodipodi:namedview
     pagecolor="#ffffff"
     bordercolor="#666666"
     borderopacity="1"
     objecttolerance="10"
     gridtolerance="10"
     guidetolerance="10"
     inkscape:pageopacity="0"
     inkscape:pageshadow="2"
     inkscape:window-width="1920"
     inkscape:window-height="1132"
     id="namedview159"
     showgrid="false"
     inkscape:zoom="1.0925926"
     inkscape:cx="498.85701"
     inkscape:cy="261.16361"
     inkscape:window-x="0"
     inkscape:window-y="0"
     inkscape:window-maximized="1"
     inkscape:current-layer="svg157" />
  <title
     id="title2">gl2ps_renderer figure</title>
  <desc
     id="desc4">
Creator: GL2PS 1.4.0, (C) 1999-2017 C. Geuzaine
For: Octave
CreationDate: Wed Sep 25 11:52:35 2019
</desc>
  <defs
     id="defs6">
    <clipPath
       id="cp00576432">
      <polygon
         id="polygon12"
         points="576,0 0,0 0,432 576,432 " />
    </clipPath>
    <clipPath
       id="clipPath129">
      <polygon
         id="polygon127"
         points="576,0 0,0 0,432 576,432 " />
    </clipPath>
  </defs>
  <polygon
     points="74.88,32.4 74.88,384.48 521.28,384.48 "
     id="polygon15"
     style="fill:#ffffff;shape-rendering:crispEdges"
     transform="translate(-33.412047,-32.4)" />
  <polygon
     points="74.88,32.4 521.28,384.48 521.28,32.4 "
     id="polygon17"
     style="fill:#ffffff;shape-rendering:crispEdges"
     transform="translate(-33.412047,-32.4)" />
  <polyline
     points="74.88,384.48 74.88,32.4"
     id="polyline19"
     style="fill:none;stroke:#262626;stroke-width:0.5;stroke-linecap:butt;stroke-linejoin:miter;stroke-dasharray:16, 0;stroke-opacity:0.15"
     transform="translate(-33.412047,-32.4)" />
  <polyline
     points="186.48,384.48 186.48,32.4"
     id="polyline21"
     style="fill:none;stroke:#262626;stroke-width:0.5;stroke-linecap:butt;stroke-linejoin:miter;stroke-dasharray:16, 0;stroke-opacity:0.15"
     transform="translate(-33.412047,-32.4)" />
  <polyline
     points="298.08,384.48 298.08,32.4"
     id="polyline23"
     style="fill:none;stroke:#262626;stroke-width:0.5;stroke-linecap:butt;stroke-linejoin:miter;stroke-dasharray:16, 0;stroke-opacity:0.15"
     transform="translate(-33.412047,-32.4)" />
  <polyline
     points="365.27,384.48 365.27,32.4"
     id="polyline25"
     style="fill:none;stroke:#262626;stroke-width:0.5;stroke-linecap:butt;stroke-linejoin:miter;stroke-dasharray:16, 0;stroke-opacity:0.15"
     transform="translate(-33.412047,-32.4)" />
  <polyline
     points="409.68,384.48 409.68,32.4"
     id="polyline27"
     style="fill:none;stroke:#262626;stroke-width:0.5;stroke-linecap:butt;stroke-linejoin:miter;stroke-dasharray:16, 0;stroke-opacity:0.15"
     transform="translate(-33.412047,-32.4)" />
  <polyline
     points="521.28,384.48 521.28,32.4"
     id="polyline29"
     style="fill:none;stroke:#262626;stroke-width:0.5;stroke-linecap:butt;stroke-linejoin:miter;stroke-dasharray:16, 0;stroke-opacity:0.15"
     transform="translate(-33.412047,-32.4)" />
  <polyline
     points="74.88,384.48 74.88,380.015"
     id="polyline31"
     style="fill:none;stroke:#262626;stroke-width:0.5;stroke-linecap:butt;stroke-linejoin:miter"
     transform="translate(-33.412047,-32.4)" />
  <polyline
     points="186.48,384.48 186.48,380.015"
     id="polyline33"
     style="fill:none;stroke:#262626;stroke-width:0.5;stroke-linecap:butt;stroke-linejoin:miter"
     transform="translate(-33.412047,-32.4)" />
  <polyline
     points="298.08,384.48 298.08,380.015"
     id="polyline35"
     style="fill:none;stroke:#262626;stroke-width:0.5;stroke-linecap:butt;stroke-linejoin:miter"
     transform="translate(-33.412047,-32.4)" />
  <polyline
     points="365.27,384.48 365.27,380.015"
     id="polyline37"
     style="fill:none;stroke:#262626;stroke-width:0.5;stroke-linecap:butt;stroke-linejoin:miter"
     transform="translate(-33.412047,-32.4)" />
  <polyline
     points="409.68,384.48 409.68,380.015"
     id="polyline39"
     style="fill:none;stroke:#262626;stroke-width:0.5;stroke-linecap:butt;stroke-linejoin:miter"
     transform="translate(-33.412047,-32.4)" />
  <polyline
     points="521.28,384.48 521.28,380.015"
     id="polyline41"
     style="fill:none;stroke:#262626;stroke-width:0.5;stroke-linecap:butt;stroke-linejoin:miter"
     transform="translate(-33.412047,-32.4)" />
  <text
     x="31.467951"
     y="371.53104"
     font-size="10"
     dy="0 0 0 0"
     id="text43"
     style="font-style:normal;font-variant:normal;font-weight:500;font-stretch:normal;font-size:12px;font-family:'CMU Serif';-inkscape-font-specification:'CMU Serif, Medium';font-variant-ligatures:normal;font-variant-caps:normal;font-variant-numeric:normal;font-feature-settings:normal;text-align:start;writing-mode:lr-tb;text-anchor:start;fill:#262626">0.01</text>
  <text
     x="143.06795"
     y="371.53104"
     font-size="10"
     dy="0 0 0"
     id="text47"
     style="font-style:normal;font-variant:normal;font-weight:500;font-stretch:normal;font-size:12px;font-family:'CMU Serif';-inkscape-font-specification:'CMU Serif, Medium';font-variant-ligatures:normal;font-variant-caps:normal;font-variant-numeric:normal;font-feature-settings:normal;text-align:start;writing-mode:lr-tb;text-anchor:start;fill:#262626">0.1</text>
  <text
     x="261.43069"
     y="371.66287"
     font-size="10"
     dy="0"
     id="text51"
     style="font-style:normal;font-variant:normal;font-weight:500;font-stretch:normal;font-size:12px;font-family:'CMU Serif';-inkscape-font-specification:'CMU Serif, Medium';font-variant-ligatures:normal;font-variant-caps:normal;font-variant-numeric:normal;font-feature-settings:normal;text-align:start;writing-mode:lr-tb;text-anchor:start;fill:#262626">1</text>
  <text
     x="328.36008"
     y="371.72745"
     font-size="10"
     dy="0"
     id="text55"
     style="font-style:normal;font-variant:normal;font-weight:500;font-stretch:normal;font-size:12px;font-family:'CMU Serif';-inkscape-font-specification:'CMU Serif, Medium';font-variant-ligatures:normal;font-variant-caps:normal;font-variant-numeric:normal;font-feature-settings:normal;text-align:start;writing-mode:lr-tb;text-anchor:start;fill:#262626">4</text>
  <text
     x="367.76797"
     y="371.53104"
     font-size="10"
     dy="0"
     id="text59"
     style="font-style:normal;font-variant:normal;font-weight:500;font-stretch:normal;font-size:12px;font-family:'CMU Serif';-inkscape-font-specification:'CMU Serif, Medium';font-variant-ligatures:normal;font-variant-caps:normal;font-variant-numeric:normal;font-feature-settings:normal;text-align:start;writing-mode:lr-tb;text-anchor:start;fill:#262626">10</text>
  <text
     x="477.75006"
     y="371.53104"
     font-size="10"
     dy="0"
     id="text63"
     style="font-style:normal;font-variant:normal;font-weight:500;font-stretch:normal;font-size:12px;font-family:'CMU Serif';-inkscape-font-specification:'CMU Serif, Medium';font-variant-ligatures:normal;font-variant-caps:normal;font-variant-numeric:normal;font-feature-settings:normal;text-align:start;writing-mode:lr-tb;text-anchor:start;fill:#262626">100</text>
  <polyline
     points="74.88,66.5201 521.28,66.5201"
     id="polyline67"
     style="fill:none;stroke:#262626;stroke-width:0.5;stroke-linecap:butt;stroke-linejoin:miter;stroke-dasharray:16, 0;stroke-opacity:0.15"
     transform="translate(-33.412047,-32.4)" />
  <polyline
     points="74.88,231.771 521.28,231.771"
     id="polyline69"
     style="fill:none;stroke:#262626;stroke-width:0.5;stroke-linecap:butt;stroke-linejoin:miter;stroke-dasharray:16, 0;stroke-opacity:0.15"
     transform="translate(-33.412047,-32.4)" />
  <polyline
     points="74.88,302.032 521.28,302.032"
     id="polyline71"
     style="fill:none;stroke:#262626;stroke-width:0.5;stroke-linecap:butt;stroke-linejoin:miter;stroke-dasharray:16, 0;stroke-opacity:0.15"
     transform="translate(-33.412047,-32.4)" />
  <polyline
     points="74.88,327.032 521.28,327.032"
     id="polyline73"
     style="fill:none;stroke:#262626;stroke-width:0.5;stroke-linecap:butt;stroke-linejoin:miter;stroke-dasharray:16, 0;stroke-opacity:0.15"
     transform="translate(-33.412047,-32.4)" />
  <polyline
     points="74.88,66.5201 79.348,66.5201"
     id="polyline75"
     style="fill:none;stroke:#262626;stroke-width:0.5;stroke-linecap:butt;stroke-linejoin:miter"
     transform="translate(-33.412047,-32.4)" />
  <polyline
     points="74.88,231.771 79.348,231.771"
     id="polyline77"
     style="fill:none;stroke:#262626;stroke-width:0.5;stroke-linecap:butt;stroke-linejoin:miter"
     transform="translate(-33.412047,-32.4)" />
  <polyline
     points="74.88,302.032 79.348,302.032"
     id="polyline79"
     style="fill:none;stroke:#262626;stroke-width:0.5;stroke-linecap:butt;stroke-linejoin:miter"
     transform="translate(-33.412047,-32.4)" />
  <polyline
     points="74.88,327.032 79.348,327.032"
     id="polyline81"
     style="fill:none;stroke:#262626;stroke-width:0.5;stroke-linecap:butt;stroke-linejoin:miter"
     transform="translate(-33.412047,-32.4)" />
  <text
     x="11.695312"
     y="36.959084"
     font-size="10"
     dy="0 0 0"
     id="text83"
     style="font-style:normal;font-variant:normal;font-weight:500;font-stretch:normal;font-size:12px;font-family:'CMU Serif';-inkscape-font-specification:'CMU Serif, Medium';font-variant-ligatures:normal;font-variant-caps:normal;font-variant-numeric:normal;font-feature-settings:normal;text-align:start;writing-mode:lr-tb;text-anchor:start;fill:#262626">0.64</text>
  <text
     x="-0.46875"
     y="202.20999"
     font-size="10"
     dy="0 0 0 0"
     id="text87"
     style="font-style:normal;font-variant:normal;font-weight:500;font-stretch:normal;font-size:12px;font-family:'CMU Serif';-inkscape-font-specification:'CMU Serif, Medium';font-variant-ligatures:normal;font-variant-caps:normal;font-variant-numeric:normal;font-feature-settings:normal;text-align:start;writing-mode:lr-tb;text-anchor:start;fill:#262626">0.0737</text>
  <text
     x="-0.3046875"
     y="272.47101"
     font-size="10"
     dy="0 0 0 0"
     id="text91"
     style="font-style:normal;font-variant:normal;font-weight:500;font-stretch:normal;font-size:12px;font-family:'CMU Serif';-inkscape-font-specification:'CMU Serif, Medium';font-variant-ligatures:normal;font-variant-caps:normal;font-variant-numeric:normal;font-feature-settings:normal;text-align:start;writing-mode:lr-tb;text-anchor:start;fill:#262626">0.0294</text>
  <text
     x="-0.041015625"
     y="297.47101"
     font-size="10"
     dy="0 0 0 0"
     id="text95"
     style="font-style:normal;font-variant:normal;font-weight:500;font-stretch:normal;font-size:12px;font-family:'CMU Serif';-inkscape-font-specification:'CMU Serif, Medium';font-variant-ligatures:normal;font-variant-caps:normal;font-variant-numeric:normal;font-feature-settings:normal;text-align:start;writing-mode:lr-tb;text-anchor:start;fill:#262626">0.0212</text>
  <polyline
     points="74.88,384.48 521.28,384.48"
     id="polyline99"
     style="fill:none;stroke:#262626;stroke-width:0.5;stroke-linecap:butt;stroke-linejoin:miter;stroke-dasharray:16, 0"
     transform="translate(-33.412047,-32.4)" />
  <polyline
     points="74.88,384.48 74.88,32.4"
     id="polyline101"
     style="fill:none;stroke:#262626;stroke-width:0.5;stroke-linecap:butt;stroke-linejoin:miter;stroke-dasharray:16, 0"
     transform="translate(-33.412047,-32.4)" />
  <polyline
     points="74.88,66.5533 186.48,231.817 298.08,302.042 331.675,318.183 351.327,323.235 365.27,327.033 376.085,323.83 409.68,320.313 521.28,243.55"
     id="polyline103"
     style="fill:none;stroke:#0000ff;stroke-width:2;stroke-linecap:butt;stroke-linejoin:miter"
     transform="translate(-33.412047,-32.4)" />
  <polyline
     points="77.88,66.5533 77.3071,68.3167 75.8071,69.4064 73.9529,69.4064 72.4529,68.3167 71.88,66.5533 72.4529,64.7899 73.9529,63.7001 75.8071,63.7001 77.3071,64.7899 77.88,66.5533"
     id="polyline105"
     style="fill:none;stroke:#0000ff;stroke-width:2;stroke-linecap:butt;stroke-linejoin:miter"
     transform="translate(-33.412047,-32.4)" />
  <polyline
     points="189.48,231.817 188.907,233.58 187.407,234.67 185.553,234.67 184.053,233.58 183.48,231.817 184.053,230.054 185.553,228.964 187.407,228.964 188.907,230.054 189.48,231.817"
     id="polyline107"
     style="fill:none;stroke:#0000ff;stroke-width:2;stroke-linecap:butt;stroke-linejoin:miter"
     transform="translate(-33.412047,-32.4)" />
  <polyline
     points="301.08,302.042 300.507,303.805 299.007,304.895 297.153,304.895 295.653,303.805 295.08,302.042 295.653,300.279 297.153,299.189 299.007,299.189 300.507,300.279 301.08,302.042"
     id="polyline109"
     style="fill:none;stroke:#0000ff;stroke-width:2;stroke-linecap:butt;stroke-linejoin:miter"
     transform="translate(-33.412047,-32.4)" />
  <polyline
     points="334.675,318.183 334.102,319.946 332.602,321.036 330.748,321.036 329.248,319.946 328.675,318.183 329.248,316.419 330.748,315.329 332.602,315.329 334.102,316.419 334.675,318.183"
     id="polyline111"
     style="fill:none;stroke:#0000ff;stroke-width:2;stroke-linecap:butt;stroke-linejoin:miter"
     transform="translate(-33.412047,-32.4)" />
  <polyline
     points="354.327,323.235 353.754,324.999 352.254,326.089 350.4,326.089 348.9,324.999 348.327,323.235 348.9,321.472 350.4,320.382 352.254,320.382 353.754,321.472 354.327,323.235"
     id="polyline113"
     style="fill:none;stroke:#0000ff;stroke-width:2;stroke-linecap:butt;stroke-linejoin:miter"
     transform="translate(-33.412047,-32.4)" />
  <polyline
     points="368.27,327.033 367.697,328.796 366.197,329.886 364.343,329.886 362.843,328.796 362.27,327.033 362.843,325.27 364.343,324.18 366.197,324.18 367.697,325.27 368.27,327.033"
     id="polyline115"
     style="fill:none;stroke:#0000ff;stroke-width:2;stroke-linecap:butt;stroke-linejoin:miter"
     transform="translate(-33.412047,-32.4)" />
  <polyline
     points="379.085,323.83 378.512,325.593 377.012,326.683 375.158,326.683 373.658,325.593 373.085,323.83 373.658,322.066 375.158,320.976 377.012,320.976 378.512,322.066 379.085,323.83"
     id="polyline117"
     style="fill:none;stroke:#0000ff;stroke-width:2;stroke-linecap:butt;stroke-linejoin:miter"
     transform="translate(-33.412047,-32.4)" />
  <polyline
     points="412.68,320.313 412.107,322.077 410.607,323.166 408.753,323.166 407.253,322.077 406.68,320.313 407.253,318.55 408.753,317.46 410.607,317.46 412.107,318.55 412.68,320.313"
     id="polyline119"
     style="fill:none;stroke:#0000ff;stroke-width:2;stroke-linecap:butt;stroke-linejoin:miter"
     transform="translate(-33.412047,-32.4)" />
  <polyline
     points="524.28,243.55 523.707,245.314 522.207,246.403 520.353,246.403 518.853,245.314 518.28,243.55 518.853,241.787 520.353,240.697 522.207,240.697 523.707,241.787 524.28,243.55"
     id="polyline121"
     style="fill:none;stroke:#0000ff;stroke-width:2;stroke-linecap:butt;stroke-linejoin:miter"
     transform="translate(-33.412047,-32.4)" />
  <polyline
     points="74.88,324.898 521.28,324.898"
     id="polyline123"
     style="fill:none;stroke:#ff0000;stroke-width:2;stroke-linecap:butt;stroke-linejoin:miter"
     transform="translate(-33.412047,-32.4)" />
</svg>
