<?xml version="1.0" encoding="UTF-8" standalone="no"?>
<svg xmlns="http://www.w3.org/2000/svg"
     xmlns:xlink="http://www.w3.org/1999/xlink"
     width="576px" height="433px" viewBox="0 0 576 433">
<title>glps_renderer figure</title>
<desc>
Creator: GL2PS 1.3.8, (C) 1999-2012 C. Geuzaine
For: Octave
CreationDate: Thu Jun 20 11:17:43 2019
</desc>
<defs>
</defs>
<g shape-rendering="crispEdges">
<polygon fill="#ffffff" points="72.7998,374.69 506.8,374.69 506.8,31.5752"/>
<polygon fill="#ffffff" points="72.7998,374.69 506.8,31.5752 72.7998,31.5752"/>
<polygon fill="#ffffff" points="382.159,89.0337 504.136,89.0337 504.136,34.2456"/>
<polygon fill="#ffffff" points="382.159,89.0337 504.136,34.2456 382.159,34.2456"/>
<polyline fill="none" stroke="#000000" stroke-width="0.5" stroke-dasharray="16,0" points="72.7998,374.69 506.8,374.69"/>
<polyline fill="none" stroke="#000000" stroke-width="0.5" stroke-dasharray="16,0" points="72.7998,31.5752 506.8,31.5752"/>
<polyline fill="none" stroke="#000000" stroke-width="0.5" stroke-dasharray="16,0" points="72.7998,374.69 72.7998,31.5752"/>
<polyline fill="none" stroke="#000000" stroke-width="0.5" stroke-dasharray="16,0" points="506.8,374.69 506.8,31.5752"/>
<polyline fill="none" stroke="#000000" stroke-width="0.5" stroke-dasharray="0,3,1,3,1,3,1,3,1,0" points="72.7998,374.69 72.7998,31.5752"/>
<polyline fill="none" stroke="#000000" stroke-width="0.5" stroke-dasharray="0,3,1,3,1,3,1,3,1,0" points="181.3,374.69 181.3,31.5752"/>
<polyline fill="none" stroke="#000000" stroke-width="0.5" stroke-dasharray="0,3,1,3,1,3,1,3,1,0" points="289.8,374.69 289.8,31.5752"/>
<polyline fill="none" stroke="#000000" stroke-width="0.5" stroke-dasharray="0,3,1,3,1,3,1,3,1,0" points="398.3,374.69 398.3,31.5752"/>
<polyline fill="none" stroke="#000000" stroke-width="0.5" stroke-dasharray="0,3,1,3,1,3,1,3,1,0" points="506.8,374.69 506.8,31.5752"/>
<polyline fill="none" stroke="#000000" stroke-width="0.5" stroke-dasharray="16,0" points="72.7998,374.69 72.7998,370.349"/>
<polyline fill="none" stroke="#000000" stroke-width="0.5" stroke-dasharray="16,0" points="72.7998,31.5752 72.7998,35.9165"/>
<polyline fill="none" stroke="#000000" stroke-width="0.5" stroke-dasharray="16,0" points="181.3,374.69 181.3,370.349"/>
<polyline fill="none" stroke="#000000" stroke-width="0.5" stroke-dasharray="16,0" points="181.3,31.5752 181.3,35.9165"/>
<polyline fill="none" stroke="#000000" stroke-width="0.5" stroke-dasharray="16,0" points="289.8,374.69 289.8,370.349"/>
<polyline fill="none" stroke="#000000" stroke-width="0.5" stroke-dasharray="16,0" points="289.8,31.5752 289.8,35.9165"/>
<polyline fill="none" stroke="#000000" stroke-width="0.5" stroke-dasharray="16,0" points="398.3,374.69 398.3,370.349"/>
<polyline fill="none" stroke="#000000" stroke-width="0.5" stroke-dasharray="16,0" points="398.3,31.5752 398.3,35.9165"/>
<polyline fill="none" stroke="#000000" stroke-width="0.5" stroke-dasharray="16,0" points="506.8,374.69 506.8,370.349"/>
<polyline fill="none" stroke="#000000" stroke-width="0.5" stroke-dasharray="16,0" points="506.8,31.5752 506.8,35.9165"/>
<text fill="#000000" x="72.7998" y="379.692" font-size="10" text-anchor="middle" baseline-shift="-10" font-family="Helvetica">0</text>
<text fill="#000000" x="181.3" y="379.692" font-size="10" text-anchor="middle" baseline-shift="-10" font-family="Helvetica">5</text>
<text fill="#000000" x="289.8" y="379.692" font-size="10" text-anchor="middle" baseline-shift="-10" font-family="Helvetica">10</text>
<text fill="#000000" x="398.3" y="379.692" font-size="10" text-anchor="middle" baseline-shift="-10" font-family="Helvetica">15</text>
<text fill="#000000" x="506.8" y="379.692" font-size="10" text-anchor="middle" baseline-shift="-10" font-family="Helvetica">20</text>
<polyline fill="none" stroke="#000000" stroke-width="0.5" stroke-dasharray="0,3,1,3,1,3,1,3,1,0" points="72.7998,331.801 506.8,331.801"/>
<polyline fill="none" stroke="#000000" stroke-width="0.5" stroke-dasharray="0,3,1,3,1,3,1,3,1,0" points="72.7998,246.022 506.8,246.022"/>
<polyline fill="none" stroke="#000000" stroke-width="0.5" stroke-dasharray="0,3,1,3,1,3,1,3,1,0" points="72.7998,160.243 506.8,160.243"/>
<polyline fill="none" stroke="#000000" stroke-width="0.5" stroke-dasharray="0,3,1,3,1,3,1,3,1,0" points="72.7998,74.4644 506.8,74.4644"/>
<polyline fill="none" stroke="#000000" stroke-width="0.5" stroke-dasharray="16,0" points="72.7998,331.801 77.1401,331.801"/>
<polyline fill="none" stroke="#000000" stroke-width="0.5" stroke-dasharray="16,0" points="506.8,331.801 502.46,331.801"/>
<polyline fill="none" stroke="#000000" stroke-width="0.5" stroke-dasharray="16,0" points="72.7998,246.022 77.1401,246.022"/>
<polyline fill="none" stroke="#000000" stroke-width="0.5" stroke-dasharray="16,0" points="506.8,246.022 502.46,246.022"/>
<polyline fill="none" stroke="#000000" stroke-width="0.5" stroke-dasharray="16,0" points="72.7998,160.243 77.1401,160.243"/>
<polyline fill="none" stroke="#000000" stroke-width="0.5" stroke-dasharray="16,0" points="506.8,160.243 502.46,160.243"/>
<polyline fill="none" stroke="#000000" stroke-width="0.5" stroke-dasharray="16,0" points="72.7998,74.4644 77.1401,74.4644"/>
<polyline fill="none" stroke="#000000" stroke-width="0.5" stroke-dasharray="16,0" points="506.8,74.4644 502.46,74.4644"/>
<text fill="#000000" x="67.7998" y="331.801" font-size="10" text-anchor="end" baseline-shift="-5" font-family="Helvetica">1</text>
<text fill="#000000" x="67.7998" y="246.022" font-size="10" text-anchor="end" baseline-shift="-5" font-family="Helvetica">2</text>
<text fill="#000000" x="67.7998" y="160.243" font-size="10" text-anchor="end" baseline-shift="-5" font-family="Helvetica">3</text>
<text fill="#000000" x="67.7998" y="74.4644" font-size="10" text-anchor="end" baseline-shift="-5" font-family="Helvetica">4</text>
<polyline fill="none" stroke="#ff0000" stroke-width="2" points="75.7998,331.801 75.2271,333.564 73.7271,334.654 71.873,334.654 70.373,333.564 69.7998,331.801 70.373,330.037 71.873,328.947 73.7271,328.947 75.2271,330.037 75.7998,331.801 75.2271,333.564 73.7271,334.654 71.873,334.654 70.373,333.564 69.7998,331.801 70.373,330.037 71.873,328.947 73.7271,328.947 75.2271,330.037 75.7998,331.801"/>
<polyline fill="none" stroke="#ff0000" stroke-width="2" points="97.5,331.801 96.9272,333.564 95.4272,334.654 93.5728,334.654 92.0728,333.564 91.5,331.801 92.0728,330.037 93.5728,328.947 95.4272,328.947 96.9272,330.037 97.5,331.801"/>
<polyline fill="none" stroke="#ff0000" stroke-width="2" points="119.2,331.801 118.627,333.564 117.127,334.654 115.273,334.654 113.773,333.564 113.2,331.801 113.773,330.037 115.273,328.947 117.127,328.947 118.627,330.037 119.2,331.801"/>
<polyline fill="none" stroke="#ff0000" stroke-width="2" points="132.37,331.801 131.797,333.564 130.297,334.654 128.443,334.654 126.943,333.564 126.37,331.801 126.943,330.037 128.443,328.947 130.297,328.947 131.797,330.037 132.37,331.801"/>
<polyline fill="none" stroke="#ff0000" stroke-width="2" points="134.106,246.022 133.533,247.785 132.033,248.875 130.179,248.875 128.679,247.785 128.106,246.022 128.679,244.258 130.179,243.169 132.033,243.169 133.533,244.258 134.106,246.022"/>
<polyline fill="none" stroke="#ff0000" stroke-width="2" points="155.806,246.022 155.233,247.785 153.733,248.875 151.879,248.875 150.379,247.785 149.806,246.022 150.379,244.258 151.879,243.169 153.733,243.169 155.233,244.258 155.806,246.022"/>
<polyline fill="none" stroke="#ff0000" stroke-width="2" points="177.506,246.022 176.933,247.785 175.433,248.875 173.579,248.875 172.079,247.785 171.506,246.022 172.079,244.258 173.579,243.169 175.433,243.169 176.933,244.258 177.506,246.022"/>
<polyline fill="none" stroke="#ff0000" stroke-width="2" points="185.719,246.022 185.146,247.785 183.646,248.875 181.792,248.875 180.292,247.785 179.719,246.022 180.292,244.258 181.792,243.169 183.646,243.169 185.146,244.258 185.719,246.022"/>
<polyline fill="none" stroke="#ff0000" stroke-width="2" points="187.455,160.243 186.882,162.006 185.382,163.096 183.528,163.096 182.028,162.006 181.455,160.243 182.028,158.48 183.528,157.39 185.382,157.39 186.882,158.48 187.455,160.243"/>
<polyline fill="none" stroke="#ff0000" stroke-width="2" points="209.155,160.243 208.582,162.006 207.082,163.096 205.228,163.096 203.728,162.006 203.155,160.243 203.728,158.48 205.228,157.39 207.082,157.39 208.582,158.48 209.155,160.243"/>
<polyline fill="none" stroke="#ff0000" stroke-width="2" points="230.855,160.243 230.282,162.006 228.782,163.096 226.928,163.096 225.428,162.006 224.855,160.243 225.428,158.48 226.928,157.39 228.782,157.39 230.282,158.48 230.855,160.243"/>
<polyline fill="none" stroke="#ff0000" stroke-width="2" points="252.555,160.243 251.982,162.006 250.482,163.096 248.628,163.096 247.128,162.006 246.555,160.243 247.128,158.48 248.628,157.39 250.482,157.39 251.982,158.48 252.555,160.243"/>
<polyline fill="none" stroke="#ff0000" stroke-width="2" points="272.537,160.243 271.964,162.006 270.464,163.096 268.61,163.096 267.11,162.006 266.537,160.243 267.11,158.48 268.61,157.39 270.464,157.39 271.964,158.48 272.537,160.243"/>
<polyline fill="none" stroke="#ff0000" stroke-width="2" points="274.273,74.4644 273.7,76.2275 272.2,77.3174 270.346,77.3174 268.846,76.2275 268.273,74.4644 268.846,72.7012 270.346,71.6113 272.2,71.6113 273.7,72.7012 274.273,74.4644"/>
<polyline fill="none" stroke="#ff0000" stroke-width="2" points="295.973,74.4644 295.4,76.2275 293.9,77.3174 292.046,77.3174 290.546,76.2275 289.973,74.4644 290.546,72.7012 292.046,71.6113 293.9,71.6113 295.4,72.7012 295.973,74.4644"/>
<polyline fill="none" stroke="#ff0000" stroke-width="2" points="317.673,74.4644 317.1,76.2275 315.6,77.3174 313.746,77.3174 312.246,76.2275 311.673,74.4644 312.246,72.7012 313.746,71.6113 315.6,71.6113 317.1,72.7012 317.673,74.4644"/>
<polyline fill="none" stroke="#ff0000" stroke-width="2" points="339.373,74.4644 338.8,76.2275 337.3,77.3174 335.446,77.3174 333.946,76.2275 333.373,74.4644 333.946,72.7012 335.446,71.6113 337.3,71.6113 338.8,72.7012 339.373,74.4644"/>
<polyline fill="none" stroke="#ff0000" stroke-width="2" points="361.073,74.4644 360.5,76.2275 359,77.3174 357.146,77.3174 355.646,76.2275 355.073,74.4644 355.646,72.7012 357.146,71.6113 359,71.6113 360.5,72.7012 361.073,74.4644"/>
<polyline fill="none" stroke="#ff0000" stroke-width="2" points="382.773,74.4644 382.2,76.2275 380.7,77.3174 378.846,77.3174 377.346,76.2275 376.773,74.4644 377.346,72.7012 378.846,71.6113 380.7,71.6113 382.2,72.7012 382.773,74.4644"/>
<polyline fill="none" stroke="#ff0000" stroke-width="2" points="404.473,74.4644 403.9,76.2275 402.4,77.3174 400.546,77.3174 399.046,76.2275 398.473,74.4644 399.046,72.7012 400.546,71.6113 402.4,71.6113 403.9,72.7012 404.473,74.4644"/>
<polyline fill="none" stroke="#ff0000" stroke-width="2" points="426.173,74.4644 425.6,76.2275 424.1,77.3174 422.246,77.3174 420.746,76.2275 420.173,74.4644 420.746,72.7012 422.246,71.6113 424.1,71.6113 425.6,72.7012 426.173,74.4644"/>
<polyline fill="none" stroke="#ff0000" stroke-width="2" points="447.873,74.4644 447.3,76.2275 445.8,77.3174 443.946,77.3174 442.446,76.2275 441.873,74.4644 442.446,72.7012 443.946,71.6113 445.8,71.6113 447.3,72.7012 447.873,74.4644"/>
<polyline fill="none" stroke="#ff0000" stroke-width="2" points="469.573,74.4644 469,76.2275 467.5,77.3174 465.646,77.3174 464.146,76.2275 463.573,74.4644 464.146,72.7012 465.646,71.6113 467.5,71.6113 469,72.7012 469.573,74.4644"/>
<polyline fill="none" stroke="#ff0000" stroke-width="2" points="491.273,74.4644 490.7,76.2275 489.2,77.3174 487.346,77.3174 485.846,76.2275 485.273,74.4644 485.846,72.7012 487.346,71.6113 489.2,71.6113 490.7,72.7012 491.273,74.4644"/>
<polyline fill="none" stroke="#0000ff" stroke-width="2" points="72.7998,331.801 73.0171,331.801 73.2339,331.801 73.4512,331.801 73.668,331.801 73.8848,331.801 74.1021,331.801 74.3188,331.801 74.5361,331.801 74.7529,331.801 74.9702,331.801 75.187,331.801 75.4038,331.801 75.6211,331.801 75.8379,331.801 76.0552,331.801 76.272,331.801 76.4893,331.801 76.7061,331.801 76.9229,331.801 77.1401,331.801 77.3569,331.801 77.5742,331.801 77.791,331.801 78.0078,331.801 78.2251,331.801 78.4419,331.801 78.6592,331.801 78.876,331.801 79.0928,331.801 79.3101,331.801 79.5269,331.801 79.7441,331.801 79.9609,331.801 80.1782,331.801 80.395,331.801 80.6118,331.801 80.8291,331.801 81.0459,331.801 81.2632,331.801 81.48,331.801 81.6973,331.801 81.9141,331.801 82.1309,331.801 82.3481,331.801 82.5649,331.801 82.7822,331.801 82.999,331.801 83.2158,331.801 83.4331,331.801 83.6499,331.801 83.8672,331.801 84.084,331.801 84.3008,331.801 84.5181,331.801 84.7349,331.801 84.9521,331.801 85.1689,331.801 85.3862,331.801 85.603,331.801 85.8198,331.801 86.0371,331.801 86.2539,331.801 86.4712,331.801 86.688,331.801 86.9048,331.801 87.1221,331.801 87.3389,331.801 87.5562,331.801 87.7729,331.801 87.9902,331.801 88.207,331.801 88.4238,331.801 88.6411,331.801 88.8579,331.801 89.0752,331.801 89.292,331.801 89.5088,331.801 89.7261,331.801 89.9429,331.801 90.1602,331.801 90.377,331.801 90.5942,331.801 90.811,331.801 91.0278,331.801 91.2451,331.801 91.4619,331.801 91.6792,331.801 91.896,331.801 92.1128,331.801 92.3301,331.801 92.5469,331.801 92.7642,331.801 92.981,331.801 93.1982,331.801 93.415,331.801 93.6318,331.801 93.8491,331.801 94.0659,331.801 94.2832,331.801 94.5,331.801 94.7168,331.801 94.9341,331.801 95.1509,331.801 95.3682,331.801 95.585,331.801 95.8022,331.801 96.019,331.801 96.2358,331.801 96.4531,331.801 96.6699,331.801 96.8872,331.801 97.104,331.801 97.3208,331.801 97.5381,331.801 97.7549,331.801 97.9722,331.801 98.189,331.801 98.4062,331.801 98.623,331.801 98.8398,331.801 99.0571,331.801 99.2739,331.801 99.4912,331.801 99.708,331.801 99.9248,331.801 100.142,331.801 100.359,331.801 100.576,331.801 100.793,331.801 101.01,331.801 101.227,331.801 101.444,331.801 101.661,331.801 101.878,331.801 102.095,331.801 102.312,331.801 102.529,331.801 102.746,331.801 102.963,331.801 103.18,331.801 103.397,331.801 103.614,331.801 103.831,331.801 104.048,331.801 104.265,331.801 104.482,331.801 104.699,331.801 104.916,331.801 105.133,331.801 105.35,331.801 105.567,331.801 105.784,331.801 106.001,331.801 106.218,331.801 106.435,331.801 106.652,331.801 106.869,331.801 107.086,331.801 107.303,331.801 107.52,331.801 107.737,331.801 107.954,331.801 108.171,331.801 108.388,331.801 108.605,331.801 108.822,331.801 109.039,331.801 109.256,331.801 109.473,331.801 109.69,331.801 109.907,331.801 110.124,331.801 110.341,331.801 110.558,331.801 110.775,331.801 110.992,331.801 111.209,331.801 111.426,331.801 111.643,331.801 111.86,331.801 112.077,331.801 112.294,331.801 112.511,331.801 112.728,331.801 112.945,331.801 113.162,331.801 113.379,331.801 113.596,331.801 113.813,331.801 114.03,331.801 114.247,331.801 114.464,331.801 114.681,331.801 114.898,331.801 115.115,331.801 115.332,331.801 115.549,331.801 115.766,331.801 115.983,331.801 116.2,331.801 116.417,331.801 116.634,331.801 116.851,331.801 117.068,331.801 117.285,331.801 117.502,331.801 117.719,331.801 117.936,331.801 118.153,331.801 118.37,331.801 118.587,331.801 118.804,331.801 119.021,331.801 119.238,331.801 119.455,331.801 119.672,331.801 119.889,331.801 120.106,331.801 120.323,331.801 120.54,331.801 120.757,331.801 120.974,331.801 121.191,331.801 121.408,331.801 121.625,331.801 121.842,331.801 122.059,331.801 122.276,331.801 122.493,331.801 122.71,331.801 122.927,331.801 123.144,331.801 123.361,331.801 123.578,331.801 123.795,331.801 124.012,331.801 124.229,331.801 124.446,331.801 124.663,331.801 124.88,331.801 125.097,331.801 125.314,331.801 125.531,331.801 125.748,331.801 125.965,331.801 126.182,331.801 126.399,331.801 126.616,331.801 126.833,331.801 127.05,331.801 127.267,331.801 127.484,331.801 127.701,331.801 127.918,331.801 128.135,331.801 128.352,331.801 128.569,331.801 128.786,331.801 129.003,331.801 129.22,331.801 129.437,331.801 129.654,331.801 129.871,331.801 130.088,331.801 130.305,331.801 130.522,331.801 130.739,331.801 130.956,331.801 131.173,246.022 131.39,246.022 131.607,246.022 131.824,246.022 132.041,246.022 132.258,246.022 132.475,246.022 132.692,246.022 132.909,246.022 133.126,246.022 133.343,246.022 133.56,246.022 133.777,246.022 133.994,246.022 134.211,246.022 134.428,246.022 134.645,246.022 134.862,246.022 135.079,246.022 135.296,246.022 135.513,246.022 135.73,246.022 135.947,246.022 136.164,246.022 136.381,246.022 136.598,246.022 136.815,246.022 137.032,246.022 137.249,246.022 137.466,246.022 137.683,246.022 137.9,246.022 138.117,246.022 138.334,246.022 138.551,246.022 138.768,246.022 138.985,246.022 139.202,246.022 139.419,246.022 139.636,246.022 139.853,246.022 140.07,246.022 140.287,246.022 140.504,246.022 140.721,246.022 140.938,246.022 141.155,246.022 141.372,246.022 141.589,246.022 141.806,246.022 142.023,246.022 142.24,246.022 142.457,246.022 142.674,246.022 142.891,246.022 143.108,246.022 143.325,246.022 143.542,246.022 143.759,246.022 143.976,246.022 144.193,246.022 144.41,246.022 144.627,246.022 144.844,246.022 145.061,246.022 145.278,246.022 145.495,246.022 145.712,246.022 145.929,246.022 146.146,246.022 146.363,246.022 146.58,246.022 146.797,246.022 147.014,246.022 147.231,246.022 147.448,246.022 147.665,246.022 147.882,246.022 148.099,246.022 148.316,246.022 148.533,246.022 148.75,246.022 148.967,246.022 149.184,246.022 149.401,246.022 149.618,246.022 149.835,246.022 150.052,246.022 150.269,246.022 150.486,246.022 150.703,246.022 150.92,246.022 151.137,246.022 151.354,246.022 151.571,246.022 151.788,246.022 152.005,246.022 152.222,246.022 152.439,246.022 152.656,246.022 152.873,246.022 153.09,246.022 153.307,246.022 153.524,246.022 153.741,246.022 153.958,246.022 154.175,246.022 154.392,246.022 154.609,246.022 154.826,246.022 155.043,246.022 155.26,246.022 155.477,246.022 155.694,246.022 155.911,246.022 156.128,246.022 156.345,246.022 156.562,246.022 156.779,246.022 156.996,246.022 157.213,246.022 157.43,246.022 157.647,246.022 157.864,246.022 158.081,246.022 158.298,246.022 158.515,246.022 158.732,246.022 158.949,246.022 159.166,246.022 159.383,246.022 159.6,246.022 159.817,246.022 160.034,246.022 160.251,246.022 160.468,246.022 160.685,246.022 160.902,246.022 161.119,246.022 161.336,246.022 161.553,246.022 161.77,246.022 161.987,246.022 162.204,246.022 162.421,246.022 162.638,246.022 162.855,246.022 163.072,246.022 163.289,246.022 163.506,246.022 163.723,246.022 163.94,246.022 164.157,246.022 164.374,246.022 164.591,246.022 164.808,246.022 165.025,246.022 165.242,246.022 165.459,246.022 165.676,246.022 165.893,246.022 166.11,246.022 166.327,246.022 166.544,246.022 166.761,246.022 166.978,246.022 167.195,246.022 167.412,246.022 167.629,246.022 167.846,246.022 168.063,246.022 168.28,246.022 168.497,246.022 168.714,246.022 168.931,246.022 169.148,246.022 169.365,246.022 169.582,246.022 169.799,246.022 170.016,246.022 170.233,246.022 170.45,246.022 170.667,246.022 170.884,246.022 171.101,246.022 171.318,246.022 171.535,246.022 171.752,246.022 171.969,246.022 172.186,246.022 172.403,246.022 172.62,246.022 172.837,246.022 173.054,246.022 173.271,246.022 173.488,246.022 173.705,246.022 173.922,246.022 174.139,246.022 174.356,246.022 174.573,246.022 174.79,246.022 175.007,246.022 175.224,246.022 175.441,246.022 175.658,246.022 175.875,246.022 176.092,246.022 176.309,246.022 176.526,246.022 176.743,246.022 176.96,246.022 177.177,246.022 177.394,246.022 177.611,246.022 177.828,246.022 178.045,246.022 178.262,246.022 178.479,246.022 178.696,246.022 178.913,246.022 179.13,246.022 179.347,246.022 179.564,246.022 179.781,246.022 179.998,246.022 180.215,246.022 180.432,246.022 180.649,246.022 180.866,246.022 181.083,246.022 181.3,246.022 181.517,246.022 181.734,246.022 181.951,246.022 182.168,246.022 182.385,246.022 182.602,246.022 182.819,246.022 183.036,246.022 183.253,246.022 183.47,246.022 183.687,246.022 183.904,246.022 184.121,246.022 184.338,246.022 184.555,160.243 184.772,160.243 184.989,160.243 185.206,160.243 185.423,160.243 185.64,160.243 185.857,160.243 186.074,160.243 186.291,160.243 186.508,160.243 186.725,160.243 186.942,160.243 187.159,160.243 187.376,160.243 187.593,160.243 187.81,160.243 188.027,160.243 188.244,160.243 188.461,160.243 188.678,160.243 188.895,160.243 189.112,160.243 189.329,160.243 189.546,160.243 189.763,160.243 189.98,160.243 190.197,160.243 190.414,160.243 190.631,160.243 190.848,160.243 191.065,160.243 191.282,160.243 191.499,160.243 191.716,160.243 191.933,160.243 192.15,160.243 192.367,160.243 192.584,160.243 192.801,160.243 193.018,160.243 193.235,160.243 193.452,160.243 193.669,160.243 193.886,160.243 194.103,160.243 194.32,160.243 194.537,160.243 194.754,160.243 194.971,160.243 195.188,160.243 195.405,160.243 195.622,160.243 195.839,160.243 196.056,160.243 196.273,160.243 196.49,160.243 196.707,160.243 196.924,160.243 197.141,160.243 197.358,160.243 197.575,160.243 197.792,160.243 198.009,160.243 198.226,160.243 198.443,160.243 198.66,160.243 198.877,160.243 199.094,160.243 199.311,160.243 199.528,160.243 199.745,160.243 199.962,160.243 200.179,160.243 200.396,160.243 200.613,160.243 200.83,160.243 201.047,160.243 201.264,160.243 201.481,160.243 201.698,160.243 201.915,160.243 202.132,160.243 202.349,160.243 202.566,160.243 202.783,160.243 203,160.243 203.217,160.243 203.434,160.243 203.651,160.243 203.868,160.243 204.085,160.243 204.302,160.243 204.519,160.243 204.736,160.243 204.953,160.243 205.17,160.243 205.387,160.243 205.604,160.243 205.821,160.243 206.038,160.243 206.255,160.243 206.472,160.243 206.689,160.243 206.906,160.243 207.123,160.243 207.34,160.243 207.557,160.243 207.774,160.243 207.991,160.243 208.208,160.243 208.425,160.243 208.642,160.243 208.859,160.243 209.076,160.243 209.293,160.243 209.51,160.243 209.727,160.243 209.944,160.243 210.161,160.243 210.378,160.243 210.595,160.243 210.812,160.243 211.029,160.243 211.246,160.243 211.463,160.243 211.68,160.243 211.897,160.243 212.114,160.243 212.331,160.243 212.548,160.243 212.765,160.243 212.982,160.243 213.199,160.243 213.416,160.243 213.633,160.243 213.85,160.243 214.067,160.243 214.284,160.243 214.501,160.243 214.718,160.243 214.935,160.243 215.152,160.243 215.369,160.243 215.586,160.243 215.803,160.243 216.02,160.243 216.237,160.243 216.454,160.243 216.671,160.243 216.888,160.243 217.105,160.243 217.322,160.243 217.539,160.243 217.756,160.243 217.973,160.243 218.19,160.243 218.407,160.243 218.624,160.243 218.841,160.243 219.058,160.243 219.275,160.243 219.492,160.243 219.709,160.243 219.926,160.243 220.143,160.243 220.36,160.243 220.577,160.243 220.794,160.243 221.011,160.243 221.228,160.243 221.445,160.243 221.662,160.243 221.879,160.243 222.096,160.243 222.313,160.243 222.53,160.243 222.747,160.243 222.964,160.243 223.181,160.243 223.398,160.243 223.615,160.243 223.832,160.243 224.049,160.243 224.266,160.243 224.483,160.243 224.7,160.243 224.917,160.243 225.134,160.243 225.351,160.243 225.568,160.243 225.785,160.243 226.002,160.243 226.219,160.243 226.436,160.243 226.653,160.243 226.87,160.243 227.087,160.243 227.304,160.243 227.521,160.243 227.738,160.243 227.955,160.243 228.172,160.243 228.389,160.243 228.606,160.243 228.823,160.243 229.04,160.243 229.257,160.243 229.474,160.243 229.691,160.243 229.908,160.243 230.125,160.243 230.342,160.243 230.559,160.243 230.776,160.243 230.993,160.243 231.21,160.243 231.427,160.243 231.644,160.243 231.861,160.243 232.078,160.243 232.295,160.243 232.512,160.243 232.729,160.243 232.946,160.243 233.163,160.243 233.38,160.243 233.597,160.243 233.814,160.243 234.031,160.243 234.248,160.243 234.465,160.243 234.682,160.243 234.899,160.243 235.116,160.243 235.333,160.243 235.55,160.243 235.767,160.243 235.984,160.243 236.201,160.243 236.418,160.243 236.635,160.243 236.852,160.243 237.069,160.243 237.286,160.243 237.503,160.243 237.72,160.243 237.937,160.243 238.154,160.243 238.371,160.243 238.588,160.243 238.805,160.243 239.022,160.243 239.239,160.243 239.456,160.243 239.673,160.243 239.89,160.243 240.107,160.243 240.324,160.243 240.541,160.243 240.758,160.243 240.975,160.243 241.192,160.243 241.409,160.243 241.626,160.243 241.843,160.243 242.06,160.243 242.277,160.243 242.494,160.243 242.711,160.243 242.928,160.243 243.145,160.243 243.362,160.243 243.579,160.243 243.796,160.243 244.013,160.243 244.23,160.243 244.447,160.243 244.664,160.243 244.881,160.243 245.098,160.243 245.315,160.243 245.532,160.243 245.749,160.243 245.966,160.243 246.183,160.243 246.4,160.243 246.617,160.243 246.834,160.243 247.051,160.243 247.268,160.243 247.485,160.243 247.702,160.243 247.919,160.243 248.136,160.243 248.353,160.243 248.57,160.243 248.787,160.243 249.004,160.243 249.221,160.243 249.438,160.243 249.655,160.243 249.872,160.243 250.089,160.243 250.306,160.243 250.523,160.243 250.74,160.243 250.957,160.243 251.174,160.243 251.391,160.243 251.608,160.243 251.825,160.243 252.042,160.243 252.259,160.243 252.476,160.243 252.693,160.243 252.91,160.243 253.127,160.243 253.344,160.243 253.561,160.243 253.778,160.243 253.995,160.243 254.212,160.243 254.429,160.243 254.646,160.243 254.863,160.243 255.08,160.243 255.297,160.243 255.514,160.243 255.731,160.243 255.948,160.243 256.165,160.243 256.382,160.243 256.599,160.243 256.816,160.243 257.033,160.243 257.25,160.243 257.467,160.243 257.684,160.243 257.901,160.243 258.118,160.243 258.335,160.243 258.552,160.243 258.769,160.243 258.986,160.243 259.203,160.243 259.42,160.243 259.637,160.243 259.854,160.243 260.071,160.243 260.288,160.243 260.505,160.243 260.722,160.243 260.939,160.243 261.156,160.243 261.373,160.243 261.59,160.243 261.807,160.243 262.024,160.243 262.241,160.243 262.458,160.243 262.675,160.243 262.892,160.243 263.109,160.243 263.326,160.243 263.543,160.243 263.76,160.243 263.977,160.243 264.194,160.243 264.411,160.243 264.628,160.243 264.845,160.243 265.062,160.243 265.279,160.243 265.496,160.243 265.713,160.243 265.93,160.243 266.147,160.243 266.364,160.243 266.581,160.243 266.798,160.243 267.015,160.243 267.232,160.243 267.449,160.243 267.666,160.243 267.883,160.243 268.1,160.243 268.317,160.243 268.534,160.243 268.751,160.243 268.968,160.243 269.185,160.243 269.402,160.243 269.619,160.243 269.836,160.243 270.053,160.243 270.27,160.243 270.487,160.243 270.704,160.243 270.921,160.243 271.138,160.243 271.355,74.4644 271.572,74.4644 271.789,74.4644 272.006,74.4644 272.223,74.4644 272.44,74.4644 272.657,74.4644 272.874,74.4644 273.091,74.4644 273.308,74.4644 273.525,74.4644 273.742,74.4644 273.959,74.4644 274.176,74.4644 274.393,74.4644 274.61,74.4644 274.827,74.4644 275.044,74.4644 275.261,74.4644 275.478,74.4644 275.695,74.4644 275.912,74.4644 276.129,74.4644 276.346,74.4644 276.563,74.4644 276.78,74.4644 276.997,74.4644 277.214,74.4644 277.431,74.4644 277.648,74.4644 277.865,74.4644 278.082,74.4644 278.299,74.4644 278.516,74.4644 278.733,74.4644 278.95,74.4644 279.167,74.4644 279.384,74.4644 279.601,74.4644 279.818,74.4644 280.035,74.4644 280.252,74.4644 280.469,74.4644 280.686,74.4644 280.903,74.4644 281.12,74.4644 281.337,74.4644 281.554,74.4644 281.771,74.4644 281.988,74.4644 282.205,74.4644 282.422,74.4644 282.639,74.4644 282.856,74.4644 283.073,74.4644 283.29,74.4644 283.507,74.4644 283.724,74.4644 283.941,74.4644 284.158,74.4644 284.375,74.4644 284.592,74.4644 284.809,74.4644 285.026,74.4644 285.243,74.4644 285.46,74.4644 285.677,74.4644 285.894,74.4644 286.111,74.4644 286.328,74.4644 286.545,74.4644 286.762,74.4644 286.979,74.4644 287.196,74.4644 287.413,74.4644 287.63,74.4644 287.847,74.4644 288.064,74.4644 288.281,74.4644 288.498,74.4644 288.715,74.4644 288.932,74.4644 289.149,74.4644 289.366,74.4644 289.583,74.4644 289.8,74.4644 290.017,74.4644 290.234,74.4644 290.451,74.4644 290.668,74.4644 290.885,74.4644 291.102,74.4644 291.319,74.4644 291.536,74.4644 291.753,74.4644 291.97,74.4644 292.187,74.4644 292.404,74.4644 292.621,74.4644 292.838,74.4644 293.055,74.4644 293.272,74.4644 293.489,74.4644 293.706,74.4644 293.923,74.4644 294.14,74.4644 294.357,74.4644 294.574,74.4644 294.791,74.4644 295.008,74.4644 295.225,74.4644 295.442,74.4644 295.659,74.4644 295.876,74.4644 296.093,74.4644 296.31,74.4644 296.527,74.4644 296.744,74.4644 296.961,74.4644 297.178,74.4644 297.395,74.4644 297.612,74.4644 297.829,74.4644 298.046,74.4644 298.263,74.4644 298.48,74.4644 298.697,74.4644 298.914,74.4644 299.131,74.4644 299.348,74.4644 299.565,74.4644 299.782,74.4644 299.999,74.4644 300.216,74.4644 300.433,74.4644 300.65,74.4644 300.867,74.4644 301.084,74.4644 301.301,74.4644 301.518,74.4644 301.735,74.4644 301.952,74.4644 302.169,74.4644 302.386,74.4644 302.603,74.4644 302.82,74.4644 303.037,74.4644 303.254,74.4644 303.471,74.4644 303.688,74.4644 303.905,74.4644 304.122,74.4644 304.339,74.4644 304.556,74.4644 304.773,74.4644 304.99,74.4644 305.207,74.4644 305.424,74.4644 305.641,74.4644 305.858,74.4644 306.075,74.4644 306.292,74.4644 306.509,74.4644 306.726,74.4644 306.943,74.4644 307.16,74.4644 307.377,74.4644 307.594,74.4644 307.811,74.4644 308.028,74.4644 308.245,74.4644 308.462,74.4644 308.679,74.4644 308.896,74.4644 309.113,74.4644 309.33,74.4644 309.547,74.4644 309.764,74.4644 309.981,74.4644 310.198,74.4644 310.415,74.4644 310.632,74.4644 310.849,74.4644 311.066,74.4644 311.283,74.4644 311.5,74.4644 311.717,74.4644 311.934,74.4644 312.151,74.4644 312.368,74.4644 312.585,74.4644 312.802,74.4644 313.019,74.4644 313.236,74.4644 313.453,74.4644 313.67,74.4644 313.887,74.4644 314.104,74.4644 314.321,74.4644 314.538,74.4644 314.755,74.4644 314.972,74.4644 315.189,74.4644 315.406,74.4644 315.623,74.4644 315.84,74.4644 316.057,74.4644 316.274,74.4644 316.491,74.4644 316.708,74.4644 316.925,74.4644 317.142,74.4644 317.359,74.4644 317.576,74.4644 317.793,74.4644 318.01,74.4644 318.227,74.4644 318.444,74.4644 318.661,74.4644 318.878,74.4644 319.095,74.4644 319.312,74.4644 319.529,74.4644 319.746,74.4644 319.963,74.4644 320.18,74.4644 320.397,74.4644 320.614,74.4644 320.831,74.4644 321.048,74.4644 321.265,74.4644 321.482,74.4644 321.699,74.4644 321.916,74.4644 322.133,74.4644 322.35,74.4644 322.567,74.4644 322.784,74.4644 323.001,74.4644 323.218,74.4644 323.435,74.4644 323.652,74.4644 323.869,74.4644 324.086,74.4644 324.303,74.4644 324.52,74.4644 324.737,74.4644 324.954,74.4644 325.171,74.4644 325.388,74.4644 325.605,74.4644 325.822,74.4644 326.039,74.4644 326.256,74.4644 326.473,74.4644 326.69,74.4644 326.907,74.4644 327.124,74.4644 327.341,74.4644 327.558,74.4644 327.775,74.4644 327.992,74.4644 328.209,74.4644 328.426,74.4644 328.643,74.4644 328.86,74.4644 329.077,74.4644 329.294,74.4644 329.511,74.4644 329.728,74.4644 329.945,74.4644 330.162,74.4644 330.379,74.4644 330.596,74.4644 330.813,74.4644 331.03,74.4644 331.247,74.4644 331.464,74.4644 331.681,74.4644 331.898,74.4644 332.115,74.4644 332.332,74.4644 332.549,74.4644 332.766,74.4644 332.983,74.4644 333.2,74.4644 333.417,74.4644 333.634,74.4644 333.851,74.4644 334.068,74.4644 334.285,74.4644 334.502,74.4644 334.719,74.4644 334.936,74.4644 335.153,74.4644 335.37,74.4644 335.587,74.4644 335.804,74.4644 336.021,74.4644 336.238,74.4644 336.455,74.4644 336.672,74.4644 336.889,74.4644 337.106,74.4644 337.323,74.4644 337.54,74.4644 337.757,74.4644 337.974,74.4644 338.191,74.4644 338.408,74.4644 338.625,74.4644 338.842,74.4644 339.059,74.4644 339.276,74.4644 339.493,74.4644 339.71,74.4644 339.927,74.4644 340.144,74.4644 340.361,74.4644 340.578,74.4644 340.795,74.4644 341.012,74.4644 341.229,74.4644 341.446,74.4644 341.663,74.4644 341.88,74.4644 342.097,74.4644 342.314,74.4644 342.531,74.4644 342.748,74.4644 342.965,74.4644 343.182,74.4644 343.399,74.4644 343.616,74.4644 343.833,74.4644 344.05,74.4644 344.267,74.4644 344.484,74.4644 344.701,74.4644 344.918,74.4644 345.135,74.4644 345.352,74.4644 345.569,74.4644 345.786,74.4644 346.003,74.4644 346.22,74.4644 346.437,74.4644 346.654,74.4644 346.871,74.4644 347.088,74.4644 347.305,74.4644 347.522,74.4644 347.739,74.4644 347.956,74.4644 348.173,74.4644 348.39,74.4644 348.607,74.4644 348.824,74.4644 349.041,74.4644 349.258,74.4644 349.475,74.4644 349.692,74.4644 349.909,74.4644 350.126,74.4644 350.343,74.4644 350.56,74.4644 350.777,74.4644 350.994,74.4644 351.211,74.4644 351.428,74.4644 351.645,74.4644 351.862,74.4644 352.079,74.4644 352.296,74.4644 352.513,74.4644 352.73,74.4644 352.947,74.4644 353.164,74.4644 353.381,74.4644 353.598,74.4644 353.815,74.4644 354.032,74.4644 354.249,74.4644 354.466,74.4644 354.683,74.4644 354.9,74.4644 355.117,74.4644 355.334,74.4644 355.551,74.4644 355.768,74.4644 355.985,74.4644 356.202,74.4644 356.419,74.4644 356.636,74.4644 356.853,74.4644 357.07,74.4644 357.287,74.4644 357.504,74.4644 357.721,74.4644 357.938,74.4644 358.155,74.4644 358.372,74.4644 358.589,74.4644 358.806,74.4644 359.023,74.4644 359.24,74.4644 359.457,74.4644 359.674,74.4644 359.891,74.4644 360.108,74.4644 360.325,74.4644 360.542,74.4644 360.759,74.4644 360.976,74.4644 361.193,74.4644 361.41,74.4644 361.627,74.4644 361.844,74.4644 362.061,74.4644 362.278,74.4644 362.495,74.4644 362.712,74.4644 362.929,74.4644 363.146,74.4644 363.363,74.4644 363.58,74.4644 363.797,74.4644 364.014,74.4644 364.231,74.4644 364.448,74.4644 364.665,74.4644 364.882,74.4644 365.099,74.4644 365.316,74.4644 365.533,74.4644 365.75,74.4644 365.967,74.4644 366.184,74.4644 366.401,74.4644 366.618,74.4644 366.835,74.4644 367.052,74.4644 367.269,74.4644 367.486,74.4644 367.703,74.4644 367.92,74.4644 368.137,74.4644 368.354,74.4644 368.571,74.4644 368.788,74.4644 369.005,74.4644 369.222,74.4644 369.439,74.4644 369.656,74.4644 369.873,74.4644 370.09,74.4644 370.307,74.4644 370.524,74.4644 370.741,74.4644 370.958,74.4644 371.175,74.4644 371.392,74.4644 371.609,74.4644 371.826,74.4644 372.043,74.4644 372.26,74.4644 372.477,74.4644 372.694,74.4644 372.911,74.4644 373.128,74.4644 373.345,74.4644 373.562,74.4644 373.779,74.4644 373.996,74.4644 374.213,74.4644 374.43,74.4644 374.647,74.4644 374.864,74.4644 375.081,74.4644 375.298,74.4644 375.515,74.4644 375.732,74.4644 375.949,74.4644 376.166,74.4644 376.383,74.4644 376.6,74.4644 376.817,74.4644 377.034,74.4644 377.251,74.4644 377.468,74.4644 377.685,74.4644 377.902,74.4644 378.119,74.4644 378.336,74.4644 378.553,74.4644 378.77,74.4644 378.987,74.4644 379.204,74.4644 379.421,74.4644 379.638,74.4644 379.855,74.4644 380.072,74.4644 380.289,74.4644 380.506,74.4644 380.723,74.4644 380.94,74.4644 381.157,74.4644 381.374,74.4644 381.591,74.4644 381.808,74.4644 382.025,74.4644 382.242,74.4644 382.459,74.4644 382.676,74.4644 382.893,74.4644 383.11,74.4644 383.327,74.4644 383.544,74.4644 383.761,74.4644 383.978,74.4644 384.195,74.4644 384.412,74.4644 384.629,74.4644 384.846,74.4644 385.063,74.4644 385.28,74.4644 385.497,74.4644 385.714,74.4644 385.931,74.4644 386.148,74.4644 386.365,74.4644 386.582,74.4644 386.799,74.4644 387.016,74.4644 387.233,74.4644 387.45,74.4644 387.667,74.4644 387.884,74.4644 388.101,74.4644 388.318,74.4644 388.535,74.4644 388.752,74.4644 388.969,74.4644 389.186,74.4644 389.403,74.4644 389.62,74.4644 389.837,74.4644 390.054,74.4644 390.271,74.4644 390.488,74.4644 390.705,74.4644 390.922,74.4644 391.139,74.4644 391.356,74.4644 391.573,74.4644 391.79,74.4644 392.007,74.4644 392.224,74.4644 392.441,74.4644 392.658,74.4644 392.875,74.4644 393.092,74.4644 393.309,74.4644 393.526,74.4644 393.743,74.4644 393.96,74.4644 394.177,74.4644 394.394,74.4644 394.611,74.4644 394.828,74.4644 395.045,74.4644 395.262,74.4644 395.479,74.4644 395.696,74.4644 395.913,74.4644 396.13,74.4644 396.347,74.4644 396.564,74.4644 396.781,74.4644 396.998,74.4644 397.215,74.4644 397.432,74.4644 397.649,74.4644 397.866,74.4644 398.083,74.4644 398.3,74.4644 398.517,74.4644 398.734,74.4644 398.951,74.4644 399.168,74.4644 399.385,74.4644 399.602,74.4644 399.819,74.4644 400.036,74.4644 400.253,74.4644 400.47,74.4644 400.687,74.4644 400.904,74.4644 401.121,74.4644 401.338,74.4644 401.555,74.4644 401.772,74.4644 401.989,74.4644 402.206,74.4644 402.423,74.4644 402.64,74.4644 402.857,74.4644 403.074,74.4644 403.291,74.4644 403.508,74.4644 403.725,74.4644 403.942,74.4644 404.159,74.4644 404.376,74.4644 404.593,74.4644 404.81,74.4644 405.027,74.4644 405.244,74.4644 405.461,74.4644 405.678,74.4644 405.895,74.4644 406.112,74.4644 406.329,74.4644 406.546,74.4644 406.763,74.4644 406.98,74.4644 407.197,74.4644 407.414,74.4644 407.631,74.4644 407.848,74.4644 408.065,74.4644 408.282,74.4644 408.499,74.4644 408.716,74.4644 408.933,74.4644 409.15,74.4644 409.367,74.4644 409.584,74.4644 409.801,74.4644 410.018,74.4644 410.235,74.4644 410.452,74.4644 410.669,74.4644 410.886,74.4644 411.103,74.4644 411.32,74.4644 411.537,74.4644 411.754,74.4644 411.971,74.4644 412.188,74.4644 412.405,74.4644 412.622,74.4644 412.839,74.4644 413.056,74.4644 413.273,74.4644 413.49,74.4644 413.707,74.4644 413.924,74.4644 414.141,74.4644 414.358,74.4644 414.575,74.4644 414.792,74.4644 415.009,74.4644 415.226,74.4644 415.443,74.4644 415.66,74.4644 415.877,74.4644 416.094,74.4644 416.311,74.4644 416.528,74.4644 416.745,74.4644 416.962,74.4644 417.179,74.4644 417.396,74.4644 417.613,74.4644 417.83,74.4644 418.047,74.4644 418.264,74.4644 418.481,74.4644 418.698,74.4644 418.915,74.4644 419.132,74.4644 419.349,74.4644 419.566,74.4644 419.783,74.4644 420,74.4644 420.217,74.4644 420.434,74.4644 420.651,74.4644 420.868,74.4644 421.085,74.4644 421.302,74.4644 421.519,74.4644 421.736,74.4644 421.953,74.4644 422.17,74.4644 422.387,74.4644 422.604,74.4644 422.821,74.4644 423.038,74.4644 423.255,74.4644 423.472,74.4644 423.689,74.4644 423.906,74.4644 424.123,74.4644 424.34,74.4644 424.557,74.4644 424.774,74.4644 424.991,74.4644 425.208,74.4644 425.425,74.4644 425.642,74.4644 425.859,74.4644 426.076,74.4644 426.293,74.4644 426.51,74.4644 426.727,74.4644 426.944,74.4644 427.161,74.4644 427.378,74.4644 427.595,74.4644 427.812,74.4644 428.029,74.4644 428.246,74.4644 428.463,74.4644 428.68,74.4644 428.897,74.4644 429.114,74.4644 429.331,74.4644 429.548,74.4644 429.765,74.4644 429.982,74.4644 430.199,74.4644 430.416,74.4644 430.633,74.4644 430.85,74.4644 431.067,74.4644 431.284,74.4644 431.501,74.4644 431.718,74.4644 431.935,74.4644 432.152,74.4644 432.369,74.4644 432.586,74.4644 432.803,74.4644 433.02,74.4644 433.237,74.4644 433.454,74.4644 433.671,74.4644 433.888,74.4644 434.105,74.4644 434.322,74.4644 434.539,74.4644 434.756,74.4644 434.973,74.4644 435.19,74.4644 435.407,74.4644 435.624,74.4644 435.841,74.4644 436.058,74.4644 436.275,74.4644 436.492,74.4644 436.709,74.4644 436.926,74.4644 437.143,74.4644 437.36,74.4644 437.577,74.4644 437.794,74.4644 438.011,74.4644 438.228,74.4644 438.445,74.4644 438.662,74.4644 438.879,74.4644 439.096,74.4644 439.313,74.4644 439.53,74.4644 439.747,74.4644 439.964,74.4644 440.181,74.4644 440.398,74.4644 440.615,74.4644 440.832,74.4644 441.049,74.4644 441.266,74.4644 441.483,74.4644 441.7,74.4644 441.917,74.4644 442.134,74.4644 442.351,74.4644 442.568,74.4644 442.785,74.4644 443.002,74.4644 443.219,74.4644 443.436,74.4644 443.653,74.4644 443.87,74.4644 444.087,74.4644 444.304,74.4644 444.521,74.4644 444.738,74.4644 444.955,74.4644 445.172,74.4644 445.389,74.4644 445.606,74.4644 445.823,74.4644 446.04,74.4644 446.257,74.4644 446.474,74.4644 446.691,74.4644 446.908,74.4644 447.125,74.4644 447.342,74.4644 447.559,74.4644 447.776,74.4644 447.993,74.4644 448.21,74.4644 448.427,74.4644 448.644,74.4644 448.861,74.4644 449.078,74.4644 449.295,74.4644 449.512,74.4644 449.729,74.4644 449.946,74.4644 450.163,74.4644 450.38,74.4644 450.597,74.4644 450.814,74.4644 451.031,74.4644 451.248,74.4644 451.465,74.4644 451.682,74.4644 451.899,74.4644 452.116,74.4644 452.333,74.4644 452.55,74.4644 452.767,74.4644 452.984,74.4644 453.201,74.4644 453.418,74.4644 453.635,74.4644 453.852,74.4644 454.069,74.4644 454.286,74.4644 454.503,74.4644 454.72,74.4644 454.937,74.4644 455.154,74.4644 455.371,74.4644 455.588,74.4644 455.805,74.4644 456.022,74.4644 456.239,74.4644 456.456,74.4644 456.673,74.4644 456.89,74.4644 457.107,74.4644 457.324,74.4644 457.541,74.4644 457.758,74.4644 457.975,74.4644 458.192,74.4644 458.409,74.4644 458.626,74.4644 458.843,74.4644 459.06,74.4644 459.277,74.4644 459.494,74.4644 459.711,74.4644 459.928,74.4644 460.145,74.4644 460.362,74.4644 460.579,74.4644 460.796,74.4644 461.013,74.4644 461.23,74.4644 461.447,74.4644 461.664,74.4644 461.881,74.4644 462.098,74.4644 462.315,74.4644 462.532,74.4644 462.749,74.4644 462.966,74.4644 463.183,74.4644 463.4,74.4644 463.617,74.4644 463.834,74.4644 464.051,74.4644 464.268,74.4644 464.485,74.4644 464.702,74.4644 464.919,74.4644 465.136,74.4644 465.353,74.4644 465.57,74.4644 465.787,74.4644 466.004,74.4644 466.221,74.4644 466.438,74.4644 466.655,74.4644 466.872,74.4644 467.089,74.4644 467.306,74.4644 467.523,74.4644 467.74,74.4644 467.957,74.4644 468.174,74.4644 468.391,74.4644 468.608,74.4644 468.825,74.4644 469.042,74.4644 469.259,74.4644 469.476,74.4644 469.693,74.4644 469.91,74.4644 470.127,74.4644 470.344,74.4644 470.561,74.4644 470.778,74.4644 470.995,74.4644 471.212,74.4644 471.429,74.4644 471.646,74.4644 471.863,74.4644 472.08,74.4644 472.297,74.4644 472.514,74.4644 472.731,74.4644 472.948,74.4644 473.165,74.4644 473.382,74.4644 473.599,74.4644 473.816,74.4644 474.033,74.4644 474.25,74.4644 474.467,74.4644 474.684,74.4644 474.901,74.4644 475.118,74.4644 475.335,74.4644 475.552,74.4644 475.769,74.4644 475.986,74.4644 476.203,74.4644 476.42,74.4644 476.637,74.4644 476.854,74.4644 477.071,74.4644 477.288,74.4644 477.505,74.4644 477.722,74.4644 477.939,74.4644 478.156,74.4644 478.373,74.4644 478.59,74.4644 478.807,74.4644 479.024,74.4644 479.241,74.4644 479.458,74.4644 479.675,74.4644 479.892,74.4644 480.109,74.4644 480.326,74.4644 480.543,74.4644 480.76,74.4644 480.977,74.4644 481.194,74.4644 481.411,74.4644 481.628,74.4644 481.845,74.4644 482.062,74.4644 482.279,74.4644 482.496,74.4644 482.713,74.4644 482.93,74.4644 483.147,74.4644 483.364,74.4644 483.581,74.4644 483.798,74.4644 484.015,74.4644 484.232,74.4644 484.449,74.4644 484.666,74.4644 484.883,74.4644 485.1,74.4644 485.317,74.4644 485.534,74.4644 485.751,74.4644 485.968,74.4644 486.185,74.4644 486.402,74.4644 486.619,74.4644 486.836,74.4644 487.053,74.4644 487.27,74.4644 487.487,74.4644 487.704,74.4644 487.921,74.4644 488.138,74.4644 488.355,74.4644 488.572,74.4644 488.789,74.4644 489.006,74.4644 489.223,74.4644 489.44,74.4644 489.657,74.4644 489.874,74.4644 490.091,74.4644 490.308,74.4644 490.525,74.4644 490.742,74.4644 490.959,74.4644 491.176,74.4644 491.393,74.4644 491.61,74.4644 491.827,74.4644 492.044,74.4644 492.261,74.4644 492.478,74.4644 492.695,74.4644 492.912,74.4644 493.129,74.4644 493.346,74.4644 493.563,74.4644 493.78,74.4644 493.997,74.4644 494.214,74.4644 494.431,74.4644 494.648,74.4644 494.865,74.4644 495.082,74.4644 495.299,74.4644 495.516,74.4644 495.733,74.4644 495.95,74.4644 496.167,74.4644 496.384,74.4644 496.601,74.4644 496.818,74.4644 497.035,74.4644 497.252,74.4644 497.469,74.4644 497.686,74.4644 497.903,74.4644 498.12,74.4644 498.337,74.4644 498.554,74.4644 498.771,74.4644 498.988,74.4644 499.205,74.4644 499.422,74.4644 499.639,74.4644 499.856,74.4644 500.073,74.4644 500.29,74.4644 500.507,74.4644 500.724,74.4644 500.941,74.4644 501.158,74.4644 501.375,74.4644 501.592,74.4644 501.809,74.4644 502.026,74.4644 502.243,74.4644 502.46,74.4644 502.677,74.4644 502.894,74.4644 503.111,74.4644 503.328,74.4644 503.545,74.4644 503.762,74.4644 503.979,74.4644 504.196,74.4644 504.413,74.4644 504.63,74.4644 504.847,74.4644 505.064,74.4644 505.281,74.4644 505.498,74.4644 505.715,74.4644 505.932,74.4644 506.149,74.4644 506.366,74.4644 506.583,74.4644 506.8,74.4644 507.017,74.4644 507.234,74.4644 507.234,74.4644"/>
<polyline fill="none" stroke="#000000" stroke-width="1" stroke-dasharray="0,4,4,4,4,0" points="72.7998,331.801 94.5,331.801 116.2,331.801 137.9,331.801 139.636,246.022 159.6,246.022 181.3,246.022 183.036,160.243 203,160.243 224.7,160.243 246.4,160.243 248.136,74.4644 268.1,74.4644 289.8,74.4644 311.5,74.4644 333.2,74.4644 354.9,74.4644 376.6,74.4644 398.3,74.4644 420,74.4644 441.7,74.4644 463.4,74.4644 485.1,74.4644 506.8,74.4644 507.234,74.4644"/>
<polyline fill="none" stroke="#00ff00" stroke-width="1" stroke-dasharray="0,4,4,4,4,0" points="72.7998,331.801 73.0171,331.801 73.2339,331.801 73.4512,331.801 73.668,331.801 73.8848,331.801 74.1021,331.801 74.3188,331.801 74.5361,331.801 74.7529,331.801 74.9702,331.801 75.187,331.801 75.4038,331.801 75.6211,331.801 75.8379,331.801 76.0552,331.801 76.272,331.801 76.4893,331.801 76.7061,331.801 76.9229,331.801 77.1401,331.801 77.3569,331.801 77.5742,331.801 77.791,331.801 78.0078,331.801 78.2251,331.801 78.4419,331.801 78.6592,331.801 78.876,331.801 79.0928,331.801 79.3101,331.801 79.5269,331.801 79.7441,331.801 79.9609,331.801 80.1782,331.801 80.395,331.801 80.6118,331.801 80.8291,331.801 81.0459,331.801 81.2632,331.801 81.48,331.801 81.6973,331.801 81.9141,331.801 82.1309,331.801 82.3481,331.801 82.5649,331.801 82.7822,331.801 82.999,331.801 83.2158,331.801 83.4331,331.801 83.6499,331.801 83.8672,331.801 84.084,331.801 84.3008,331.801 84.5181,331.801 84.7349,331.801 84.9521,331.801 85.1689,331.801 85.3862,331.801 85.603,331.801 85.8198,331.801 86.0371,331.801 86.2539,331.801 86.4712,331.801 86.688,331.801 86.9048,331.801 87.1221,331.801 87.3389,331.801 87.5562,331.801 87.7729,331.801 87.9902,331.801 88.207,331.801 88.4238,331.801 88.6411,331.801 88.8579,331.801 89.0752,331.801 89.292,331.801 89.5088,331.801 89.7261,331.801 89.9429,331.801 90.1602,331.801 90.377,331.801 90.5942,331.801 90.811,331.801 91.0278,331.801 91.2451,331.801 91.4619,331.801 91.6792,331.801 91.896,331.801 92.1128,331.801 92.3301,331.801 92.5469,331.801 92.7642,331.801 92.981,331.801 93.1982,331.801 93.415,331.801 93.6318,331.801 93.8491,331.801 94.0659,331.801 94.2832,331.801 94.5,331.801 94.7168,331.801 94.9341,331.801 95.1509,331.801 95.3682,331.801 95.585,331.801 95.8022,331.801 96.019,331.801 96.2358,331.801 96.4531,331.801 96.6699,331.801 96.8872,331.801 97.104,331.801 97.3208,331.801 97.5381,331.801 97.7549,331.801 97.9722,331.801 98.189,331.801 98.4062,331.801 98.623,331.801 98.8398,331.801 99.0571,331.801 99.2739,331.801 99.4912,331.801 99.708,331.801 99.9248,331.801 100.142,331.801 100.359,331.801 100.576,331.801 100.793,331.801 101.01,331.801 101.227,331.801 101.444,331.801 101.661,331.801 101.878,331.801 102.095,331.801 102.312,331.801 102.529,331.801 102.746,331.801 102.963,331.801 103.18,331.801 103.397,331.801 103.614,331.801 103.831,331.801 104.048,331.801 104.265,331.801 104.482,331.801 104.699,331.801 104.916,331.801 105.133,331.801 105.35,331.801 105.567,331.801 105.784,331.801 106.001,331.801 106.218,331.801 106.435,331.801 106.652,331.801 106.869,331.801 107.086,331.801 107.303,331.801 107.52,331.801 107.737,331.801 107.954,331.801 108.171,331.801 108.388,331.801 108.605,331.801 108.822,331.801 109.039,331.801 109.256,331.801 109.473,331.801 109.69,331.801 109.907,331.801 110.124,331.801 110.341,331.801 110.558,331.801 110.775,331.801 110.992,331.801 111.209,331.801 111.426,331.801 111.643,331.801 111.86,331.801 112.077,331.801 112.294,331.801 112.511,331.801 112.728,331.801 112.945,331.801 113.162,331.801 113.379,331.801 113.596,331.801 113.813,331.801 114.03,331.801 114.247,331.801 114.464,331.801 114.681,331.801 114.898,331.801 115.115,331.801 115.332,331.801 115.549,331.801 115.766,331.801 115.983,331.801 116.2,331.801 116.417,331.801 116.634,331.801 116.851,331.801 117.068,331.801 117.285,331.801 117.502,331.801 117.719,331.801 117.936,331.801 118.153,331.801 118.37,331.801 118.587,331.801 118.804,331.801 119.021,331.801 119.238,331.801 119.455,331.801 119.672,331.801 119.889,331.801 120.106,331.801 120.323,331.801 120.54,331.801 120.757,331.801 120.974,331.801 121.191,331.801 121.408,331.801 121.625,331.801 121.842,331.801 122.059,331.801 122.276,331.801 122.493,331.801 122.71,331.801 122.927,331.801 123.144,331.801 123.361,331.801 123.578,331.801 123.795,331.801 124.012,331.801 124.229,331.801 124.446,331.801 124.663,331.801 124.88,331.801 125.097,331.801 125.314,331.801 125.531,331.801 125.748,331.801 125.965,331.801 126.182,331.801 126.399,331.801 126.616,331.801 126.833,331.801 127.05,331.801 127.267,331.801 127.484,331.801 127.701,331.801 127.918,331.801 128.135,331.801 128.352,331.801 128.569,331.801 128.786,331.801 129.003,331.801 129.22,331.801 129.437,331.801 129.654,331.801 129.871,331.801 130.088,331.801 130.305,331.801 130.522,331.801 130.739,331.801 130.956,331.801 131.173,246.022 131.39,246.022 131.607,246.022 131.824,246.022 132.041,246.022 132.258,246.022 132.475,246.022 132.692,246.022 132.909,246.022 133.126,246.022 133.343,246.022 133.56,246.022 133.777,246.022 133.994,246.022 134.211,246.022 134.428,246.022 134.645,246.022 134.862,246.022 135.079,246.022 135.296,246.022 135.513,246.022 135.73,246.022 135.947,246.022 136.164,246.022 136.381,246.022 136.598,246.022 136.815,246.022 137.032,246.022 137.249,246.022 137.466,246.022 137.683,246.022 137.9,246.022 138.117,246.022 138.334,246.022 138.551,246.022 138.768,246.022 138.985,246.022 139.202,246.022 139.419,246.022 139.636,246.022 139.853,246.022 140.07,246.022 140.287,246.022 140.504,246.022 140.721,246.022 140.938,246.022 141.155,246.022 141.372,246.022 141.589,246.022 141.806,246.022 142.023,246.022 142.24,246.022 142.457,246.022 142.674,246.022 142.891,246.022 143.108,246.022 143.325,246.022 143.542,246.022 143.759,246.022 143.976,246.022 144.193,246.022 144.41,246.022 144.627,246.022 144.844,246.022 145.061,246.022 145.278,246.022 145.495,246.022 145.712,246.022 145.929,246.022 146.146,246.022 146.363,246.022 146.58,246.022 146.797,246.022 147.014,246.022 147.231,246.022 147.448,246.022 147.665,246.022 147.882,246.022 148.099,246.022 148.316,246.022 148.533,246.022 148.75,246.022 148.967,246.022 149.184,246.022 149.401,246.022 149.618,246.022 149.835,246.022 150.052,246.022 150.269,246.022 150.486,246.022 150.703,246.022 150.92,246.022 151.137,246.022 151.354,246.022 151.571,246.022 151.788,246.022 152.005,246.022 152.222,246.022 152.439,246.022 152.656,246.022 152.873,246.022 153.09,246.022 153.307,246.022 153.524,246.022 153.741,246.022 153.958,246.022 154.175,246.022 154.392,246.022 154.609,246.022 154.826,246.022 155.043,246.022 155.26,246.022 155.477,246.022 155.694,246.022 155.911,246.022 156.128,246.022 156.345,246.022 156.562,246.022 156.779,246.022 156.996,246.022 157.213,246.022 157.43,246.022 157.647,246.022 157.864,246.022 158.081,246.022 158.298,246.022 158.515,246.022 158.732,246.022 158.949,246.022 159.166,246.022 159.383,246.022 159.6,246.022 159.817,246.022 160.034,246.022 160.251,246.022 160.468,246.022 160.685,246.022 160.902,246.022 161.119,246.022 161.336,246.022 161.553,246.022 161.77,246.022 161.987,246.022 162.204,246.022 162.421,246.022 162.638,246.022 162.855,246.022 163.072,246.022 163.289,246.022 163.506,246.022 163.723,246.022 163.94,246.022 164.157,246.022 164.374,246.022 164.591,246.022 164.808,246.022 165.025,246.022 165.242,246.022 165.459,246.022 165.676,246.022 165.893,246.022 166.11,246.022 166.327,246.022 166.544,246.022 166.761,246.022 166.978,246.022 167.195,246.022 167.412,246.022 167.629,246.022 167.846,246.022 168.063,246.022 168.28,246.022 168.497,246.022 168.714,246.022 168.931,246.022 169.148,246.022 169.365,246.022 169.582,246.022 169.799,246.022 170.016,246.022 170.233,246.022 170.45,246.022 170.667,246.022 170.884,246.022 171.101,246.022 171.318,246.022 171.535,246.022 171.752,246.022 171.969,246.022 172.186,246.022 172.403,246.022 172.62,246.022 172.837,246.022 173.054,246.022 173.271,246.022 173.488,246.022 173.705,246.022 173.922,246.022 174.139,246.022 174.356,246.022 174.573,246.022 174.79,246.022 175.007,246.022 175.224,246.022 175.441,246.022 175.658,246.022 175.875,246.022 176.092,246.022 176.309,246.022 176.526,246.022 176.743,246.022 176.96,246.022 177.177,246.022 177.394,246.022 177.611,246.022 177.828,246.022 178.045,246.022 178.262,246.022 178.479,246.022 178.696,246.022 178.913,246.022 179.13,246.022 179.347,246.022 179.564,246.022 179.781,246.022 179.998,246.022 180.215,246.022 180.432,246.022 180.649,246.022 180.866,246.022 181.083,246.022 181.3,246.022 181.517,246.022 181.734,246.022 181.951,246.022 182.168,246.022 182.385,246.022 182.602,246.022 182.819,246.022 183.036,246.022 183.253,246.022 183.47,246.022 183.687,246.022 183.904,246.022 184.121,246.022 184.338,160.243 184.555,160.243 184.772,160.243 184.989,160.243 185.206,160.243 185.423,160.243 185.64,160.243 185.857,160.243 186.074,160.243 186.291,160.243 186.508,160.243 186.725,160.243 186.942,160.243 187.159,160.243 187.376,160.243 187.593,160.243 187.81,160.243 188.027,160.243 188.244,160.243 188.461,160.243 188.678,160.243 188.895,160.243 189.112,160.243 189.329,160.243 189.546,160.243 189.763,160.243 189.98,160.243 190.197,160.243 190.414,160.243 190.631,160.243 190.848,160.243 191.065,160.243 191.282,160.243 191.499,160.243 191.716,160.243 191.933,160.243 192.15,160.243 192.367,160.243 192.584,160.243 192.801,160.243 193.018,160.243 193.235,160.243 193.452,160.243 193.669,160.243 193.886,160.243 194.103,160.243 194.32,160.243 194.537,160.243 194.754,160.243 194.971,160.243 195.188,160.243 195.405,160.243 195.622,160.243 195.839,160.243 196.056,160.243 196.273,160.243 196.49,160.243 196.707,160.243 196.924,160.243 197.141,160.243 197.358,160.243 197.575,160.243 197.792,160.243 198.009,160.243 198.226,160.243 198.443,160.243 198.66,160.243 198.877,160.243 199.094,160.243 199.311,160.243 199.528,160.243 199.745,160.243 199.962,160.243 200.179,160.243 200.396,160.243 200.613,160.243 200.83,160.243 201.047,160.243 201.264,160.243 201.481,160.243 201.698,160.243 201.915,160.243 202.132,160.243 202.349,160.243 202.566,160.243 202.783,160.243 203,160.243 203.217,160.243 203.434,160.243 203.651,160.243 203.868,160.243 204.085,160.243 204.302,160.243 204.519,160.243 204.736,160.243 204.953,160.243 205.17,160.243 205.387,160.243 205.604,160.243 205.821,160.243 206.038,160.243 206.255,160.243 206.472,160.243 206.689,160.243 206.906,160.243 207.123,160.243 207.34,160.243 207.557,160.243 207.774,160.243 207.991,160.243 208.208,160.243 208.425,160.243 208.642,160.243 208.859,160.243 209.076,160.243 209.293,160.243 209.51,160.243 209.727,160.243 209.944,160.243 210.161,160.243 210.378,160.243 210.595,160.243 210.812,160.243 211.029,160.243 211.246,160.243 211.463,160.243 211.68,160.243 211.897,160.243 212.114,160.243 212.331,160.243 212.548,160.243 212.765,160.243 212.982,160.243 213.199,160.243 213.416,160.243 213.633,160.243 213.85,160.243 214.067,160.243 214.284,160.243 214.501,160.243 214.718,160.243 214.935,160.243 215.152,160.243 215.369,160.243 215.586,160.243 215.803,160.243 216.02,160.243 216.237,160.243 216.454,160.243 216.671,160.243 216.888,160.243 217.105,160.243 217.322,160.243 217.539,160.243 217.756,160.243 217.973,160.243 218.19,160.243 218.407,160.243 218.624,160.243 218.841,160.243 219.058,160.243 219.275,160.243 219.492,160.243 219.709,160.243 219.926,160.243 220.143,160.243 220.36,160.243 220.577,160.243 220.794,160.243 221.011,160.243 221.228,160.243 221.445,160.243 221.662,160.243 221.879,160.243 222.096,160.243 222.313,160.243 222.53,160.243 222.747,160.243 222.964,160.243 223.181,160.243 223.398,160.243 223.615,160.243 223.832,160.243 224.049,160.243 224.266,160.243 224.483,160.243 224.7,160.243 224.917,160.243 225.134,160.243 225.351,160.243 225.568,160.243 225.785,160.243 226.002,160.243 226.219,160.243 226.436,160.243 226.653,160.243 226.87,160.243 227.087,160.243 227.304,160.243 227.521,160.243 227.738,160.243 227.955,160.243 228.172,160.243 228.389,160.243 228.606,160.243 228.823,160.243 229.04,160.243 229.257,160.243 229.474,160.243 229.691,160.243 229.908,160.243 230.125,160.243 230.342,160.243 230.559,160.243 230.776,160.243 230.993,160.243 231.21,160.243 231.427,160.243 231.644,160.243 231.861,160.243 232.078,160.243 232.295,160.243 232.512,160.243 232.729,160.243 232.946,160.243 233.163,160.243 233.38,160.243 233.597,160.243 233.814,160.243 234.031,160.243 234.248,160.243 234.465,160.243 234.682,160.243 234.899,160.243 235.116,160.243 235.333,160.243 235.55,160.243 235.767,160.243 235.984,160.243 236.201,160.243 236.418,160.243 236.635,160.243 236.852,160.243 237.069,160.243 237.286,160.243 237.503,160.243 237.72,160.243 237.937,160.243 238.154,160.243 238.371,160.243 238.588,160.243 238.805,160.243 239.022,160.243 239.239,160.243 239.456,160.243 239.673,160.243 239.89,160.243 240.107,160.243 240.324,160.243 240.541,160.243 240.758,160.243 240.975,160.243 241.192,160.243 241.409,160.243 241.626,160.243 241.843,160.243 242.06,160.243 242.277,160.243 242.494,160.243 242.711,160.243 242.928,160.243 243.145,160.243 243.362,160.243 243.579,160.243 243.796,160.243 244.013,160.243 244.23,160.243 244.447,160.243 244.664,160.243 244.881,160.243 245.098,160.243 245.315,160.243 245.532,160.243 245.749,160.243 245.966,160.243 246.183,160.243 246.4,160.243 246.617,160.243 246.834,160.243 247.051,160.243 247.268,160.243 247.485,160.243 247.702,160.243 247.919,160.243 248.136,160.243 248.353,160.243 248.57,160.243 248.787,160.243 249.004,160.243 249.221,160.243 249.438,160.243 249.655,160.243 249.872,160.243 250.089,160.243 250.306,160.243 250.523,160.243 250.74,160.243 250.957,160.243 251.174,160.243 251.391,160.243 251.608,160.243 251.825,160.243 252.042,160.243 252.259,160.243 252.476,160.243 252.693,160.243 252.91,160.243 253.127,160.243 253.344,160.243 253.561,160.243 253.778,160.243 253.995,160.243 254.212,160.243 254.429,160.243 254.646,160.243 254.863,160.243 255.08,160.243 255.297,160.243 255.514,160.243 255.731,160.243 255.948,160.243 256.165,160.243 256.382,160.243 256.599,160.243 256.816,160.243 257.033,160.243 257.25,160.243 257.467,160.243 257.684,160.243 257.901,160.243 258.118,160.243 258.335,160.243 258.552,160.243 258.769,160.243 258.986,160.243 259.203,160.243 259.42,160.243 259.637,160.243 259.854,160.243 260.071,160.243 260.288,160.243 260.505,160.243 260.722,160.243 260.939,160.243 261.156,160.243 261.373,160.243 261.59,160.243 261.807,160.243 262.024,160.243 262.241,160.243 262.458,160.243 262.675,160.243 262.892,160.243 263.109,160.243 263.326,160.243 263.543,160.243 263.76,160.243 263.977,160.243 264.194,160.243 264.411,160.243 264.628,160.243 264.845,160.243 265.062,160.243 265.279,160.243 265.496,160.243 265.713,160.243 265.93,160.243 266.147,160.243 266.364,160.243 266.581,160.243 266.798,160.243 267.015,160.243 267.232,160.243 267.449,160.243 267.666,160.243 267.883,160.243 268.1,160.243 268.317,160.243 268.534,160.243 268.751,160.243 268.968,160.243 269.185,160.243 269.402,160.243 269.619,160.243 269.836,160.243 270.053,160.243 270.27,160.243 270.487,160.243 270.704,160.243 270.921,160.243 271.138,74.4644 271.355,74.4644 271.572,74.4644 271.789,74.4644 272.006,74.4644 272.223,74.4644 272.44,74.4644 272.657,74.4644 272.874,74.4644 273.091,74.4644 273.308,74.4644 273.525,74.4644 273.742,74.4644 273.959,74.4644 274.176,74.4644 274.393,74.4644 274.61,74.4644 274.827,74.4644 275.044,74.4644 275.261,74.4644 275.478,74.4644 275.695,74.4644 275.912,74.4644 276.129,74.4644 276.346,74.4644 276.563,74.4644 276.78,74.4644 276.997,74.4644 277.214,74.4644 277.431,74.4644 277.648,74.4644 277.865,74.4644 278.082,74.4644 278.299,74.4644 278.516,74.4644 278.733,74.4644 278.95,74.4644 279.167,74.4644 279.384,74.4644 279.601,74.4644 279.818,74.4644 280.035,74.4644 280.252,74.4644 280.469,74.4644 280.686,74.4644 280.903,74.4644 281.12,74.4644 281.337,74.4644 281.554,74.4644 281.771,74.4644 281.988,74.4644 282.205,74.4644 282.422,74.4644 282.639,74.4644 282.856,74.4644 283.073,74.4644 283.29,74.4644 283.507,74.4644 283.724,74.4644 283.941,74.4644 284.158,74.4644 284.375,74.4644 284.592,74.4644 284.809,74.4644 285.026,74.4644 285.243,74.4644 285.46,74.4644 285.677,74.4644 285.894,74.4644 286.111,74.4644 286.328,74.4644 286.545,74.4644 286.762,74.4644 286.979,74.4644 287.196,74.4644 287.413,74.4644 287.63,74.4644 287.847,74.4644 288.064,74.4644 288.281,74.4644 288.498,74.4644 288.715,74.4644 288.932,74.4644 289.149,74.4644 289.366,74.4644 289.583,74.4644 289.8,74.4644 290.017,74.4644 290.234,74.4644 290.451,74.4644 290.668,74.4644 290.885,74.4644 291.102,74.4644 291.319,74.4644 291.536,74.4644 291.753,74.4644 291.97,74.4644 292.187,74.4644 292.404,74.4644 292.621,74.4644 292.838,74.4644 293.055,74.4644 293.272,74.4644 293.489,74.4644 293.706,74.4644 293.923,74.4644 294.14,74.4644 294.357,74.4644 294.574,74.4644 294.791,74.4644 295.008,74.4644 295.225,74.4644 295.442,74.4644 295.659,74.4644 295.876,74.4644 296.093,74.4644 296.31,74.4644 296.527,74.4644 296.744,74.4644 296.961,74.4644 297.178,74.4644 297.395,74.4644 297.612,74.4644 297.829,74.4644 298.046,74.4644 298.263,74.4644 298.48,74.4644 298.697,74.4644 298.914,74.4644 299.131,74.4644 299.348,74.4644 299.565,74.4644 299.782,74.4644 299.999,74.4644 300.216,74.4644 300.433,74.4644 300.65,74.4644 300.867,74.4644 301.084,74.4644 301.301,74.4644 301.518,74.4644 301.735,74.4644 301.952,74.4644 302.169,74.4644 302.386,74.4644 302.603,74.4644 302.82,74.4644 303.037,74.4644 303.254,74.4644 303.471,74.4644 303.688,74.4644 303.905,74.4644 304.122,74.4644 304.339,74.4644 304.556,74.4644 304.773,74.4644 304.99,74.4644 305.207,74.4644 305.424,74.4644 305.641,74.4644 305.858,74.4644 306.075,74.4644 306.292,74.4644 306.509,74.4644 306.726,74.4644 306.943,74.4644 307.16,74.4644 307.377,74.4644 307.594,74.4644 307.811,74.4644 308.028,74.4644 308.245,74.4644 308.462,74.4644 308.679,74.4644 308.896,74.4644 309.113,74.4644 309.33,74.4644 309.547,74.4644 309.764,74.4644 309.981,74.4644 310.198,74.4644 310.415,74.4644 310.632,74.4644 310.849,74.4644 311.066,74.4644 311.283,74.4644 311.5,74.4644 311.717,74.4644 311.934,74.4644 312.151,74.4644 312.368,74.4644 312.585,74.4644 312.802,74.4644 313.019,74.4644 313.236,74.4644 313.453,74.4644 313.67,74.4644 313.887,74.4644 314.104,74.4644 314.321,74.4644 314.538,74.4644 314.755,74.4644 314.972,74.4644 315.189,74.4644 315.406,74.4644 315.623,74.4644 315.84,74.4644 316.057,74.4644 316.274,74.4644 316.491,74.4644 316.708,74.4644 316.925,74.4644 317.142,74.4644 317.359,74.4644 317.576,74.4644 317.793,74.4644 318.01,74.4644 318.227,74.4644 318.444,74.4644 318.661,74.4644 318.878,74.4644 319.095,74.4644 319.312,74.4644 319.529,74.4644 319.746,74.4644 319.963,74.4644 320.18,74.4644 320.397,74.4644 320.614,74.4644 320.831,74.4644 321.048,74.4644 321.265,74.4644 321.482,74.4644 321.699,74.4644 321.916,74.4644 322.133,74.4644 322.35,74.4644 322.567,74.4644 322.784,74.4644 323.001,74.4644 323.218,74.4644 323.435,74.4644 323.652,74.4644 323.869,74.4644 324.086,74.4644 324.303,74.4644 324.52,74.4644 324.737,74.4644 324.954,74.4644 325.171,74.4644 325.388,74.4644 325.605,74.4644 325.822,74.4644 326.039,74.4644 326.256,74.4644 326.473,74.4644 326.69,74.4644 326.907,74.4644 327.124,74.4644 327.341,74.4644 327.558,74.4644 327.775,74.4644 327.992,74.4644 328.209,74.4644 328.426,74.4644 328.643,74.4644 328.86,74.4644 329.077,74.4644 329.294,74.4644 329.511,74.4644 329.728,74.4644 329.945,74.4644 330.162,74.4644 330.379,74.4644 330.596,74.4644 330.813,74.4644 331.03,74.4644 331.247,74.4644 331.464,74.4644 331.681,74.4644 331.898,74.4644 332.115,74.4644 332.332,74.4644 332.549,74.4644 332.766,74.4644 332.983,74.4644 333.2,74.4644 333.417,74.4644 333.634,74.4644 333.851,74.4644 334.068,74.4644 334.285,74.4644 334.502,74.4644 334.719,74.4644 334.936,74.4644 335.153,74.4644 335.37,74.4644 335.587,74.4644 335.804,74.4644 336.021,74.4644 336.238,74.4644 336.455,74.4644 336.672,74.4644 336.889,74.4644 337.106,74.4644 337.323,74.4644 337.54,74.4644 337.757,74.4644 337.974,74.4644 338.191,74.4644 338.408,74.4644 338.625,74.4644 338.842,74.4644 339.059,74.4644 339.276,74.4644 339.493,74.4644 339.71,74.4644 339.927,74.4644 340.144,74.4644 340.361,74.4644 340.578,74.4644 340.795,74.4644 341.012,74.4644 341.229,74.4644 341.446,74.4644 341.663,74.4644 341.88,74.4644 342.097,74.4644 342.314,74.4644 342.531,74.4644 342.748,74.4644 342.965,74.4644 343.182,74.4644 343.399,74.4644 343.616,74.4644 343.833,74.4644 344.05,74.4644 344.267,74.4644 344.484,74.4644 344.701,74.4644 344.918,74.4644 345.135,74.4644 345.352,74.4644 345.569,74.4644 345.786,74.4644 346.003,74.4644 346.22,74.4644 346.437,74.4644 346.654,74.4644 346.871,74.4644 347.088,74.4644 347.305,74.4644 347.522,74.4644 347.739,74.4644 347.956,74.4644 348.173,74.4644 348.39,74.4644 348.607,74.4644 348.824,74.4644 349.041,74.4644 349.258,74.4644 349.475,74.4644 349.692,74.4644 349.909,74.4644 350.126,74.4644 350.343,74.4644 350.56,74.4644 350.777,74.4644 350.994,74.4644 351.211,74.4644 351.428,74.4644 351.645,74.4644 351.862,74.4644 352.079,74.4644 352.296,74.4644 352.513,74.4644 352.73,74.4644 352.947,74.4644 353.164,74.4644 353.381,74.4644 353.598,74.4644 353.815,74.4644 354.032,74.4644 354.249,74.4644 354.466,74.4644 354.683,74.4644 354.9,74.4644 355.117,74.4644 355.334,74.4644 355.551,74.4644 355.768,74.4644 355.985,74.4644 356.202,74.4644 356.419,74.4644 356.636,74.4644 356.853,74.4644 357.07,74.4644 357.287,74.4644 357.504,74.4644 357.721,74.4644 357.938,74.4644 358.155,74.4644 358.372,74.4644 358.589,74.4644 358.806,74.4644 359.023,74.4644 359.24,74.4644 359.457,74.4644 359.674,74.4644 359.891,74.4644 360.108,74.4644 360.325,74.4644 360.542,74.4644 360.759,74.4644 360.976,74.4644 361.193,74.4644 361.41,74.4644 361.627,74.4644 361.844,74.4644 362.061,74.4644 362.278,74.4644 362.495,74.4644 362.712,74.4644 362.929,74.4644 363.146,74.4644 363.363,74.4644 363.58,74.4644 363.797,74.4644 364.014,74.4644 364.231,74.4644 364.448,74.4644 364.665,74.4644 364.882,74.4644 365.099,74.4644 365.316,74.4644 365.533,74.4644 365.75,74.4644 365.967,74.4644 366.184,74.4644 366.401,74.4644 366.618,74.4644 366.835,74.4644 367.052,74.4644 367.269,74.4644 367.486,74.4644 367.703,74.4644 367.92,74.4644 368.137,74.4644 368.354,74.4644 368.571,74.4644 368.788,74.4644 369.005,74.4644 369.222,74.4644 369.439,74.4644 369.656,74.4644 369.873,74.4644 370.09,74.4644 370.307,74.4644 370.524,74.4644 370.741,74.4644 370.958,74.4644 371.175,74.4644 371.392,74.4644 371.609,74.4644 371.826,74.4644 372.043,74.4644 372.26,74.4644 372.477,74.4644 372.694,74.4644 372.911,74.4644 373.128,74.4644 373.345,74.4644 373.562,74.4644 373.779,74.4644 373.996,74.4644 374.213,74.4644 374.43,74.4644 374.647,74.4644 374.864,74.4644 375.081,74.4644 375.298,74.4644 375.515,74.4644 375.732,74.4644 375.949,74.4644 376.166,74.4644 376.383,74.4644 376.6,74.4644 376.817,74.4644 377.034,74.4644 377.251,74.4644 377.468,74.4644 377.685,74.4644 377.902,74.4644 378.119,74.4644 378.336,74.4644 378.553,74.4644 378.77,74.4644 378.987,74.4644 379.204,74.4644 379.421,74.4644 379.638,74.4644 379.855,74.4644 380.072,74.4644 380.289,74.4644 380.506,74.4644 380.723,74.4644 380.94,74.4644 381.157,74.4644 381.374,74.4644 381.591,74.4644 381.808,74.4644 382.025,74.4644 382.242,74.4644 382.459,74.4644 382.676,74.4644 382.893,74.4644 383.11,74.4644 383.327,74.4644 383.544,74.4644 383.761,74.4644 383.978,74.4644 384.195,74.4644 384.412,74.4644 384.629,74.4644 384.846,74.4644 385.063,74.4644 385.28,74.4644 385.497,74.4644 385.714,74.4644 385.931,74.4644 386.148,74.4644 386.365,74.4644 386.582,74.4644 386.799,74.4644 387.016,74.4644 387.233,74.4644 387.45,74.4644 387.667,74.4644 387.884,74.4644 388.101,74.4644 388.318,74.4644 388.535,74.4644 388.752,74.4644 388.969,74.4644 389.186,74.4644 389.403,74.4644 389.62,74.4644 389.837,74.4644 390.054,74.4644 390.271,74.4644 390.488,74.4644 390.705,74.4644 390.922,74.4644 391.139,74.4644 391.356,74.4644 391.573,74.4644 391.79,74.4644 392.007,74.4644 392.224,74.4644 392.441,74.4644 392.658,74.4644 392.875,74.4644 393.092,74.4644 393.309,74.4644 393.526,74.4644 393.743,74.4644 393.96,74.4644 394.177,74.4644 394.394,74.4644 394.611,74.4644 394.828,74.4644 395.045,74.4644 395.262,74.4644 395.479,74.4644 395.696,74.4644 395.913,74.4644 396.13,74.4644 396.347,74.4644 396.564,74.4644 396.781,74.4644 396.998,74.4644 397.215,74.4644 397.432,74.4644 397.649,74.4644 397.866,74.4644 398.083,74.4644 398.3,74.4644 398.517,74.4644 398.734,74.4644 398.951,74.4644 399.168,74.4644 399.385,74.4644 399.602,74.4644 399.819,74.4644 400.036,74.4644 400.253,74.4644 400.47,74.4644 400.687,74.4644 400.904,74.4644 401.121,74.4644 401.338,74.4644 401.555,74.4644 401.772,74.4644 401.989,74.4644 402.206,74.4644 402.423,74.4644 402.64,74.4644 402.857,74.4644 403.074,74.4644 403.291,74.4644 403.508,74.4644 403.725,74.4644 403.942,74.4644 404.159,74.4644 404.376,74.4644 404.593,74.4644 404.81,74.4644 405.027,74.4644 405.244,74.4644 405.461,74.4644 405.678,74.4644 405.895,74.4644 406.112,74.4644 406.329,74.4644 406.546,74.4644 406.763,74.4644 406.98,74.4644 407.197,74.4644 407.414,74.4644 407.631,74.4644 407.848,74.4644 408.065,74.4644 408.282,74.4644 408.499,74.4644 408.716,74.4644 408.933,74.4644 409.15,74.4644 409.367,74.4644 409.584,74.4644 409.801,74.4644 410.018,74.4644 410.235,74.4644 410.452,74.4644 410.669,74.4644 410.886,74.4644 411.103,74.4644 411.32,74.4644 411.537,74.4644 411.754,74.4644 411.971,74.4644 412.188,74.4644 412.405,74.4644 412.622,74.4644 412.839,74.4644 413.056,74.4644 413.273,74.4644 413.49,74.4644 413.707,74.4644 413.924,74.4644 414.141,74.4644 414.358,74.4644 414.575,74.4644 414.792,74.4644 415.009,74.4644 415.226,74.4644 415.443,74.4644 415.66,74.4644 415.877,74.4644 416.094,74.4644 416.311,74.4644 416.528,74.4644 416.745,74.4644 416.962,74.4644 417.179,74.4644 417.396,74.4644 417.613,74.4644 417.83,74.4644 418.047,74.4644 418.264,74.4644 418.481,74.4644 418.698,74.4644 418.915,74.4644 419.132,74.4644 419.349,74.4644 419.566,74.4644 419.783,74.4644 420,74.4644 420.217,74.4644 420.434,74.4644 420.651,74.4644 420.868,74.4644 421.085,74.4644 421.302,74.4644 421.519,74.4644 421.736,74.4644 421.953,74.4644 422.17,74.4644 422.387,74.4644 422.604,74.4644 422.821,74.4644 423.038,74.4644 423.255,74.4644 423.472,74.4644 423.689,74.4644 423.906,74.4644 424.123,74.4644 424.34,74.4644 424.557,74.4644 424.774,74.4644 424.991,74.4644 425.208,74.4644 425.425,74.4644 425.642,74.4644 425.859,74.4644 426.076,74.4644 426.293,74.4644 426.51,74.4644 426.727,74.4644 426.944,74.4644 427.161,74.4644 427.378,74.4644 427.595,74.4644 427.812,74.4644 428.029,74.4644 428.246,74.4644 428.463,74.4644 428.68,74.4644 428.897,74.4644 429.114,74.4644 429.331,74.4644 429.548,74.4644 429.765,74.4644 429.982,74.4644 430.199,74.4644 430.416,74.4644 430.633,74.4644 430.85,74.4644 431.067,74.4644 431.284,74.4644 431.501,74.4644 431.718,74.4644 431.935,74.4644 432.152,74.4644 432.369,74.4644 432.586,74.4644 432.803,74.4644 433.02,74.4644 433.237,74.4644 433.454,74.4644 433.671,74.4644 433.888,74.4644 434.105,74.4644 434.322,74.4644 434.539,74.4644 434.756,74.4644 434.973,74.4644 435.19,74.4644 435.407,74.4644 435.624,74.4644 435.841,74.4644 436.058,74.4644 436.275,74.4644 436.492,74.4644 436.709,74.4644 436.926,74.4644 437.143,74.4644 437.36,74.4644 437.577,74.4644 437.794,74.4644 438.011,74.4644 438.228,74.4644 438.445,74.4644 438.662,74.4644 438.879,74.4644 439.096,74.4644 439.313,74.4644 439.53,74.4644 439.747,74.4644 439.964,74.4644 440.181,74.4644 440.398,74.4644 440.615,74.4644 440.832,74.4644 441.049,74.4644 441.266,74.4644 441.483,74.4644 441.7,74.4644 441.917,74.4644 442.134,74.4644 442.351,74.4644 442.568,74.4644 442.785,74.4644 443.002,74.4644 443.219,74.4644 443.436,74.4644 443.653,74.4644 443.87,74.4644 444.087,74.4644 444.304,74.4644 444.521,74.4644 444.738,74.4644 444.955,74.4644 445.172,74.4644 445.389,74.4644 445.606,74.4644 445.823,74.4644 446.04,74.4644 446.257,74.4644 446.474,74.4644 446.691,74.4644 446.908,74.4644 447.125,74.4644 447.342,74.4644 447.559,74.4644 447.776,74.4644 447.993,74.4644 448.21,74.4644 448.427,74.4644 448.644,74.4644 448.861,74.4644 449.078,74.4644 449.295,74.4644 449.512,74.4644 449.729,74.4644 449.946,74.4644 450.163,74.4644 450.38,74.4644 450.597,74.4644 450.814,74.4644 451.031,74.4644 451.248,74.4644 451.465,74.4644 451.682,74.4644 451.899,74.4644 452.116,74.4644 452.333,74.4644 452.55,74.4644 452.767,74.4644 452.984,74.4644 453.201,74.4644 453.418,74.4644 453.635,74.4644 453.852,74.4644 454.069,74.4644 454.286,74.4644 454.503,74.4644 454.72,74.4644 454.937,74.4644 455.154,74.4644 455.371,74.4644 455.588,74.4644 455.805,74.4644 456.022,74.4644 456.239,74.4644 456.456,74.4644 456.673,74.4644 456.89,74.4644 457.107,74.4644 457.324,74.4644 457.541,74.4644 457.758,74.4644 457.975,74.4644 458.192,74.4644 458.409,74.4644 458.626,74.4644 458.843,74.4644 459.06,74.4644 459.277,74.4644 459.494,74.4644 459.711,74.4644 459.928,74.4644 460.145,74.4644 460.362,74.4644 460.579,74.4644 460.796,74.4644 461.013,74.4644 461.23,74.4644 461.447,74.4644 461.664,74.4644 461.881,74.4644 462.098,74.4644 462.315,74.4644 462.532,74.4644 462.749,74.4644 462.966,74.4644 463.183,74.4644 463.4,74.4644 463.617,74.4644 463.834,74.4644 464.051,74.4644 464.268,74.4644 464.485,74.4644 464.702,74.4644 464.919,74.4644 465.136,74.4644 465.353,74.4644 465.57,74.4644 465.787,74.4644 466.004,74.4644 466.221,74.4644 466.438,74.4644 466.655,74.4644 466.872,74.4644 467.089,74.4644 467.306,74.4644 467.523,74.4644 467.74,74.4644 467.957,74.4644 468.174,74.4644 468.391,74.4644 468.608,74.4644 468.825,74.4644 469.042,74.4644 469.259,74.4644 469.476,74.4644 469.693,74.4644 469.91,74.4644 470.127,74.4644 470.344,74.4644 470.561,74.4644 470.778,74.4644 470.995,74.4644 471.212,74.4644 471.429,74.4644 471.646,74.4644 471.863,74.4644 472.08,74.4644 472.297,74.4644 472.514,74.4644 472.731,74.4644 472.948,74.4644 473.165,74.4644 473.382,74.4644 473.599,74.4644 473.816,74.4644 474.033,74.4644 474.25,74.4644 474.467,74.4644 474.684,74.4644 474.901,74.4644 475.118,74.4644 475.335,74.4644 475.552,74.4644 475.769,74.4644 475.986,74.4644 476.203,74.4644 476.42,74.4644 476.637,74.4644 476.854,74.4644 477.071,74.4644 477.288,74.4644 477.505,74.4644 477.722,74.4644 477.939,74.4644 478.156,74.4644 478.373,74.4644 478.59,74.4644 478.807,74.4644 479.024,74.4644 479.241,74.4644 479.458,74.4644 479.675,74.4644 479.892,74.4644 480.109,74.4644 480.326,74.4644 480.543,74.4644 480.76,74.4644 480.977,74.4644 481.194,74.4644 481.411,74.4644 481.628,74.4644 481.845,74.4644 482.062,74.4644 482.279,74.4644 482.496,74.4644 482.713,74.4644 482.93,74.4644 483.147,74.4644 483.364,74.4644 483.581,74.4644 483.798,74.4644 484.015,74.4644 484.232,74.4644 484.449,74.4644 484.666,74.4644 484.883,74.4644 485.1,74.4644 485.317,74.4644 485.534,74.4644 485.751,74.4644 485.968,74.4644 486.185,74.4644 486.402,74.4644 486.619,74.4644 486.836,74.4644 487.053,74.4644 487.27,74.4644 487.487,74.4644 487.704,74.4644 487.921,74.4644 488.138,74.4644 488.355,74.4644 488.572,74.4644 488.789,74.4644 489.006,74.4644 489.223,74.4644 489.44,74.4644 489.657,74.4644 489.874,74.4644 490.091,74.4644 490.308,74.4644 490.525,74.4644 490.742,74.4644 490.959,74.4644 491.176,74.4644 491.393,74.4644 491.61,74.4644 491.827,74.4644 492.044,74.4644 492.261,74.4644 492.478,74.4644 492.695,74.4644 492.912,74.4644 493.129,74.4644 493.346,74.4644 493.563,74.4644 493.78,74.4644 493.997,74.4644 494.214,74.4644 494.431,74.4644 494.648,74.4644 494.865,74.4644 495.082,74.4644 495.299,74.4644 495.516,74.4644 495.733,74.4644 495.95,74.4644 496.167,74.4644 496.384,74.4644 496.601,74.4644 496.818,74.4644 497.035,74.4644 497.252,74.4644 497.469,74.4644 497.686,74.4644 497.903,74.4644 498.12,74.4644 498.337,74.4644 498.554,74.4644 498.771,74.4644 498.988,74.4644 499.205,74.4644 499.422,74.4644 499.639,74.4644 499.856,74.4644 500.073,74.4644 500.29,74.4644 500.507,74.4644 500.724,74.4644 500.941,74.4644 501.158,74.4644 501.375,74.4644 501.592,74.4644 501.809,74.4644 502.026,74.4644 502.243,74.4644 502.46,74.4644 502.677,74.4644 502.894,74.4644 503.111,74.4644 503.328,74.4644 503.545,74.4644 503.762,74.4644 503.979,74.4644 504.196,74.4644 504.413,74.4644 504.63,74.4644 504.847,74.4644 505.064,74.4644 505.281,74.4644 505.498,74.4644 505.715,74.4644 505.932,74.4644 506.149,74.4644 506.366,74.4644 506.583,74.4644 506.8,74.4644 507.017,74.4644 507.234,74.4644 507.234,74.4644"/>
<polyline fill="none" stroke="#000000" stroke-width="0.5" stroke-dasharray="16,0" points="382.159,89.0337 504.136,89.0337"/>
<polyline fill="none" stroke="#000000" stroke-width="0.5" stroke-dasharray="16,0" points="382.159,34.2456 504.136,34.2456"/>
<polyline fill="none" stroke="#000000" stroke-width="0.5" stroke-dasharray="16,0" points="382.159,89.0337 382.159,34.2456"/>
<polyline fill="none" stroke="#000000" stroke-width="0.5" stroke-dasharray="16,0" points="504.136,89.0337 504.136,34.2456"/>
<text fill="#000000" x="407.471" y="41.0942" font-size="10" text-anchor="start" baseline-shift="-5" font-family="Helvetica">Gear SC CT/DE</text>
<text fill="#000000" x="407.471" y="54.791" font-size="10" text-anchor="start" baseline-shift="-5" font-family="Helvetica">Gear MATLAB</text>
<text fill="#000000" x="407.471" y="68.4883" font-size="10" text-anchor="start" baseline-shift="-5" font-family="Helvetica">Gear SC TDF 1s</text>
<text fill="#000000" x="407.471" y="82.1851" font-size="10" text-anchor="start" baseline-shift="-5" font-family="Helvetica">Gear SC TDF 10ms</text>
<polyline fill="none" stroke="#ff0000" stroke-width="2" points="397.815,41.0942 397.242,42.8574 395.742,43.9473 393.888,43.9473 392.388,42.8574 391.815,41.0942 392.388,39.3311 393.888,38.2412 395.742,38.2412 397.242,39.3311 397.815,41.0942"/>
<polyline fill="none" stroke="#0000ff" stroke-width="2" points="384.824,54.791 404.807,54.791"/>
<polyline fill="none" stroke="#000000" stroke-width="1" stroke-dasharray="0,4,4,4,4,0" points="384.824,68.4883 404.807,68.4883"/>
<polyline fill="none" stroke="#00ff00" stroke-width="1" stroke-dasharray="0,4,4,4,4,0" points="384.824,82.1851 404.807,82.1851"/>
<text fill="#000000" x="289.8" y="21.5752" font-size="10" text-anchor="middle" baseline-shift="0" font-family="Helvetica">Gear shifting - SystemC</text>
</g>
</svg>
