<?xml version="1.0" encoding="UTF-8" standalone="no"?>
<svg xmlns="http://www.w3.org/2000/svg"
     xmlns:xlink="http://www.w3.org/1999/xlink"
     width="576px" height="433px" viewBox="0 0 576 433">
<title>glps_renderer figure</title>
<desc>
Creator: GL2PS 1.3.8, (C) 1999-2012 C. Geuzaine
For: Octave
CreationDate: Thu Jun 20 15:36:52 2019
</desc>
<defs>
</defs>
<g shape-rendering="crispEdges">
<polygon fill="#ffffff" points="72.7998,374.69 506.8,374.69 506.8,31.5752"/>
<polygon fill="#ffffff" points="72.7998,374.69 506.8,31.5752 72.7998,31.5752"/>
<polygon fill="#ffffff" points="375.159,116.427 504.136,116.427 504.136,34.2456"/>
<polygon fill="#ffffff" points="375.159,116.427 504.136,34.2456 375.159,34.2456"/>
<polyline fill="none" stroke="#000000" stroke-width="0.5" stroke-dasharray="16,0" points="72.7998,374.69 506.8,374.69"/>
<polyline fill="none" stroke="#000000" stroke-width="0.5" stroke-dasharray="16,0" points="72.7998,31.5752 506.8,31.5752"/>
<polyline fill="none" stroke="#000000" stroke-width="0.5" stroke-dasharray="16,0" points="72.7998,374.69 72.7998,31.5752"/>
<polyline fill="none" stroke="#000000" stroke-width="0.5" stroke-dasharray="16,0" points="506.8,374.69 506.8,31.5752"/>
<polyline fill="none" stroke="#000000" stroke-width="0.5" stroke-dasharray="0,3,1,3,1,3,1,3,1,0" points="72.7998,374.69 72.7998,31.5752"/>
<polyline fill="none" stroke="#000000" stroke-width="0.5" stroke-dasharray="0,3,1,3,1,3,1,3,1,0" points="181.3,374.69 181.3,31.5752"/>
<polyline fill="none" stroke="#000000" stroke-width="0.5" stroke-dasharray="0,3,1,3,1,3,1,3,1,0" points="289.8,374.69 289.8,31.5752"/>
<polyline fill="none" stroke="#000000" stroke-width="0.5" stroke-dasharray="0,3,1,3,1,3,1,3,1,0" points="398.3,374.69 398.3,31.5752"/>
<polyline fill="none" stroke="#000000" stroke-width="0.5" stroke-dasharray="0,3,1,3,1,3,1,3,1,0" points="506.8,374.69 506.8,31.5752"/>
<polyline fill="none" stroke="#000000" stroke-width="0.5" stroke-dasharray="16,0" points="72.7998,374.69 72.7998,370.349"/>
<polyline fill="none" stroke="#000000" stroke-width="0.5" stroke-dasharray="16,0" points="72.7998,31.5752 72.7998,35.9165"/>
<polyline fill="none" stroke="#000000" stroke-width="0.5" stroke-dasharray="16,0" points="181.3,374.69 181.3,370.349"/>
<polyline fill="none" stroke="#000000" stroke-width="0.5" stroke-dasharray="16,0" points="181.3,31.5752 181.3,35.9165"/>
<polyline fill="none" stroke="#000000" stroke-width="0.5" stroke-dasharray="16,0" points="289.8,374.69 289.8,370.349"/>
<polyline fill="none" stroke="#000000" stroke-width="0.5" stroke-dasharray="16,0" points="289.8,31.5752 289.8,35.9165"/>
<polyline fill="none" stroke="#000000" stroke-width="0.5" stroke-dasharray="16,0" points="398.3,374.69 398.3,370.349"/>
<polyline fill="none" stroke="#000000" stroke-width="0.5" stroke-dasharray="16,0" points="398.3,31.5752 398.3,35.9165"/>
<polyline fill="none" stroke="#000000" stroke-width="0.5" stroke-dasharray="16,0" points="506.8,374.69 506.8,370.349"/>
<polyline fill="none" stroke="#000000" stroke-width="0.5" stroke-dasharray="16,0" points="506.8,31.5752 506.8,35.9165"/>
<text fill="#000000" x="72.7998" y="379.692" font-size="10" text-anchor="middle" baseline-shift="-10" font-family="Helvetica">0</text>
<text fill="#000000" x="181.3" y="379.692" font-size="10" text-anchor="middle" baseline-shift="-10" font-family="Helvetica">5</text>
<text fill="#000000" x="289.8" y="379.692" font-size="10" text-anchor="middle" baseline-shift="-10" font-family="Helvetica">10</text>
<text fill="#000000" x="398.3" y="379.692" font-size="10" text-anchor="middle" baseline-shift="-10" font-family="Helvetica">15</text>
<text fill="#000000" x="506.8" y="379.692" font-size="10" text-anchor="middle" baseline-shift="-10" font-family="Helvetica">20</text>
<polyline fill="none" stroke="#000000" stroke-width="0.5" stroke-dasharray="0,3,1,3,1,3,1,3,1,0" points="72.7998,374.69 506.8,374.69"/>
<polyline fill="none" stroke="#000000" stroke-width="0.5" stroke-dasharray="0,3,1,3,1,3,1,3,1,0" points="72.7998,312.306 506.8,312.306"/>
<polyline fill="none" stroke="#000000" stroke-width="0.5" stroke-dasharray="0,3,1,3,1,3,1,3,1,0" points="72.7998,249.921 506.8,249.921"/>
<polyline fill="none" stroke="#000000" stroke-width="0.5" stroke-dasharray="0,3,1,3,1,3,1,3,1,0" points="72.7998,187.536 506.8,187.536"/>
<polyline fill="none" stroke="#000000" stroke-width="0.5" stroke-dasharray="0,3,1,3,1,3,1,3,1,0" points="72.7998,125.152 506.8,125.152"/>
<polyline fill="none" stroke="#000000" stroke-width="0.5" stroke-dasharray="0,3,1,3,1,3,1,3,1,0" points="72.7998,62.7671 506.8,62.7671"/>
<polyline fill="none" stroke="#000000" stroke-width="0.5" stroke-dasharray="16,0" points="72.7998,374.69 77.1401,374.69"/>
<polyline fill="none" stroke="#000000" stroke-width="0.5" stroke-dasharray="16,0" points="506.8,374.69 502.46,374.69"/>
<polyline fill="none" stroke="#000000" stroke-width="0.5" stroke-dasharray="16,0" points="72.7998,312.306 77.1401,312.306"/>
<polyline fill="none" stroke="#000000" stroke-width="0.5" stroke-dasharray="16,0" points="506.8,312.306 502.46,312.306"/>
<polyline fill="none" stroke="#000000" stroke-width="0.5" stroke-dasharray="16,0" points="72.7998,249.921 77.1401,249.921"/>
<polyline fill="none" stroke="#000000" stroke-width="0.5" stroke-dasharray="16,0" points="506.8,249.921 502.46,249.921"/>
<polyline fill="none" stroke="#000000" stroke-width="0.5" stroke-dasharray="16,0" points="72.7998,187.536 77.1401,187.536"/>
<polyline fill="none" stroke="#000000" stroke-width="0.5" stroke-dasharray="16,0" points="506.8,187.536 502.46,187.536"/>
<polyline fill="none" stroke="#000000" stroke-width="0.5" stroke-dasharray="16,0" points="72.7998,125.152 77.1401,125.152"/>
<polyline fill="none" stroke="#000000" stroke-width="0.5" stroke-dasharray="16,0" points="506.8,125.152 502.46,125.152"/>
<polyline fill="none" stroke="#000000" stroke-width="0.5" stroke-dasharray="16,0" points="72.7998,62.7671 77.1401,62.7671"/>
<polyline fill="none" stroke="#000000" stroke-width="0.5" stroke-dasharray="16,0" points="506.8,62.7671 502.46,62.7671"/>
<text fill="#000000" x="67.7998" y="374.69" font-size="10" text-anchor="end" baseline-shift="-5" font-family="Helvetica">0</text>
<text fill="#000000" x="67.7998" y="312.306" font-size="10" text-anchor="end" baseline-shift="-5" font-family="Helvetica">10</text>
<text fill="#000000" x="67.7998" y="249.921" font-size="10" text-anchor="end" baseline-shift="-5" font-family="Helvetica">20</text>
<text fill="#000000" x="67.7998" y="187.536" font-size="10" text-anchor="end" baseline-shift="-5" font-family="Helvetica">30</text>
<text fill="#000000" x="67.7998" y="125.152" font-size="10" text-anchor="end" baseline-shift="-5" font-family="Helvetica">40</text>
<text fill="#000000" x="67.7998" y="62.7671" font-size="10" text-anchor="end" baseline-shift="-5" font-family="Helvetica">50</text>
<polyline fill="none" stroke="#ff0000" stroke-width="2" points="75.7998,374.69 75.2271,376.453 73.7271,377.543 71.873,377.543 70.373,376.453 69.7998,374.69 70.373,372.927 71.873,371.837 73.7271,371.837 75.2271,372.927 75.7998,374.69 75.2271,376.453 73.7271,377.543 71.873,377.543 70.373,376.453 69.7998,374.69 70.373,372.927 71.873,371.837 73.7271,371.837 75.2271,372.927 75.7998,374.69"/>
<polyline fill="none" stroke="#ff0000" stroke-width="2" points="97.5,352.251 96.9272,354.015 95.4272,355.104 93.5728,355.104 92.0728,354.015 91.5,352.251 92.0728,350.488 93.5728,349.398 95.4272,349.398 96.9272,350.488 97.5,352.251"/>
<polyline fill="none" stroke="#ff0000" stroke-width="2" points="119.2,315.267 118.627,317.03 117.127,318.12 115.273,318.12 113.773,317.03 113.2,315.267 113.773,313.503 115.273,312.414 117.127,312.414 118.627,313.503 119.2,315.267"/>
<polyline fill="none" stroke="#ff0000" stroke-width="2" points="132.37,290.269 131.797,292.033 130.297,293.123 128.443,293.123 126.943,292.033 126.37,290.269 126.943,288.506 128.443,287.416 130.297,287.416 131.797,288.506 132.37,290.269"/>
<polyline fill="none" stroke="#ff0000" stroke-width="2" points="134.106,286.917 133.533,288.68 132.033,289.77 130.179,289.77 128.679,288.68 128.106,286.917 128.679,285.153 130.179,284.063 132.033,284.063 133.533,285.153 134.106,286.917"/>
<polyline fill="none" stroke="#ff0000" stroke-width="2" points="155.806,261.174 155.233,262.938 153.733,264.027 151.879,264.027 150.379,262.938 149.806,261.174 150.379,259.411 151.879,258.321 153.733,258.321 155.233,259.411 155.806,261.174"/>
<polyline fill="none" stroke="#ff0000" stroke-width="2" points="177.506,235.43 176.933,237.193 175.433,238.283 173.579,238.283 172.079,237.193 171.506,235.43 172.079,233.667 173.579,232.577 175.433,232.577 176.933,233.667 177.506,235.43"/>
<polyline fill="none" stroke="#ff0000" stroke-width="2" points="185.719,225.757 185.146,227.52 183.646,228.61 181.792,228.61 180.292,227.52 179.719,225.757 180.292,223.993 181.792,222.903 183.646,222.903 185.146,223.993 185.719,225.757"/>
<polyline fill="none" stroke="#ff0000" stroke-width="2" points="187.455,223.718 186.882,225.482 185.382,226.572 183.528,226.572 182.028,225.482 181.455,223.718 182.028,221.955 183.528,220.865 185.382,220.865 186.882,221.955 187.455,223.718"/>
<polyline fill="none" stroke="#ff0000" stroke-width="2" points="209.155,206.933 208.582,208.696 207.082,209.786 205.228,209.786 203.728,208.696 203.155,206.933 203.728,205.169 205.228,204.08 207.082,204.08 208.582,205.169 209.155,206.933"/>
<polyline fill="none" stroke="#ff0000" stroke-width="2" points="230.855,190.435 230.282,192.198 228.782,193.288 226.928,193.288 225.428,192.198 224.855,190.435 225.428,188.671 226.928,187.582 228.782,187.582 230.282,188.671 230.855,190.435"/>
<polyline fill="none" stroke="#ff0000" stroke-width="2" points="252.555,174.252 251.982,176.016 250.482,177.105 248.628,177.105 247.128,176.016 246.555,174.252 247.128,172.489 248.628,171.399 250.482,171.399 251.982,172.489 252.555,174.252"/>
<polyline fill="none" stroke="#ff0000" stroke-width="2" points="272.537,159.649 271.964,161.413 270.464,162.502 268.61,162.502 267.11,161.413 266.537,159.649 267.11,157.886 268.61,156.796 270.464,156.796 271.964,157.886 272.537,159.649"/>
<polyline fill="none" stroke="#ff0000" stroke-width="2" points="274.273,158.395 273.7,160.158 272.2,161.248 270.346,161.248 268.846,160.158 268.273,158.395 268.846,156.631 270.346,155.542 272.2,155.542 273.7,156.631 274.273,158.395"/>
<polyline fill="none" stroke="#ff0000" stroke-width="2" points="295.973,148.919 295.4,150.683 293.9,151.772 292.046,151.772 290.546,150.683 289.973,148.919 290.546,147.156 292.046,146.066 293.9,146.066 295.4,147.156 295.973,148.919"/>
<polyline fill="none" stroke="#ff0000" stroke-width="2" points="317.673,139.666 317.1,141.429 315.6,142.519 313.746,142.519 312.246,141.429 311.673,139.666 312.246,137.903 313.746,136.813 315.6,136.813 317.1,137.903 317.673,139.666"/>
<polyline fill="none" stroke="#ff0000" stroke-width="2" points="339.373,130.638 338.8,132.401 337.3,133.491 335.446,133.491 333.946,132.401 333.373,130.638 333.946,128.875 335.446,127.785 337.3,127.785 338.8,128.875 339.373,130.638"/>
<polyline fill="none" stroke="#ff0000" stroke-width="2" points="361.073,121.838 360.5,123.602 359,124.691 357.146,124.691 355.646,123.602 355.073,121.838 355.646,120.075 357.146,118.985 359,118.985 360.5,120.075 361.073,121.838"/>
<polyline fill="none" stroke="#ff0000" stroke-width="2" points="382.773,113.27 382.2,115.033 380.7,116.123 378.846,116.123 377.346,115.033 376.773,113.27 377.346,111.506 378.846,110.416 380.7,110.416 382.2,111.506 382.773,113.27"/>
<polyline fill="none" stroke="#ff0000" stroke-width="2" points="404.473,104.932 403.9,106.695 402.4,107.785 400.546,107.785 399.046,106.695 398.473,104.932 399.046,103.169 400.546,102.079 402.4,102.079 403.9,103.169 404.473,104.932"/>
<polyline fill="none" stroke="#ff0000" stroke-width="2" points="426.173,96.8276 425.6,98.5913 424.1,99.6812 422.246,99.6812 420.746,98.5913 420.173,96.8276 420.746,95.0645 422.246,93.9746 424.1,93.9746 425.6,95.0645 426.173,96.8276"/>
<polyline fill="none" stroke="#ff0000" stroke-width="2" points="447.873,88.9565 447.3,90.7197 445.8,91.8096 443.946,91.8096 442.446,90.7197 441.873,88.9565 442.446,87.1929 443.946,86.103 445.8,86.103 447.3,87.1929 447.873,88.9565"/>
<polyline fill="none" stroke="#ff0000" stroke-width="2" points="469.573,81.3174 469,83.0811 467.5,84.1709 465.646,84.1709 464.146,83.0811 463.573,81.3174 464.146,79.5542 465.646,78.4644 467.5,78.4644 469,79.5542 469.573,81.3174"/>
<polyline fill="none" stroke="#ff0000" stroke-width="2" points="491.273,73.9102 490.7,75.6738 489.2,76.7637 487.346,76.7637 485.846,75.6738 485.273,73.9102 485.846,72.147 487.346,71.0571 489.2,71.0571 490.7,72.147 491.273,73.9102"/>
<polyline fill="none" stroke="#0000ff" stroke-width="2" points="72.7998,374.69 72.812,374.684 72.8237,374.678 72.8359,374.672 72.9097,374.636 72.9834,374.599 73.0171,374.582 73.0503,374.565 73.084,374.548 73.1172,374.532 73.2339,374.472 73.3506,374.412 73.4512,374.359 73.5513,374.306 73.6519,374.252 73.668,374.243 73.6846,374.234 73.7007,374.226 73.7173,374.217 73.8848,374.125 74.0527,374.032 74.1021,374.004 74.1509,373.976 74.2002,373.948 74.2495,373.92 74.3188,373.88 74.3887,373.84 74.4585,373.8 74.5283,373.759 74.5361,373.754 74.5439,373.75 74.5518,373.745 74.5596,373.741 74.6377,373.694 74.7163,373.647 74.7529,373.625 74.79,373.604 74.8267,373.582 74.8633,373.559 74.9702,373.494 75.0767,373.429 75.187,373.36 75.2974,373.291 75.4038,373.224 75.5107,373.156 75.6211,373.084 75.7314,373.013 75.8379,372.942 75.9448,372.872 76.0552,372.798 76.1655,372.724 76.272,372.651 76.3784,372.578 76.4893,372.501 76.5996,372.425 76.7061,372.35 76.8125,372.274 76.9229,372.195 77.0332,372.115 77.1401,372.038 77.2466,371.959 77.3569,371.878 77.4673,371.795 77.5742,371.715 77.6807,371.635 77.791,371.551 77.9014,371.466 78.0078,371.383 78.1147,371.3 78.2251,371.213 78.3354,371.126 78.4419,371.041 78.5488,370.956 78.6592,370.866 78.7695,370.776 78.876,370.688 78.9824,370.601 79.0928,370.509 79.2036,370.417 79.3101,370.327 79.4165,370.236 79.5269,370.142 79.6372,370.047 79.7441,369.955 79.8506,369.861 79.9609,369.765 80.0713,369.667 80.1782,369.573 80.2847,369.478 80.395,369.378 80.5054,369.278 80.6118,369.181 80.7188,369.083 80.8291,368.982 80.9395,368.88 81.0459,368.78 81.1528,368.68 81.2632,368.576 81.3735,368.472 81.48,368.37 81.5864,368.268 81.6973,368.161 81.8076,368.054 81.9141,367.95 82.0205,367.846 82.1309,367.737 82.2412,367.627 82.3481,367.521 82.4546,367.415 82.5649,367.303 82.6753,367.191 82.7822,367.083 82.8887,366.974 82.999,366.86 83.1094,366.747 83.2158,366.636 83.3228,366.524 83.4331,366.409 83.5435,366.292 83.6499,366.18 83.7568,366.066 83.8672,365.948 83.9775,365.83 84.084,365.715 84.1904,365.599 84.3008,365.479 84.4116,365.358 84.5181,365.241 84.6245,365.124 84.7349,365.001 84.8452,364.878 84.9521,364.759 85.0586,364.64 85.1689,364.515 85.2793,364.39 85.3862,364.269 85.4927,364.147 85.603,364.021 85.7134,363.894 85.8198,363.77 85.9268,363.646 86.0371,363.518 86.1475,363.389 86.2539,363.263 86.3608,363.137 86.4712,363.007 86.5815,362.875 86.688,362.748 86.7944,362.621 86.9048,362.488 87.0156,362.354 87.1221,362.225 87.2285,362.096 87.3389,361.961 87.4492,361.826 87.5562,361.695 87.6626,361.563 87.7729,361.426 87.8833,361.29 87.9902,361.156 88.0967,361.023 88.207,360.884 88.3174,360.745 88.4238,360.61 88.5308,360.475 88.6411,360.335 88.7515,360.194 88.8579,360.057 88.9648,359.92 89.0752,359.778 89.1855,359.635 89.292,359.497 89.3984,359.358 89.5088,359.214 89.6191,359.069 89.7261,358.929 89.8325,358.789 89.9429,358.643 90.0532,358.497 90.1602,358.354 90.2666,358.212 90.377,358.065 90.4873,357.917 90.5942,357.773 90.7007,357.629 90.811,357.48 90.9214,357.33 91.0278,357.185 91.1348,357.04 91.2451,356.888 91.3555,356.737 91.4619,356.59 91.5688,356.443 91.6792,356.29 91.7896,356.137 91.896,355.989 92.0024,355.84 92.1128,355.686 92.2236,355.531 92.3301,355.381 92.4365,355.231 92.5469,355.075 92.6572,354.918 92.7642,354.767 92.8706,354.615 92.981,354.458 93.0913,354.3 93.1982,354.147 93.3047,353.994 93.415,353.835 93.5254,353.675 93.6318,353.521 93.7388,353.366 93.8491,353.206 93.9595,353.045 94.0659,352.889 94.1729,352.733 94.2832,352.571 94.3936,352.409 94.5,352.251 94.6064,352.094 94.7168,351.931 94.8271,351.767 94.9341,351.608 95.0405,351.449 95.1509,351.285 95.2612,351.119 95.3682,350.959 95.4746,350.799 95.585,350.633 95.6953,350.466 95.8022,350.305 95.9087,350.144 96.019,349.976 96.1294,349.808 96.2358,349.646 96.3428,349.483 96.4531,349.314 96.5635,349.145 96.6699,348.981 96.7769,348.817 96.8872,348.647 96.9976,348.477 97.104,348.312 97.2104,348.146 97.3208,347.975 97.4316,347.803 97.5381,347.637 97.6445,347.47 97.7549,347.298 97.8652,347.125 97.9722,346.958 98.0786,346.79 98.189,346.616 98.2993,346.442 98.4062,346.273 98.5127,346.104 98.623,345.929 98.7334,345.754 98.8398,345.584 98.9468,345.415 99.0571,345.238 99.1675,345.062 99.2739,344.891 99.3809,344.72 99.4912,344.543 99.6016,344.365 99.708,344.193 99.8145,344.021 99.9248,343.843 100.035,343.664 100.142,343.491 100.249,343.318 100.359,343.139 100.469,342.959 100.576,342.785 100.683,342.611 100.793,342.43 100.903,342.25 101.01,342.075 101.117,341.899 101.227,341.718 101.337,341.536 101.444,341.36 101.551,341.184 101.661,341.001 101.771,340.819 101.878,340.642 101.984,340.465 102.095,340.282 102.206,340.098 102.312,339.92 102.418,339.742 102.529,339.558 102.639,339.373 102.746,339.194 102.853,339.015 102.963,338.83 103.073,338.644 103.18,338.465 103.287,338.285 103.397,338.099 103.507,337.912 103.614,337.731 103.721,337.551 103.831,337.364 103.941,337.176 104.048,336.995 104.155,336.813 104.265,336.625 104.375,336.438 104.482,336.255 104.589,336.073 104.699,335.884 104.81,335.695 104.916,335.512 105.022,335.329 105.133,335.139 105.243,334.949 105.35,334.766 105.457,334.582 105.567,334.391 105.677,334.201 105.784,334.016 105.891,333.832 106.001,333.64 106.111,333.449 106.218,333.263 106.325,333.078 106.435,332.886 106.545,332.694 106.652,332.508 106.759,332.322 106.869,332.129 106.979,331.936 107.086,331.75 107.192,331.562 107.303,331.369 107.414,331.175 107.52,330.988 107.626,330.8 107.737,330.606 107.847,330.412 107.954,330.224 108.061,330.036 108.171,329.841 108.281,329.646 108.388,329.457 108.495,329.268 108.605,329.073 108.715,328.877 108.822,328.688 108.929,328.498 109.039,328.302 109.149,328.105 109.256,327.916 109.363,327.726 109.473,327.529 109.583,327.332 109.69,327.141 109.797,326.951 109.907,326.753 110.018,326.555 110.124,326.364 110.23,326.173 110.341,325.975 110.451,325.777 110.558,325.585 110.665,325.393 110.775,325.194 110.885,324.996 110.992,324.804 111.099,324.611 111.209,324.412 111.319,324.212 111.426,324.02 111.533,323.827 111.643,323.627 111.753,323.427 111.86,323.234 111.967,323.041 112.077,322.84 112.188,322.64 112.294,322.446 112.4,322.252 112.511,322.051 112.622,321.85 112.728,321.656 112.834,321.461 112.945,321.26 113.055,321.058 113.162,320.863 113.269,320.668 113.379,320.467 113.489,320.265 113.596,320.069 113.703,319.874 113.813,319.672 113.923,319.469 114.03,319.273 114.137,319.078 114.247,318.875 114.357,318.672 114.464,318.476 114.571,318.279 114.681,318.076 114.792,317.873 114.898,317.676 115.004,317.479 115.115,317.275 115.226,317.072 115.332,316.875 115.438,316.678 115.549,316.474 115.659,316.269 115.766,316.072 115.873,315.874 115.983,315.669 116.093,315.465 116.2,315.267 116.307,315.069 116.417,314.864 116.527,314.659 116.634,314.461 116.741,314.262 116.851,314.057 116.961,313.852 117.068,313.653 117.175,313.454 117.285,313.249 117.396,313.042 117.502,312.844 117.608,312.645 117.719,312.438 117.83,312.232 117.936,312.033 118.042,311.833 118.153,311.627 118.263,311.42 118.37,311.221 118.477,311.021 118.587,310.814 118.697,310.607 118.804,310.407 118.911,310.207 119.021,310 119.131,309.792 119.238,309.592 119.345,309.392 119.455,309.184 119.565,308.977 119.672,308.776 119.779,308.575 119.889,308.367 120,308.159 120.106,307.958 120.212,307.757 120.323,307.549 120.434,307.341 120.54,307.14 120.646,306.938 120.757,306.729 120.867,306.521 120.974,306.319 121.081,306.118 121.191,305.909 121.301,305.7 121.408,305.499 121.515,305.296 121.625,305.087 121.735,304.878 121.842,304.676 121.949,304.474 122.059,304.265 122.169,304.055 122.276,303.853 122.383,303.65 122.493,303.441 122.604,303.231 122.71,303.029 122.816,302.826 122.927,302.616 123.038,302.406 123.144,302.203 123.25,302 123.361,301.791 123.471,301.58 123.578,301.377 123.685,301.174 123.795,300.963 123.905,300.753 124.012,300.55 124.119,300.346 124.229,300.136 124.339,299.925 124.446,299.722 124.553,299.518 124.663,299.307 124.773,299.096 124.88,298.893 124.987,298.688 125.097,298.478 125.208,298.267 125.314,298.062 125.42,297.858 125.531,297.647 125.642,297.436 125.748,297.232 125.854,297.027 125.965,296.816 126.075,296.604 126.182,296.4 126.289,296.196 126.399,295.984 126.509,295.772 126.616,295.568 126.723,295.363 126.833,295.151 126.943,294.939 127.05,294.734 127.157,294.53 127.267,294.318 127.377,294.105 127.484,293.901 127.591,293.696 127.701,293.483 127.812,293.271 127.918,293.066 128.024,292.861 128.135,292.648 128.246,292.436 128.352,292.231 128.458,292.025 128.569,291.813 128.679,291.6 128.786,291.395 128.893,291.189 129.003,290.977 129.113,290.764 129.22,290.558 129.327,290.353 129.437,290.14 129.547,289.927 129.654,289.721 129.761,289.516 129.871,289.302 129.981,289.089 130.088,288.883 130.195,288.678 130.305,288.464 130.416,288.251 130.522,288.045 130.628,287.839 130.739,287.626 130.85,287.413 130.956,287.206 131.062,287 131.173,286.787 131.283,286.657 131.39,286.531 131.497,286.406 131.607,286.276 131.717,286.146 131.824,286.021 131.931,285.895 132.041,285.765 132.151,285.635 132.258,285.509 132.365,285.384 132.475,285.254 132.585,285.124 132.692,284.998 132.799,284.873 132.909,284.742 133.02,284.612 133.126,284.486 133.232,284.361 133.343,284.23 133.454,284.1 133.56,283.975 133.667,283.849 133.777,283.718 133.887,283.588 133.994,283.462 134.101,283.336 134.211,283.206 134.321,283.076 134.428,282.95 134.535,282.824 134.645,282.693 134.755,282.563 134.862,282.437 134.969,282.311 135.079,282.181 135.189,282.05 135.296,281.924 135.403,281.798 135.513,281.667 135.624,281.537 135.73,281.411 135.836,281.285 135.947,281.154 136.058,281.023 136.164,280.897 136.271,280.771 136.381,280.641 136.491,280.51 136.598,280.384 136.705,280.258 136.815,280.127 136.925,279.997 137.032,279.87 137.139,279.744 137.249,279.613 137.359,279.482 137.466,279.356 137.573,279.23 137.683,279.099 137.793,278.968 137.9,278.842 138.007,278.716 138.117,278.585 138.228,278.454 138.334,278.328 138.44,278.201 138.551,278.07 138.662,277.939 138.768,277.813 138.875,277.687 138.985,277.556 139.095,277.425 139.202,277.298 139.309,277.172 139.419,277.041 139.529,276.91 139.636,276.784 139.743,276.657 139.853,276.526 139.963,276.396 140.07,276.269 140.177,276.142 140.287,276.011 140.397,275.88 140.504,275.754 140.611,275.627 140.721,275.496 140.832,275.365 140.938,275.239 141.044,275.112 141.155,274.981 141.266,274.85 141.372,274.723 141.479,274.597 141.589,274.465 141.699,274.334 141.806,274.208 141.913,274.081 142.023,273.95 142.133,273.819 142.24,273.692 142.347,273.565 142.457,273.435 142.567,273.303 142.674,273.177 142.781,273.05 142.891,272.919 143.001,272.788 143.108,272.661 143.215,272.534 143.325,272.403 143.436,272.272 143.542,272.145 143.648,272.019 143.759,271.887 143.87,271.756 143.976,271.629 144.083,271.502 144.193,271.371 144.303,271.24 144.41,271.113 144.517,270.986 144.627,270.855 144.737,270.724 144.844,270.597 144.951,270.47 145.061,270.339 145.171,270.208 145.278,270.081 145.385,269.954 145.495,269.823 145.605,269.692 145.712,269.565 145.819,269.438 145.929,269.307 146.04,269.176 146.146,269.049 146.252,268.922 146.363,268.791 146.474,268.659 146.58,268.533 146.687,268.406 146.797,268.274 146.907,268.143 147.014,268.016 147.121,267.889 147.231,267.758 147.341,267.627 147.448,267.5 147.555,267.373 147.665,267.242 147.775,267.11 147.882,266.983 147.989,266.856 148.099,266.725 148.209,266.594 148.316,266.467 148.423,266.34 148.533,266.209 148.644,266.078 148.75,265.951 148.856,265.824 148.967,265.692 149.077,265.561 149.184,265.434 149.291,265.307 149.401,265.176 149.511,265.044 149.618,264.918 149.725,264.791 149.835,264.66 149.945,264.528 150.052,264.401 150.159,264.274 150.269,264.143 150.379,264.012 150.486,263.885 150.593,263.758 150.703,263.626 150.813,263.495 150.92,263.368 151.027,263.242 151.137,263.11 151.248,262.979 151.354,262.852 151.46,262.725 151.571,262.594 151.682,262.462 151.788,262.335 151.895,262.208 152.005,262.077 152.115,261.946 152.222,261.819 152.329,261.692 152.439,261.561 152.549,261.429 152.656,261.302 152.763,261.176 152.873,261.044 152.983,260.913 153.09,260.786 153.197,260.659 153.307,260.528 153.417,260.396 153.524,260.27 153.631,260.143 153.741,260.011 153.852,259.88 153.958,259.753 154.064,259.626 154.175,259.495 154.285,259.364 154.392,259.237 154.499,259.11 154.609,258.979 154.719,258.847 154.826,258.721 154.933,258.594 155.043,258.462 155.153,258.331 155.26,258.204 155.367,258.077 155.477,257.946 155.587,257.815 155.694,257.688 155.801,257.561 155.911,257.43 156.021,257.298 156.128,257.172 156.235,257.045 156.345,256.914 156.456,256.782 156.562,256.656 156.668,256.529 156.779,256.397 156.889,256.266 156.996,256.14 157.103,256.013 157.213,255.881 157.323,255.75 157.43,255.624 157.537,255.497 157.647,255.365 157.757,255.234 157.864,255.107 157.971,254.98 158.081,254.849 158.191,254.718 158.298,254.591 158.405,254.464 158.515,254.333 158.625,254.202 158.732,254.075 158.839,253.949 158.949,253.817 159.06,253.686 159.166,253.56 159.272,253.433 159.383,253.302 159.493,253.17 159.6,253.043 159.707,252.917 159.817,252.786 159.927,252.655 160.034,252.528 160.141,252.401 160.251,252.27 160.361,252.139 160.468,252.012 160.575,251.886 160.685,251.754 160.795,251.624 160.902,251.497 161.009,251.37 161.119,251.239 161.229,251.108 161.336,250.981 161.443,250.854 161.553,250.723 161.664,250.592 161.77,250.466 161.876,250.339 161.987,250.208 162.097,250.077 162.204,249.95 162.311,249.824 162.421,249.692 162.531,249.562 162.638,249.435 162.745,249.309 162.855,249.177 162.965,249.046 163.072,248.92 163.179,248.793 163.289,248.662 163.399,248.531 163.506,248.405 163.613,248.278 163.723,248.147 163.833,248.016 163.94,247.89 164.046,247.763 164.157,247.632 164.268,247.501 164.374,247.375 164.48,247.248 164.591,247.117 164.701,246.986 164.808,246.86 164.915,246.733 165.025,246.602 165.135,246.471 165.242,246.345 165.349,246.218 165.459,246.087 165.569,245.957 165.676,245.83 165.783,245.704 165.893,245.573 166.003,245.442 166.11,245.315 166.217,245.189 166.327,245.058 166.438,244.927 166.544,244.801 166.65,244.675 166.761,244.544 166.872,244.413 166.978,244.287 167.084,244.16 167.195,244.029 167.305,243.898 167.412,243.772 167.519,243.646 167.629,243.515 167.739,243.384 167.846,243.258 167.953,243.132 168.063,243.001 168.173,242.87 168.28,242.744 168.387,242.618 168.497,242.487 168.607,242.356 168.714,242.23 168.821,242.104 168.931,241.973 169.042,241.842 169.148,241.716 169.254,241.59 169.365,241.459 169.476,241.329 169.582,241.202 169.688,241.076 169.799,240.945 169.909,240.815 170.016,240.688 170.123,240.562 170.233,240.432 170.343,240.301 170.45,240.175 170.557,240.049 170.667,239.918 170.777,239.788 170.884,239.662 170.991,239.536 171.101,239.405 171.211,239.274 171.318,239.148 171.425,239.022 171.535,238.892 171.646,238.761 171.752,238.635 171.858,238.509 171.969,238.378 172.08,238.248 172.186,238.122 172.292,237.996 172.403,237.865 172.513,237.735 172.62,237.609 172.727,237.483 172.837,237.353 172.947,237.222 173.054,237.096 173.161,236.97 173.271,236.84 173.381,236.709 173.488,236.583 173.595,236.458 173.705,236.327 173.815,236.197 173.922,236.071 174.029,235.945 174.139,235.814 174.25,235.684 174.356,235.558 174.462,235.432 174.573,235.302 174.684,235.172 174.79,235.046 174.896,234.92 175.007,234.79 175.117,234.659 175.224,234.534 175.331,234.408 175.441,234.277 175.551,234.147 175.658,234.021 175.765,233.896 175.875,233.766 175.985,233.635 176.092,233.509 176.199,233.384 176.309,233.253 176.419,233.123 176.526,232.998 176.633,232.872 176.743,232.742 176.854,232.611 176.96,232.486 177.066,232.36 177.177,232.23 177.288,232.1 177.394,231.974 177.5,231.849 177.611,231.718 177.721,231.588 177.828,231.463 177.935,231.337 178.045,231.207 178.155,231.077 178.262,230.951 178.369,230.826 178.479,230.696 178.589,230.566 178.696,230.44 178.803,230.314 178.913,230.185 179.023,230.055 179.13,229.929 179.237,229.804 179.347,229.674 179.458,229.544 179.564,229.418 179.67,229.293 179.781,229.163 179.892,229.033 179.998,228.907 180.104,228.782 180.215,228.652 180.325,228.522 180.432,228.397 180.539,228.271 180.649,228.142 180.759,228.012 180.866,227.886 180.973,227.761 181.083,227.631 181.193,227.501 181.3,227.376 181.407,227.25 181.517,227.121 181.627,226.991 181.734,226.866 181.841,226.74 181.951,226.611 182.062,226.481 182.168,226.355 182.274,226.23 182.385,226.101 182.496,225.971 182.602,225.846 182.708,225.721 182.819,225.591 182.929,225.461 183.036,225.336 183.143,225.211 183.253,225.081 183.363,224.952 183.47,224.826 183.577,224.701 183.687,224.572 183.797,224.442 183.904,224.317 184.011,224.192 184.121,224.062 184.231,223.933 184.338,223.808 184.445,223.683 184.555,223.553 184.666,223.467 184.772,223.384 184.878,223.301 184.989,223.215 185.1,223.128 185.206,223.045 185.312,222.962 185.423,222.876 185.533,222.791 185.64,222.708 185.747,222.625 185.857,222.539 185.967,222.453 186.074,222.37 186.181,222.287 186.291,222.201 186.401,222.115 186.508,222.032 186.615,221.949 186.725,221.863 186.835,221.777 186.942,221.694 187.049,221.611 187.159,221.525 187.27,221.439 187.376,221.356 187.482,221.273 187.593,221.188 187.704,221.102 187.81,221.019 187.917,220.936 188.027,220.85 188.137,220.764 188.244,220.681 188.351,220.598 188.461,220.513 188.571,220.427 188.678,220.344 188.785,220.261 188.895,220.175 189.005,220.089 189.112,220.006 189.219,219.924 189.329,219.838 189.439,219.752 189.546,219.669 189.653,219.586 189.763,219.501 189.874,219.415 189.98,219.333 190.086,219.25 190.197,219.164 190.308,219.078 190.414,218.996 190.521,218.913 190.631,218.827 190.741,218.741 190.848,218.659 190.955,218.576 191.065,218.49 191.175,218.404 191.282,218.322 191.389,218.239 191.499,218.153 191.609,218.068 191.716,217.985 191.823,217.902 191.933,217.817 192.043,217.731 192.15,217.648 192.257,217.566 192.367,217.48 192.478,217.395 192.584,217.312 192.69,217.229 192.801,217.144 192.912,217.059 193.018,216.976 193.125,216.893 193.235,216.808 193.345,216.722 193.452,216.64 193.559,216.557 193.669,216.472 193.779,216.386 193.886,216.304 193.993,216.221 194.103,216.135 194.213,216.05 194.32,215.967 194.427,215.885 194.537,215.799 194.647,215.714 194.754,215.631 194.861,215.549 194.971,215.464 195.082,215.378 195.188,215.296 195.294,215.213 195.405,215.128 195.516,215.042 195.622,214.96 195.729,214.877 195.839,214.792 195.949,214.707 196.056,214.625 196.163,214.542 196.273,214.457 196.383,214.372 196.49,214.289 196.597,214.207 196.707,214.122 196.817,214.036 196.924,213.954 197.031,213.871 197.141,213.786 197.251,213.701 197.358,213.619 197.465,213.536 197.575,213.451 197.686,213.366 197.792,213.283 197.898,213.201 198.009,213.116 198.119,213.031 198.226,212.948 198.333,212.866 198.443,212.781 198.553,212.696 198.66,212.613 198.767,212.531 198.877,212.446 198.987,212.361 199.094,212.278 199.201,212.196 199.311,212.111 199.421,212.026 199.528,211.944 199.635,211.862 199.745,211.776 199.855,211.691 199.962,211.609 200.069,211.527 200.179,211.442 200.29,211.357 200.396,211.275 200.502,211.192 200.613,211.107 200.724,211.022 200.83,210.94 200.937,210.858 201.047,210.773 201.157,210.688 201.264,210.606 201.371,210.524 201.481,210.439 201.591,210.354 201.698,210.272 201.805,210.19 201.915,210.105 202.025,210.02 202.132,209.938 202.239,209.856 202.349,209.771 202.459,209.686 202.566,209.604 202.673,209.522 202.783,209.437 202.894,209.352 203,209.271 203.106,209.188 203.217,209.104 203.327,209.019 203.434,208.937 203.541,208.854 203.651,208.77 203.761,208.685 203.868,208.603 203.975,208.521 204.085,208.437 204.195,208.352 204.302,208.27 204.409,208.188 204.519,208.103 204.629,208.018 204.736,207.936 204.843,207.854 204.953,207.77 205.063,207.685 205.17,207.603 205.277,207.521 205.387,207.437 205.498,207.352 205.604,207.27 205.71,207.188 205.821,207.104 205.931,207.019 206.038,206.937 206.145,206.855 206.255,206.771 206.365,206.686 206.472,206.604 206.579,206.522 206.689,206.438 206.799,206.353 206.906,206.271 207.013,206.189 207.123,206.105 207.233,206.021 207.34,205.938 207.447,205.857 207.557,205.772 207.667,205.688 207.774,205.606 207.881,205.524 207.991,205.44 208.102,205.355 208.208,205.273 208.314,205.192 208.425,205.107 208.535,205.023 208.642,204.941 208.749,204.86 208.859,204.775 208.969,204.691 209.076,204.609 209.183,204.527 209.293,204.443 209.403,204.358 209.51,204.277 209.617,204.195 209.727,204.111 209.837,204.027 209.944,203.945 210.051,203.864 210.161,203.779 210.271,203.695 210.378,203.613 210.485,203.532 210.595,203.447 210.706,203.363 210.812,203.282 210.918,203.2 211.029,203.116 211.139,203.031 211.246,202.95 211.353,202.869 211.463,202.784 211.573,202.7 211.68,202.619 211.787,202.537 211.897,202.453 212.007,202.369 212.114,202.287 212.221,202.206 212.331,202.122 212.441,202.037 212.548,201.956 212.655,201.875 212.765,201.79 212.875,201.706 212.982,201.625 213.089,201.543 213.199,201.459 213.31,201.375 213.416,201.294 213.522,201.212 213.633,201.128 213.743,201.044 213.85,200.963 213.957,200.881 214.067,200.797 214.177,200.713 214.284,200.632 214.391,200.551 214.501,200.467 214.611,200.383 214.718,200.301 214.825,200.22 214.935,200.136 215.045,200.052 215.152,199.971 215.259,199.89 215.369,199.806 215.479,199.722 215.586,199.641 215.693,199.56 215.803,199.476 215.914,199.392 216.02,199.31 216.126,199.229 216.237,199.145 216.347,199.061 216.454,198.98 216.561,198.899 216.671,198.815 216.781,198.731 216.888,198.65 216.995,198.569 217.105,198.485 217.215,198.401 217.322,198.32 217.429,198.239 217.539,198.155 217.649,198.071 217.756,197.99 217.863,197.909 217.973,197.826 218.083,197.742 218.19,197.661 218.296,197.58 218.407,197.496 218.518,197.412 218.624,197.331 218.73,197.25 218.841,197.167 218.951,197.083 219.058,197.001 219.165,196.921 219.275,196.837 219.385,196.753 219.492,196.672 219.599,196.591 219.709,196.508 219.819,196.424 219.926,196.343 220.033,196.262 220.143,196.179 220.253,196.095 220.36,196.014 220.467,195.933 220.577,195.85 220.688,195.766 220.794,195.685 220.901,195.604 221.011,195.521 221.122,195.437 221.228,195.356 221.334,195.275 221.445,195.192 221.555,195.108 221.662,195.028 221.769,194.947 221.879,194.863 221.989,194.78 222.096,194.699 222.203,194.618 222.313,194.535 222.423,194.451 222.53,194.371 222.637,194.29 222.747,194.207 222.857,194.123 222.964,194.042 223.071,193.962 223.181,193.878 223.292,193.795 223.398,193.714 223.504,193.633 223.615,193.55 223.726,193.467 223.832,193.386 223.938,193.306 224.049,193.222 224.159,193.139 224.266,193.058 224.373,192.978 224.483,192.894 224.593,192.811 224.7,192.73 224.807,192.65 224.917,192.566 225.027,192.483 225.134,192.403 225.241,192.322 225.351,192.239 225.461,192.155 225.568,192.075 225.675,191.995 225.785,191.911 225.896,191.828 226.002,191.748 226.108,191.667 226.219,191.584 226.33,191.5 226.436,191.42 226.542,191.34 226.653,191.257 226.763,191.173 226.87,191.093 226.977,191.013 227.087,190.93 227.197,190.846 227.304,190.766 227.411,190.686 227.521,190.603 227.631,190.52 227.738,190.439 227.845,190.359 227.955,190.276 228.065,190.192 228.172,190.112 228.279,190.032 228.389,189.949 228.5,189.866 228.606,189.786 228.712,189.706 228.823,189.622 228.934,189.539 229.04,189.459 229.146,189.379 229.257,189.296 229.367,189.213 229.474,189.132 229.581,189.052 229.691,188.969 229.801,188.886 229.908,188.806 230.015,188.726 230.125,188.643 230.235,188.56 230.342,188.48 230.449,188.4 230.559,188.317 230.669,188.234 230.776,188.154 230.883,188.074 230.993,187.991 231.104,187.908 231.21,187.828 231.316,187.748 231.427,187.665 231.538,187.583 231.644,187.502 231.75,187.422 231.861,187.339 231.971,187.257 232.078,187.177 232.185,187.097 232.295,187.014 232.405,186.931 232.512,186.851 232.619,186.771 232.729,186.688 232.839,186.605 232.946,186.526 233.053,186.446 233.163,186.363 233.273,186.28 233.38,186.2 233.487,186.121 233.597,186.038 233.708,185.955 233.814,185.875 233.92,185.795 234.031,185.713 234.142,185.63 234.248,185.55 234.354,185.47 234.465,185.388 234.575,185.305 234.682,185.226 234.789,185.146 234.899,185.063 235.009,184.98 235.116,184.9 235.223,184.821 235.333,184.738 235.443,184.656 235.55,184.576 235.657,184.496 235.767,184.414 235.877,184.331 235.984,184.251 236.091,184.172 236.201,184.089 236.312,184.007 236.418,183.927 236.524,183.848 236.635,183.765 236.746,183.683 236.852,183.603 236.958,183.523 237.069,183.441 237.179,183.358 237.286,183.279 237.393,183.199 237.503,183.117 237.613,183.034 237.72,182.955 237.827,182.875 237.937,182.793 238.047,182.71 238.154,182.631 238.261,182.551 238.371,182.469 238.481,182.387 238.588,182.307 238.695,182.228 238.805,182.146 238.916,182.063 239.022,181.983 239.128,181.904 239.239,181.822 239.35,181.74 239.456,181.66 239.562,181.581 239.673,181.499 239.783,181.416 239.89,181.337 239.997,181.257 240.107,181.175 240.217,181.093 240.324,181.014 240.431,180.934 240.541,180.852 240.651,180.77 240.758,180.69 240.865,180.611 240.975,180.529 241.085,180.447 241.192,180.368 241.299,180.288 241.409,180.206 241.52,180.124 241.626,180.045 241.732,179.965 241.843,179.883 241.954,179.801 242.06,179.722 242.167,179.643 242.277,179.561 242.387,179.479 242.494,179.399 242.601,179.32 242.711,179.238 242.821,179.156 242.928,179.077 243.035,178.998 243.145,178.916 243.255,178.834 243.362,178.755 243.469,178.676 243.579,178.594 243.689,178.512 243.796,178.433 243.903,178.354 244.013,178.272 244.124,178.19 244.23,178.111 244.336,178.032 244.447,177.95 244.558,177.868 244.664,177.789 244.771,177.71 244.881,177.628 244.991,177.546 245.098,177.467 245.205,177.388 245.315,177.306 245.425,177.225 245.532,177.146 245.639,177.066 245.749,176.985 245.859,176.903 245.966,176.824 246.073,176.745 246.183,176.664 246.293,176.582 246.4,176.503 246.507,176.424 246.617,176.342 246.728,176.26 246.834,176.182 246.94,176.103 247.051,176.021 247.162,175.939 247.268,175.86 247.375,175.782 247.485,175.7 247.595,175.619 247.702,175.54 247.809,175.461 247.919,175.379 248.029,175.297 248.136,175.219 248.243,175.14 248.353,175.059 248.463,174.977 248.57,174.898 248.677,174.819 248.787,174.738 248.897,174.656 249.004,174.578 249.111,174.499 249.221,174.417 249.332,174.336 249.438,174.257 249.544,174.179 249.655,174.097 249.766,174.016 249.872,173.937 249.979,173.858 250.089,173.777 250.199,173.695 250.306,173.617 250.413,173.538 250.523,173.457 250.633,173.375 250.74,173.297 250.847,173.218 250.957,173.137 251.067,173.056 251.174,172.977 251.281,172.898 251.391,172.817 251.501,172.736 251.608,172.657 251.715,172.579 251.825,172.498 251.936,172.416 252.042,172.338 252.148,172.259 252.259,172.178 252.369,172.097 252.476,172.018 252.583,171.94 252.693,171.858 252.803,171.777 252.91,171.699 253.017,171.621 253.127,171.54 253.237,171.458 253.344,171.38 253.451,171.301 253.561,171.22 253.671,171.139 253.778,171.061 253.885,170.982 253.995,170.901 254.105,170.82 254.212,170.742 254.319,170.664 254.429,170.583 254.54,170.501 254.646,170.423 254.752,170.345 254.863,170.264 254.973,170.183 255.08,170.104 255.187,170.026 255.297,169.945 255.407,169.864 255.514,169.786 255.621,169.708 255.731,169.627 255.841,169.546 255.948,169.468 256.055,169.39 256.165,169.309 256.275,169.228 256.382,169.149 256.489,169.071 256.599,168.99 256.709,168.91 256.816,168.832 256.923,168.753 257.033,168.672 257.144,168.592 257.25,168.514 257.356,168.436 257.467,168.354 257.577,168.274 257.684,168.196 257.791,168.118 257.901,168.037 258.011,167.956 258.118,167.878 258.225,167.8 258.335,167.719 258.445,167.639 258.552,167.561 258.659,167.482 258.769,167.402 258.879,167.321 258.986,167.243 259.093,167.165 259.203,167.084 259.313,167.004 259.42,166.926 259.527,166.848 259.637,166.768 259.748,166.687 259.854,166.609 259.96,166.531 260.071,166.45 260.182,166.37 260.288,166.292 260.395,166.214 260.505,166.133 260.615,166.053 260.722,165.975 260.829,165.897 260.939,165.817 261.049,165.736 261.156,165.658 261.263,165.581 261.373,165.5 261.483,165.419 261.59,165.342 261.697,165.264 261.807,165.184 261.917,165.103 262.024,165.025 262.131,164.948 262.241,164.867 262.352,164.787 262.458,164.709 262.564,164.631 262.675,164.551 262.785,164.471 262.892,164.393 262.999,164.315 263.109,164.235 263.219,164.155 263.326,164.077 263.433,164 263.543,163.919 263.653,163.839 263.76,163.761 263.867,163.684 263.977,163.604 264.087,163.523 264.194,163.445 264.301,163.368 264.411,163.288 264.521,163.208 264.628,163.13 264.735,163.052 264.845,162.972 264.956,162.892 265.062,162.814 265.168,162.737 265.279,162.657 265.389,162.577 265.496,162.499 265.603,162.422 265.713,162.342 265.823,162.262 265.93,162.184 266.037,162.107 266.147,162.027 266.257,161.946 266.364,161.869 266.471,161.792 266.581,161.712 266.691,161.632 266.798,161.554 266.905,161.477 267.015,161.397 267.125,161.317 267.232,161.24 267.339,161.162 267.449,161.082 267.56,161.002 267.666,160.925 267.772,160.848 267.883,160.768 267.993,160.688 268.1,160.61 268.207,160.533 268.317,160.454 268.427,160.374 268.534,160.296 268.641,160.219 268.751,160.139 268.861,160.059 268.968,159.982 269.075,159.905 269.185,159.825 269.295,159.745 269.402,159.668 269.509,159.591 269.619,159.511 269.729,159.431 269.836,159.354 269.943,159.277 270.053,159.197 270.164,159.118 270.27,159.041 270.376,158.963 270.487,158.884 270.597,158.804 270.704,158.727 270.811,158.65 270.921,158.57 271.031,158.491 271.138,158.414 271.245,158.336 271.355,158.257 271.465,158.208 271.572,158.161 271.679,158.114 271.789,158.065 271.899,158.017 272.006,157.97 272.113,157.922 272.223,157.874 272.333,157.825 272.44,157.778 272.547,157.731 272.657,157.683 272.768,157.634 272.874,157.587 272.98,157.54 273.091,157.491 273.201,157.442 273.308,157.396 273.415,157.349 273.525,157.3 273.635,157.251 273.742,157.204 273.849,157.157 273.959,157.109 274.069,157.06 274.176,157.013 274.283,156.966 274.393,156.917 274.503,156.869 274.61,156.822 274.717,156.775 274.827,156.727 274.938,156.678 275.044,156.631 275.15,156.584 275.261,156.536 275.372,156.487 275.478,156.44 275.584,156.394 275.695,156.345 275.805,156.296 275.912,156.25 276.019,156.203 276.129,156.154 276.239,156.106 276.346,156.059 276.453,156.012 276.563,155.964 276.673,155.915 276.78,155.868 276.887,155.822 276.997,155.773 277.107,155.725 277.214,155.678 277.321,155.631 277.431,155.583 277.542,155.534 277.648,155.487 277.754,155.441 277.865,155.392 277.976,155.344 278.082,155.297 278.188,155.25 278.299,155.202 278.409,155.154 278.516,155.107 278.623,155.06 278.733,155.012 278.843,154.963 278.95,154.917 279.057,154.87 279.167,154.822 279.277,154.773 279.384,154.727 279.491,154.68 279.601,154.632 279.711,154.583 279.818,154.537 279.925,154.49 280.035,154.442 280.146,154.394 280.252,154.347 280.358,154.3 280.469,154.252 280.58,154.204 280.686,154.157 280.792,154.11 280.903,154.062 281.013,154.014 281.12,153.967 281.227,153.921 281.337,153.873 281.447,153.824 281.554,153.778 281.661,153.731 281.771,153.683 281.881,153.635 281.988,153.588 282.095,153.542 282.205,153.494 282.315,153.445 282.422,153.399 282.529,153.352 282.639,153.304 282.75,153.256 282.856,153.209 282.962,153.163 283.073,153.115 283.184,153.066 283.29,153.02 283.396,152.974 283.507,152.926 283.617,152.877 283.724,152.831 283.831,152.785 283.941,152.736 284.051,152.688 284.158,152.642 284.265,152.595 284.375,152.547 284.485,152.5 284.592,152.453 284.699,152.406 284.809,152.358 284.919,152.311 285.026,152.264 285.133,152.218 285.243,152.169 285.354,152.122 285.46,152.075 285.566,152.029 285.677,151.981 285.788,151.933 285.894,151.886 286,151.84 286.111,151.792 286.221,151.744 286.328,151.698 286.435,151.651 286.545,151.604 286.655,151.556 286.762,151.509 286.869,151.463 286.979,151.415 287.089,151.367 287.196,151.321 287.303,151.274 287.413,151.227 287.523,151.179 287.63,151.132 287.737,151.086 287.847,151.038 287.958,150.99 288.064,150.944 288.17,150.898 288.281,150.85 288.392,150.802 288.498,150.756 288.604,150.709 288.715,150.662 288.825,150.614 288.932,150.568 289.039,150.521 289.149,150.474 289.259,150.426 289.366,150.38 289.473,150.333 289.583,150.286 289.693,150.238 289.8,150.192 289.907,150.146 290.017,150.098 290.127,150.05 290.234,150.004 290.341,149.958 290.451,149.91 290.562,149.862 290.668,149.816 290.774,149.77 290.885,149.722 290.996,149.674 291.102,149.628 291.208,149.583 291.319,149.535 291.429,149.487 291.536,149.441 291.643,149.395 291.753,149.347 291.863,149.299 291.97,149.253 292.077,149.208 292.187,149.16 292.297,149.112 292.404,149.066 292.511,149.02 292.621,148.972 292.731,148.925 292.838,148.878 292.945,148.833 293.055,148.785 293.166,148.737 293.272,148.691 293.378,148.646 293.489,148.598 293.6,148.55 293.706,148.504 293.812,148.458 293.923,148.411 294.033,148.363 294.14,148.317 294.247,148.271 294.357,148.224 294.467,148.176 294.574,148.13 294.681,148.084 294.791,148.037 294.901,147.989 295.008,147.943 295.115,147.897 295.225,147.85 295.335,147.802 295.442,147.757 295.549,147.711 295.659,147.663 295.77,147.616 295.876,147.57 295.982,147.524 296.093,147.477 296.204,147.429 296.31,147.383 296.417,147.337 296.527,147.29 296.637,147.243 296.744,147.197 296.851,147.151 296.961,147.104 297.071,147.056 297.178,147.01 297.285,146.964 297.395,146.917 297.505,146.87 297.612,146.824 297.719,146.778 297.829,146.731 297.939,146.684 298.046,146.638 298.153,146.592 298.263,146.544 298.374,146.497 298.48,146.452 298.586,146.406 298.697,146.358 298.808,146.311 298.914,146.266 299.021,146.22 299.131,146.172 299.241,146.125 299.348,146.08 299.455,146.034 299.565,145.986 299.675,145.939 299.782,145.894 299.889,145.848 299.999,145.801 300.109,145.753 300.216,145.708 300.323,145.662 300.433,145.615 300.543,145.568 300.65,145.522 300.757,145.477 300.867,145.429 300.978,145.382 301.084,145.336 301.19,145.291 301.301,145.244 301.412,145.196 301.518,145.151 301.625,145.105 301.735,145.058 301.845,145.011 301.952,144.965 302.059,144.92 302.169,144.873 302.279,144.826 302.386,144.78 302.493,144.734 302.603,144.688 302.713,144.64 302.82,144.595 302.927,144.549 303.037,144.502 303.147,144.455 303.254,144.41 303.361,144.364 303.471,144.317 303.582,144.27 303.688,144.225 303.794,144.179 303.905,144.132 304.016,144.085 304.122,144.04 304.229,143.994 304.339,143.947 304.449,143.9 304.556,143.854 304.663,143.809 304.773,143.762 304.883,143.715 304.99,143.67 305.097,143.625 305.207,143.578 305.317,143.53 305.424,143.485 305.531,143.44 305.641,143.393 305.751,143.346 305.858,143.3 305.965,143.255 306.075,143.208 306.186,143.161 306.292,143.116 306.398,143.071 306.509,143.024 306.62,142.977 306.726,142.932 306.833,142.886 306.943,142.839 307.053,142.792 307.16,142.747 307.267,142.702 307.377,142.655 307.487,142.608 307.594,142.563 307.701,142.518 307.811,142.471 307.921,142.424 308.028,142.378 308.135,142.333 308.245,142.287 308.355,142.24 308.462,142.194 308.569,142.149 308.679,142.103 308.79,142.056 308.896,142.01 309.002,141.965 309.113,141.918 309.224,141.872 309.33,141.827 309.437,141.781 309.547,141.734 309.657,141.688 309.764,141.643 309.871,141.598 309.981,141.551 310.091,141.504 310.198,141.459 310.305,141.414 310.415,141.367 310.525,141.32 310.632,141.275 310.739,141.23 310.849,141.184 310.959,141.137 311.066,141.092 311.173,141.047 311.283,141 311.394,140.953 311.5,140.908 311.606,140.863 311.717,140.816 311.827,140.77 311.934,140.725 312.041,140.68 312.151,140.633 312.261,140.586 312.368,140.542 312.475,140.497 312.585,140.45 312.695,140.403 312.802,140.358 312.909,140.313 313.019,140.267 313.129,140.22 313.236,140.175 313.343,140.13 313.453,140.084 313.563,140.037 313.67,139.992 313.777,139.947 313.887,139.901 313.998,139.854 314.104,139.809 314.21,139.764 314.321,139.718 314.432,139.671 314.538,139.626 314.645,139.582 314.755,139.535 314.865,139.489 314.972,139.444 315.079,139.399 315.189,139.353 315.299,139.306 315.406,139.261 315.513,139.216 315.623,139.17 315.733,139.124 315.84,139.079 315.947,139.034 316.057,138.987 316.167,138.941 316.274,138.896 316.381,138.851 316.491,138.805 316.602,138.758 316.708,138.713 316.814,138.669 316.925,138.623 317.035,138.576 317.142,138.531 317.249,138.486 317.359,138.44 317.469,138.394 317.576,138.349 317.683,138.304 317.793,138.258 317.903,138.212 318.01,138.167 318.117,138.122 318.227,138.076 318.337,138.03 318.444,137.985 318.551,137.94 318.661,137.894 318.771,137.848 318.878,137.803 318.985,137.758 319.095,137.712 319.206,137.666 319.312,137.621 319.418,137.577 319.529,137.53 319.639,137.484 319.746,137.439 319.853,137.395 319.963,137.349 320.073,137.302 320.18,137.258 320.287,137.213 320.397,137.167 320.507,137.121 320.614,137.076 320.721,137.032 320.831,136.985 320.941,136.939 321.048,136.895 321.155,136.85 321.265,136.804 321.375,136.758 321.482,136.713 321.589,136.668 321.699,136.623 321.81,136.577 321.916,136.532 322.022,136.487 322.133,136.441 322.243,136.395 322.35,136.351 322.457,136.306 322.567,136.26 322.677,136.214 322.784,136.169 322.891,136.125 323.001,136.079 323.111,136.033 323.218,135.989 323.325,135.944 323.435,135.898 323.545,135.852 323.652,135.808 323.759,135.763 323.869,135.717 323.979,135.671 324.086,135.627 324.192,135.583 324.303,135.537 324.414,135.49 324.52,135.446 324.626,135.402 324.737,135.355 324.847,135.31 324.954,135.265 325.061,135.221 325.171,135.175 325.281,135.129 325.388,135.085 325.495,135.041 325.605,134.995 325.715,134.949 325.822,134.904 325.929,134.86 326.039,134.814 326.149,134.768 326.256,134.724 326.363,134.68 326.473,134.634 326.583,134.588 326.69,134.543 326.796,134.5 326.907,134.454 327.018,134.408 327.124,134.363 327.23,134.319 327.341,134.273 327.451,134.228 327.558,134.183 327.665,134.139 327.775,134.093 327.885,134.047 327.992,134.003 328.099,133.959 328.209,133.913 328.319,133.868 328.426,133.823 328.533,133.779 328.643,133.733 328.753,133.688 328.86,133.644 328.967,133.599 329.077,133.554 329.188,133.508 329.294,133.463 329.4,133.419 329.511,133.374 329.622,133.328 329.728,133.284 329.834,133.24 329.945,133.194 330.055,133.148 330.162,133.104 330.269,133.06 330.379,133.015 330.489,132.969 330.596,132.925 330.703,132.881 330.813,132.835 330.923,132.79 331.03,132.746 331.137,132.702 331.247,132.656 331.357,132.61 331.464,132.566 331.571,132.522 331.681,132.477 331.792,132.431 331.898,132.387 332.004,132.343 332.115,132.297 332.226,132.252 332.332,132.208 332.438,132.164 332.549,132.118 332.659,132.073 332.766,132.029 332.873,131.985 332.983,131.939 333.093,131.894 333.2,131.85 333.307,131.806 333.417,131.76 333.527,131.715 333.634,131.671 333.741,131.627 333.851,131.582 333.961,131.536 334.068,131.492 334.175,131.448 334.285,131.403 334.396,131.357 334.502,131.313 334.608,131.27 334.719,131.224 334.83,131.179 334.936,131.135 335.042,131.091 335.153,131.046 335.263,131 335.37,130.957 335.477,130.913 335.587,130.867 335.697,130.822 335.804,130.778 335.911,130.734 336.021,130.689 336.131,130.644 336.238,130.6 336.345,130.556 336.455,130.511 336.565,130.465 336.672,130.421 336.779,130.378 336.889,130.333 337,130.287 337.106,130.244 337.212,130.2 337.323,130.154 337.434,130.109 337.54,130.065 337.646,130.022 337.757,129.977 337.867,129.931 337.974,129.888 338.081,129.844 338.191,129.799 338.301,129.753 338.408,129.709 338.515,129.666 338.625,129.621 338.735,129.576 338.842,129.532 338.949,129.488 339.059,129.443 339.169,129.398 339.276,129.354 339.383,129.311 339.493,129.266 339.604,129.22 339.71,129.177 339.816,129.133 339.927,129.088 340.038,129.043 340.144,128.999 340.25,128.956 340.361,128.911 340.471,128.865 340.578,128.822 340.685,128.778 340.795,128.733 340.905,128.688 341.012,128.645 341.119,128.601 341.229,128.556 341.339,128.511 341.446,128.467 341.553,128.424 341.663,128.379 341.773,128.333 341.88,128.29 341.987,128.247 342.097,128.202 342.208,128.157 342.314,128.113 342.42,128.07 342.531,128.025 342.642,127.979 342.748,127.936 342.854,127.893 342.965,127.848 343.075,127.803 343.182,127.759 343.289,127.716 343.399,127.671 343.509,127.626 343.616,127.583 343.723,127.539 343.833,127.494 343.943,127.449 344.05,127.406 344.157,127.363 344.267,127.318 344.377,127.273 344.484,127.229 344.591,127.186 344.701,127.141 344.812,127.096 344.918,127.053 345.024,127.01 345.135,126.965 345.246,126.92 345.352,126.876 345.458,126.833 345.569,126.789 345.679,126.744 345.786,126.7 345.893,126.657 346.003,126.612 346.113,126.567 346.22,126.524 346.327,126.481 346.437,126.436 346.547,126.391 346.654,126.348 346.761,126.305 346.871,126.26 346.981,126.215 347.088,126.172 347.195,126.129 347.305,126.084 347.416,126.039 347.522,125.996 347.628,125.953 347.739,125.908 347.85,125.863 347.956,125.82 348.062,125.777 348.173,125.732 348.283,125.688 348.39,125.645 348.497,125.602 348.607,125.557 348.717,125.512 348.824,125.469 348.931,125.426 349.041,125.381 349.151,125.336 349.258,125.293 349.365,125.25 349.475,125.206 349.585,125.161 349.692,125.118 349.799,125.075 349.909,125.03 350.02,124.985 350.126,124.942 350.232,124.899 350.343,124.855 350.454,124.81 350.56,124.767 350.667,124.724 350.777,124.68 350.887,124.635 350.994,124.592 351.101,124.549 351.211,124.504 351.321,124.46 351.428,124.417 351.535,124.374 351.645,124.33 351.755,124.285 351.862,124.242 351.969,124.199 352.079,124.154 352.189,124.11 352.296,124.067 352.403,124.024 352.513,123.979 352.624,123.935 352.73,123.892 352.836,123.849 352.947,123.805 353.058,123.76 353.164,123.717 353.271,123.675 353.381,123.63 353.491,123.586 353.598,123.543 353.705,123.5 353.815,123.456 353.925,123.411 354.032,123.368 354.139,123.326 354.249,123.281 354.359,123.237 354.466,123.194 354.573,123.151 354.683,123.106 354.793,123.062 354.9,123.02 355.007,122.977 355.117,122.932 355.228,122.888 355.334,122.845 355.44,122.802 355.551,122.758 355.662,122.714 355.768,122.671 355.875,122.628 355.985,122.584 356.095,122.54 356.202,122.497 356.309,122.454 356.419,122.41 356.529,122.366 356.636,122.323 356.743,122.28 356.853,122.236 356.963,122.192 357.07,122.149 357.177,122.106 357.287,122.062 357.397,122.018 357.504,121.975 357.611,121.933 357.721,121.889 357.832,121.844 357.938,121.802 358.044,121.759 358.155,121.715 358.266,121.67 358.372,121.628 358.479,121.585 358.589,121.541 358.699,121.497 358.806,121.455 358.913,121.412 359.023,121.368 359.133,121.324 359.24,121.281 359.347,121.238 359.457,121.194 359.567,121.15 359.674,121.107 359.781,121.065 359.891,121.021 360.001,120.977 360.108,120.935 360.215,120.892 360.325,120.848 360.436,120.804 360.542,120.761 360.648,120.719 360.759,120.675 360.87,120.631 360.976,120.588 361.083,120.546 361.193,120.501 361.303,120.458 361.41,120.415 361.517,120.373 361.627,120.329 361.737,120.285 361.844,120.242 361.951,120.2 362.061,120.156 362.171,120.112 362.278,120.069 362.385,120.027 362.495,119.983 362.605,119.939 362.712,119.897 362.819,119.854 362.929,119.811 363.04,119.767 363.146,119.724 363.252,119.682 363.363,119.638 363.474,119.594 363.58,119.552 363.687,119.509 363.797,119.465 363.907,119.422 364.014,119.379 364.121,119.337 364.231,119.293 364.341,119.25 364.448,119.207 364.555,119.165 364.665,119.121 364.775,119.077 364.882,119.035 364.989,118.993 365.099,118.949 365.209,118.905 365.316,118.863 365.423,118.82 365.533,118.776 365.644,118.733 365.75,118.69 365.856,118.648 365.967,118.604 366.077,118.561 366.184,118.519 366.291,118.477 366.401,118.433 366.511,118.389 366.618,118.347 366.725,118.305 366.835,118.261 366.945,118.217 367.052,118.175 367.159,118.133 367.269,118.089 367.379,118.045 367.486,118.003 367.593,117.961 367.703,117.917 367.813,117.874 367.92,117.832 368.027,117.79 368.137,117.746 368.248,117.702 368.354,117.66 368.46,117.618 368.571,117.575 368.682,117.531 368.788,117.489 368.895,117.447 369.005,117.403 369.115,117.359 369.222,117.317 369.329,117.275 369.439,117.232 369.549,117.188 369.656,117.146 369.763,117.104 369.873,117.061 369.983,117.017 370.09,116.975 370.197,116.933 370.307,116.89 370.417,116.846 370.524,116.804 370.631,116.762 370.741,116.719 370.852,116.675 370.958,116.633 371.064,116.591 371.175,116.548 371.285,116.504 371.392,116.462 371.499,116.42 371.609,116.377 371.719,116.333 371.826,116.292 371.933,116.25 372.043,116.206 372.153,116.163 372.26,116.121 372.367,116.079 372.477,116.036 372.587,115.992 372.694,115.95 372.801,115.909 372.911,115.865 373.021,115.822 373.128,115.78 373.235,115.738 373.345,115.695 373.456,115.651 373.562,115.609 373.668,115.568 373.779,115.524 373.889,115.481 373.996,115.439 374.103,115.397 374.213,115.354 374.323,115.311 374.43,115.269 374.537,115.227 374.647,115.184 374.757,115.141 374.864,115.099 374.971,115.057 375.081,115.014 375.191,114.971 375.298,114.929 375.405,114.887 375.515,114.844 375.625,114.801 375.732,114.759 375.839,114.717 375.949,114.674 376.06,114.631 376.166,114.589 376.272,114.547 376.383,114.504 376.493,114.461 376.6,114.419 376.707,114.378 376.817,114.334 376.927,114.292 377.034,114.25 377.141,114.208 377.251,114.165 377.361,114.122 377.468,114.08 377.575,114.039 377.685,113.996 377.795,113.952 377.902,113.911 378.009,113.869 378.119,113.826 378.229,113.783 378.336,113.741 378.443,113.7 378.553,113.657 378.664,113.614 378.77,113.572 378.876,113.531 378.987,113.487 379.097,113.444 379.204,113.403 379.311,113.361 379.421,113.318 379.531,113.275 379.638,113.234 379.745,113.192 379.855,113.149 379.965,113.106 380.072,113.065 380.179,113.023 380.289,112.98 380.399,112.938 380.506,112.896 380.613,112.854 380.723,112.812 380.833,112.769 380.94,112.727 381.046,112.686 381.157,112.643 381.268,112.6 381.374,112.559 381.48,112.517 381.591,112.474 381.701,112.431 381.808,112.39 381.915,112.349 382.025,112.306 382.135,112.263 382.242,112.221 382.349,112.18 382.459,112.137 382.569,112.094 382.676,112.053 382.783,112.012 382.893,111.969 383.003,111.926 383.11,111.885 383.217,111.843 383.327,111.8 383.438,111.758 383.544,111.716 383.65,111.675 383.761,111.632 383.872,111.589 383.978,111.548 384.084,111.507 384.195,111.464 384.305,111.421 384.412,111.38 384.519,111.339 384.629,111.296 384.739,111.253 384.846,111.212 384.953,111.171 385.063,111.128 385.173,111.085 385.28,111.044 385.387,111.003 385.497,110.96 385.607,110.917 385.714,110.876 385.821,110.835 385.931,110.792 386.042,110.75 386.148,110.708 386.254,110.667 386.365,110.625 386.476,110.583 386.582,110.541 386.688,110.5 386.799,110.458 386.909,110.415 387.016,110.374 387.123,110.333 387.233,110.29 387.343,110.248 387.45,110.206 387.557,110.165 387.667,110.123 387.777,110.08 387.884,110.039 387.991,109.998 388.101,109.955 388.211,109.913 388.318,109.872 388.425,109.831 388.535,109.788 388.646,109.746 388.752,109.705 388.858,109.664 388.969,109.621 389.08,109.579 389.186,109.538 389.292,109.497 389.403,109.454 389.513,109.412 389.62,109.371 389.727,109.33 389.837,109.287 389.947,109.245 390.054,109.204 390.161,109.163 390.271,109.12 390.381,109.078 390.488,109.037 390.595,108.996 390.705,108.954 390.815,108.911 390.922,108.87 391.029,108.829 391.139,108.787 391.25,108.745 391.356,108.704 391.463,108.663 391.573,108.621 391.684,108.578 391.79,108.537 391.896,108.496 392.007,108.454 392.117,108.412 392.224,108.371 392.331,108.33 392.441,108.288 392.551,108.245 392.658,108.205 392.765,108.164 392.875,108.122 392.985,108.079 393.092,108.038 393.199,107.998 393.309,107.955 393.419,107.913 393.526,107.872 393.633,107.832 393.743,107.789 393.854,107.747 393.96,107.706 394.066,107.666 394.177,107.623 394.288,107.581 394.394,107.54 394.5,107.5 394.611,107.458 394.721,107.415 394.828,107.375 394.935,107.333 395.045,107.292 395.155,107.25 395.262,107.208 395.369,107.168 395.479,107.126 395.589,107.083 395.696,107.043 395.803,107.002 395.913,106.96 396.023,106.918 396.13,106.877 396.237,106.837 396.347,106.795 396.458,106.752 396.564,106.712 396.67,106.671 396.781,106.629 396.892,106.587 396.998,106.546 397.104,106.506 397.215,106.464 397.325,106.422 397.432,106.381 397.539,106.341 397.649,106.299 397.759,106.257 397.866,106.216 397.973,106.176 398.083,106.134 398.193,106.092 398.3,106.051 398.407,106.011 398.517,105.969 398.627,105.927 398.734,105.886 398.841,105.846 398.951,105.804 399.062,105.762 399.168,105.721 399.274,105.681 399.385,105.639 399.496,105.597 399.602,105.556 399.708,105.516 399.819,105.474 399.929,105.432 400.036,105.392 400.143,105.351 400.253,105.31 400.363,105.268 400.47,105.227 400.577,105.187 400.687,105.145 400.797,105.103 400.904,105.062 401.011,105.022 401.121,104.98 401.231,104.938 401.338,104.898 401.445,104.858 401.555,104.816 401.666,104.774 401.772,104.734 401.878,104.693 401.989,104.651 402.1,104.61 402.206,104.569 402.312,104.529 402.423,104.487 402.533,104.446 402.64,104.405 402.747,104.365 402.857,104.323 402.967,104.282 403.074,104.241 403.181,104.201 403.291,104.159 403.401,104.118 403.508,104.077 403.615,104.037 403.725,103.996 403.835,103.954 403.942,103.914 404.049,103.873 404.159,103.832 404.27,103.79 404.376,103.75 404.482,103.709 404.593,103.668 404.704,103.626 404.81,103.586 404.917,103.546 405.027,103.504 405.137,103.462 405.244,103.422 405.351,103.382 405.461,103.341 405.571,103.299 405.678,103.259 405.785,103.219 405.895,103.177 406.005,103.136 406.112,103.095 406.219,103.055 406.329,103.014 406.439,102.972 406.546,102.932 406.653,102.892 406.763,102.851 406.874,102.809 406.98,102.769 407.086,102.729 407.197,102.688 407.308,102.646 407.414,102.606 407.521,102.566 407.631,102.524 407.741,102.483 407.848,102.443 407.955,102.403 408.065,102.361 408.175,102.32 408.282,102.28 408.389,102.24 408.499,102.198 408.609,102.157 408.716,102.117 408.823,102.077 408.933,102.036 409.043,101.994 409.15,101.954 409.257,101.914 409.367,101.873 409.478,101.832 409.584,101.792 409.69,101.751 409.801,101.71 409.912,101.669 410.018,101.629 410.125,101.589 410.235,101.548 410.345,101.506 410.452,101.466 410.559,101.427 410.669,101.385 410.779,101.344 410.886,101.304 410.993,101.264 411.103,101.223 411.213,101.182 411.32,101.142 411.427,101.102 411.537,101.061 411.647,101.02 411.754,100.979 411.861,100.94 411.971,100.898 412.082,100.857 412.188,100.817 412.294,100.778 412.405,100.736 412.516,100.695 412.622,100.655 412.729,100.616 412.839,100.575 412.949,100.533 413.056,100.494 413.163,100.454 413.273,100.413 413.383,100.372 413.49,100.332 413.597,100.292 413.707,100.251 413.817,100.209 413.924,100.17 414.031,100.13 414.141,100.089 414.251,100.048 414.358,100.008 414.465,99.9688 414.575,99.9277 414.686,99.8862 414.792,99.8467 414.898,99.8071 415.009,99.7661 415.119,99.7251 415.226,99.6855 415.333,99.6455 415.443,99.6045 415.553,99.5635 415.66,99.5239 415.767,99.4844 415.877,99.4434 415.987,99.4023 416.094,99.3628 416.201,99.3232 416.311,99.2822 416.421,99.2412 416.528,99.2017 416.635,99.1621 416.745,99.1211 416.855,99.0801 416.962,99.0405 417.069,99.001 417.179,98.96 417.29,98.9189 417.396,98.8794 417.502,98.8398 417.613,98.7988 417.723,98.7583 417.83,98.7188 417.937,98.6792 418.047,98.6382 418.157,98.5972 418.264,98.5576 418.371,98.5181 418.481,98.4775 418.591,98.4365 418.698,98.397 418.805,98.3574 418.915,98.3169 419.025,98.2759 419.132,98.2363 419.239,98.1968 419.349,98.1562 419.459,98.1152 419.566,98.0757 419.673,98.0366 419.783,97.9956 419.894,97.9551 420,97.9155 420.106,97.876 420.217,97.8354 420.328,97.7944 420.434,97.7554 420.541,97.7158 420.651,97.6748 420.761,97.6343 420.868,97.5947 420.975,97.5557 421.085,97.5146 421.195,97.4741 421.302,97.4346 421.409,97.3955 421.519,97.3545 421.629,97.314 421.736,97.2749 421.843,97.2354 421.953,97.1948 422.063,97.1538 422.17,97.1147 422.277,97.0752 422.387,97.0347 422.498,96.9941 422.604,96.9551 422.71,96.9155 422.821,96.875 422.931,96.8345 423.038,96.7949 423.145,96.7559 423.255,96.7153 423.365,96.6748 423.472,96.6353 423.579,96.5962 423.689,96.5557 423.799,96.5151 423.906,96.4756 424.013,96.4365 424.123,96.396 424.233,96.3555 424.34,96.3164 424.447,96.2773 424.557,96.2368 424.667,96.1958 424.774,96.1567 424.881,96.1177 424.991,96.0771 425.102,96.0366 425.208,95.9976 425.314,95.9585 425.425,95.918 425.535,95.8774 425.642,95.8384 425.749,95.7993 425.859,95.7588 425.969,95.7183 426.076,95.6792 426.183,95.6401 426.293,95.5996 426.403,95.5591 426.51,95.52 426.617,95.481 426.727,95.4409 426.837,95.4004 426.944,95.3613 427.051,95.3223 427.161,95.2817 427.271,95.2412 427.378,95.2026 427.484,95.1636 427.595,95.123 427.706,95.0825 427.812,95.0435 427.918,95.0049 428.029,94.9644 428.139,94.9238 428.246,94.8853 428.353,94.8462 428.463,94.8057 428.573,94.7656 428.68,94.7266 428.787,94.6875 428.897,94.647 429.007,94.6069 429.114,94.5679 429.221,94.5288 429.331,94.4888 429.441,94.4482 429.548,94.4097 429.655,94.3706 429.765,94.3306 429.875,94.29 429.982,94.2515 430.089,94.2124 430.199,94.1724 430.31,94.1318 430.416,94.0933 430.522,94.0542 430.633,94.0142 430.743,93.9736 430.85,93.9351 430.957,93.896 431.067,93.856 431.177,93.8159 431.284,93.7769 431.391,93.7383 431.501,93.6982 431.611,93.6577 431.718,93.6191 431.825,93.5806 431.935,93.54 432.045,93.5 432.152,93.4614 432.259,93.4224 432.369,93.3823 432.479,93.3423 432.586,93.3037 432.692,93.2646 432.803,93.2246 432.914,93.1846 433.02,93.146 433.126,93.1074 433.237,93.0669 433.348,93.0269 433.454,92.9883 433.561,92.9497 433.671,92.9097 433.781,92.8696 433.888,92.8311 433.995,92.7925 434.105,92.7524 434.215,92.7124 434.322,92.6733 434.429,92.6348 434.539,92.5947 434.649,92.5552 434.756,92.5161 434.863,92.4775 434.973,92.4375 435.083,92.3979 435.19,92.3589 435.297,92.3203 435.407,92.2808 435.518,92.2407 435.624,92.2021 435.73,92.1636 435.841,92.1235 435.951,92.0835 436.058,92.0449 436.165,92.0063 436.275,91.9668 436.385,91.9268 436.492,91.8882 436.599,91.8496 436.709,91.8096 436.819,91.77 436.926,91.7314 437.033,91.6929 437.143,91.6528 437.253,91.6133 437.36,91.5747 437.467,91.5361 437.577,91.4966 437.688,91.4565 437.794,91.418 437.9,91.3794 438.011,91.3398 438.122,91.2998 438.228,91.2617 438.334,91.2231 438.445,91.1831 438.555,91.1436 438.662,91.105 438.769,91.0669 438.879,91.0269 438.989,90.9873 439.096,90.9487 439.203,90.9106 439.313,90.8706 439.423,90.8311 439.53,90.7925 439.637,90.7544 439.747,90.7144 439.857,90.6748 439.964,90.6362 440.071,90.5981 440.181,90.5586 440.292,90.5186 440.398,90.4805 440.505,90.4419 440.615,90.4023 440.726,90.3628 440.832,90.3242 440.938,90.2861 441.049,90.2466 441.159,90.207 441.266,90.1685 441.373,90.1304 441.483,90.0908 441.593,90.0508 441.7,90.0127 441.807,89.9746 441.917,89.9351 442.027,89.8955 442.134,89.8569 442.241,89.8188 442.351,89.7793 442.461,89.7397 442.568,89.7017 442.675,89.6631 442.785,89.6235 442.896,89.584 443.002,89.5459 443.108,89.5078 443.219,89.4683 443.33,89.4287 443.436,89.3906 443.542,89.3525 443.653,89.313 443.763,89.2734 443.87,89.2354 443.977,89.1973 444.087,89.1577 444.197,89.1182 444.304,89.0801 444.411,89.042 444.521,89.0024 444.631,88.9629 444.738,88.9248 444.845,88.8867 444.955,88.8477 445.065,88.8081 445.172,88.77 445.279,88.7319 445.389,88.6924 445.5,88.6533 445.606,88.6152 445.713,88.5771 445.823,88.5376 445.934,88.498 446.04,88.46 446.146,88.4224 446.257,88.3828 446.367,88.3433 446.474,88.3057 446.581,88.2676 446.691,88.228 446.801,88.189 446.908,88.1509 447.015,88.1128 447.125,88.0732 447.235,88.0342 447.342,87.9961 447.449,87.9585 447.559,87.9189 447.669,87.8799 447.776,87.8418 447.883,87.8037 447.993,87.7646 448.104,87.7251 448.21,87.6875 448.316,87.6494 448.427,87.6104 448.538,87.5708 448.644,87.5332 448.75,87.4951 448.861,87.4561 448.971,87.417 449.078,87.3789 449.185,87.3408 449.295,87.3018 449.405,87.2627 449.512,87.2246 449.619,87.187 449.729,87.1479 449.839,87.1084 449.946,87.0708 450.053,87.0327 450.163,86.9937 450.273,86.9546 450.38,86.917 450.487,86.8789 450.597,86.8398 450.708,86.8008 450.814,86.7632 450.92,86.7251 451.031,86.686 451.142,86.647 451.248,86.6094 451.354,86.5718 451.465,86.5327 451.575,86.4937 451.682,86.4556 451.789,86.418 451.899,86.3789 452.009,86.3398 452.116,86.3022 452.223,86.2646 452.333,86.2256 452.443,86.1865 452.55,86.1489 452.657,86.1108 452.767,86.0718 452.877,86.0332 452.984,85.9951 453.091,85.9575 453.201,85.9189 453.312,85.8799 453.418,85.8423 453.524,85.8047 453.635,85.7656 453.746,85.7266 453.852,85.689 453.958,85.6514 454.069,85.6123 454.179,85.5732 454.286,85.5356 454.393,85.498 454.503,85.4595 454.613,85.4204 454.72,85.3828 454.827,85.3452 454.937,85.3066 455.047,85.2676 455.154,85.23 455.261,85.1924 455.371,85.1538 455.481,85.1147 455.588,85.0771 455.695,85.0396 455.805,85.001 455.916,84.9619 456.022,84.9243 456.128,84.8872 456.239,84.8481 456.35,84.8096 456.456,84.772 456.562,84.7344 456.673,84.6958 456.783,84.6567 456.89,84.6191 456.997,84.582 457.107,84.543 457.217,84.5044 457.324,84.4668 457.431,84.4297 457.541,84.3906 457.651,84.3521 457.758,84.3145 457.865,84.2773 457.975,84.2383 458.085,84.1997 458.192,84.1626 458.299,84.125 458.409,84.0864 458.52,84.0474 458.626,84.0103 458.732,83.9727 458.843,83.9341 458.953,83.8955 459.06,83.8579 459.167,83.8208 459.277,83.7822 459.387,83.7437 459.494,83.7061 459.601,83.6689 459.711,83.6304 459.821,83.5918 459.928,83.5542 460.035,83.5171 460.145,83.4785 460.255,83.4399 460.362,83.4023 460.469,83.3652 460.579,83.3267 460.689,83.2881 460.796,83.251 460.903,83.2134 461.013,83.1753 461.124,83.1367 461.23,83.0991 461.336,83.062 461.447,83.0234 461.558,82.9849 461.664,82.9478 461.771,82.9106 461.881,82.8721 461.991,82.8335 462.098,82.7964 462.205,82.7593 462.315,82.7207 462.425,82.6821 462.532,82.645 462.639,82.6079 462.749,82.5693 462.859,82.5308 462.966,82.4937 463.073,82.4565 463.183,82.4185 463.293,82.3799 463.4,82.3428 463.507,82.3057 463.617,82.2671 463.728,82.229 463.834,82.1919 463.94,82.1548 464.051,82.1162 464.162,82.0776 464.268,82.0405 464.375,82.0039 464.485,81.9653 464.595,81.9268 464.702,81.8901 464.809,81.853 464.919,81.8145 465.029,81.7764 465.136,81.7393 465.243,81.7021 465.353,81.6636 465.463,81.6255 465.57,81.5884 465.677,81.5513 465.787,81.5132 465.897,81.4751 466.004,81.438 466.111,81.4009 466.221,81.3628 466.332,81.3242 466.438,81.2876 466.544,81.2505 466.655,81.2124 466.766,81.1738 466.872,81.1372 466.979,81.1001 467.089,81.062 467.199,81.0234 467.306,80.9868 467.413,80.9497 467.523,80.9116 467.633,80.8735 467.74,80.8364 467.847,80.7998 467.957,80.7612 468.067,80.7231 468.174,80.6865 468.281,80.6494 468.391,80.6113 468.501,80.5732 468.608,80.5366 468.715,80.4995 468.825,80.4614 468.936,80.4233 469.042,80.3867 469.148,80.3496 469.259,80.3115 469.37,80.2734 469.476,80.2368 469.583,80.1997 469.693,80.1616 469.803,80.1235 469.91,80.0869 470.017,80.0503 470.127,80.0122 470.237,79.9741 470.344,79.9375 470.451,79.9004 470.561,79.8623 470.671,79.8247 470.778,79.7876 470.885,79.751 470.995,79.7129 471.105,79.6748 471.212,79.6382 471.319,79.6016 471.429,79.5635 471.54,79.5254 471.646,79.4888 471.752,79.4521 471.863,79.4141 471.973,79.3765 472.08,79.3398 472.187,79.3032 472.297,79.2651 472.407,79.2271 472.514,79.1904 472.621,79.1538 472.731,79.1157 472.841,79.0781 472.948,79.0415 473.055,79.0049 473.165,78.9668 473.275,78.9292 473.382,78.8926 473.489,78.856 473.599,78.8179 473.709,78.7803 473.816,78.7437 473.923,78.707 474.033,78.6689 474.144,78.6313 474.25,78.5947 474.356,78.5581 474.467,78.5205 474.578,78.4824 474.684,78.4458 474.791,78.4092 474.901,78.3716 475.011,78.334 475.118,78.2974 475.225,78.2607 475.335,78.2231 475.445,78.1851 475.552,78.1489 475.659,78.1123 475.769,78.0747 475.879,78.0366 475.986,78.0005 476.093,77.9639 476.203,77.9263 476.313,77.8887 476.42,77.8521 476.527,77.8154 476.637,77.7778 476.748,77.7402 476.854,77.7036 476.96,77.6675 477.071,77.6299 477.181,77.5918 477.288,77.5557 477.395,77.519 477.505,77.4814 477.615,77.4438 477.722,77.4077 477.829,77.3711 477.939,77.3335 478.049,77.2959 478.156,77.2593 478.263,77.2231 478.373,77.1855 478.483,77.1479 478.59,77.1118 478.697,77.0752 478.807,77.0376 478.917,77 479.024,76.9639 479.131,76.9277 479.241,76.8901 479.352,76.8525 479.458,76.8159 479.564,76.7798 479.675,76.7422 479.786,76.7046 479.892,76.6685 479.999,76.6323 480.109,76.5947 480.219,76.5571 480.326,76.521 480.433,76.4849 480.543,76.4473 480.653,76.4097 480.76,76.3735 480.867,76.3374 480.977,76.2998 481.087,76.2622 481.194,76.2261 481.301,76.1899 481.411,76.1528 481.521,76.1152 481.628,76.0791 481.734,76.043 481.845,76.0054 481.956,75.9678 482.062,75.9316 482.168,75.8955 482.279,75.8584 482.389,75.8208 482.496,75.7847 482.603,75.7485 482.713,75.7114 482.823,75.6738 482.93,75.6377 483.037,75.6016 483.147,75.5645 483.257,75.5269 483.364,75.4912 483.471,75.4551 483.581,75.4175 483.691,75.3804 483.798,75.3442 483.905,75.3081 484.015,75.271 484.125,75.2334 484.232,75.1978 484.339,75.1616 484.449,75.124 484.56,75.0869 484.666,75.0508 484.772,75.0151 484.883,74.9775 484.993,74.9404 485.1,74.9043 485.207,74.8687 485.317,74.8311 485.427,74.7939 485.534,74.7578 485.641,74.7222 485.751,74.6851 485.861,74.6475 485.968,74.6118 486.075,74.5757 486.185,74.5386 486.295,74.5015 486.402,74.4653 486.509,74.4297 486.619,74.3926 486.729,74.355 486.836,74.3193 486.942,74.2832 487.053,74.2461 487.164,74.209 487.27,74.1733 487.376,74.1372 487.487,74.1001 487.598,74.063 487.704,74.0273 487.811,73.9917 487.921,73.9546 488.031,73.9175 488.138,73.8813 488.245,73.8457 488.355,73.8086 488.465,73.7715 488.572,73.7358 488.679,73.6997 488.789,73.6631 488.899,73.626 489.006,73.5898 489.113,73.5542 489.223,73.5171 489.333,73.48 489.44,73.4443 489.547,73.4087 489.657,73.3716 489.768,73.3345 489.874,73.2988 489.98,73.2632 490.091,73.2261 490.201,73.1895 490.308,73.1533 490.415,73.1177 490.525,73.0811 490.635,73.0439 490.742,73.0083 490.849,72.9727 490.959,72.9355 491.069,72.8989 491.176,72.8628 491.283,72.8271 491.393,72.7905 491.503,72.7534 491.61,72.7178 491.717,72.6821 491.827,72.6455 491.938,72.6084 492.044,72.5728 492.15,72.5371 492.261,72.5005 492.372,72.4634 492.478,72.4277 492.584,72.3926 492.695,72.3555 492.806,72.3188 492.912,72.2832 493.019,72.2476 493.129,72.2109 493.239,72.1738 493.346,72.1382 493.453,72.103 493.563,72.0659 493.673,72.0293 493.78,71.9937 493.887,71.958 493.997,71.9214 494.107,71.8848 494.214,71.8491 494.321,71.8135 494.431,71.7769 494.542,71.7402 494.648,71.7046 494.754,71.6689 494.865,71.6323 494.976,71.5957 495.082,71.5601 495.188,71.5249 495.299,71.4883 495.409,71.4512 495.516,71.416 495.623,71.3804 495.733,71.3438 495.843,71.3071 495.95,71.272 496.057,71.2363 496.167,71.1997 496.277,71.1631 496.384,71.1274 496.491,71.0923 496.601,71.0557 496.711,71.019 496.818,70.9834 496.925,70.9482 497.035,70.9116 497.146,70.875 497.252,70.8398 497.358,70.8042 497.469,70.7676 497.58,70.731 497.686,70.6958 497.792,70.6606 497.903,70.624 498.013,70.5874 498.12,70.5522 498.227,70.5166 498.337,70.4805 498.447,70.4438 498.554,70.4087 498.661,70.373 498.771,70.3364 498.881,70.3003 498.988,70.2646 499.095,70.2295 499.205,70.1934 499.315,70.1567 499.422,70.1216 499.529,70.0864 499.639,70.0498 499.75,70.0132 499.856,69.978 499.962,69.9429 500.073,69.9062 500.184,69.8701 500.29,69.835 500.396,69.7998 500.507,69.7632 500.617,69.7266 500.724,69.6914 500.831,69.6562 500.941,69.6201 501.051,69.5835 501.158,69.5483 501.265,69.5132 501.375,69.4771 501.485,69.4404 501.592,69.4053 501.699,69.3701 501.809,69.334 501.919,69.2974 502.026,69.2627 502.133,69.2275 502.243,69.1909 502.354,69.1548 502.46,69.1196 502.566,69.0845 502.677,69.0483 502.788,69.0122 502.894,68.9771 503,68.9419 503.111,68.9058 503.221,68.8691 503.328,68.8345 503.435,68.7993 503.545,68.7632 503.655,68.7266 503.762,68.6919 503.869,68.6567 503.979,68.6206 504.089,68.5845 504.196,68.5493 504.303,68.5142 504.413,68.478 504.523,68.4419 504.63,68.4067 504.737,68.3721 504.847,68.3359 504.958,68.2998 505.064,68.2646 505.17,68.2295 505.281,68.1934 505.392,68.1572 505.498,68.1226 505.604,68.0874 505.715,68.0513 505.825,68.0151 505.932,67.9805 506.039,67.9453 506.149,67.9092 506.259,67.873 506.366,67.8384 506.473,67.8037 506.583,67.7676 506.693,67.7314 506.8,67.6963 506.907,67.6616 507.017,67.6255 507.127,67.5894 507.234,67.5547 507.234,67.5547"/>
<polyline fill="none" stroke="#000000" stroke-width="1" stroke-dasharray="0,4,4,4,4,0" points="72.7998,374.69 94.5,352.251 116.2,315.267 137.9,273.726 139.636,273.726 159.6,231.363 181.3,206.03 183.036,206.03 203,181.097 224.7,165.11 246.4,149.469 248.136,149.469 268.1,134.195 289.8,125.305 311.5,116.645 333.2,108.215 354.9,100.018 376.6,92.0542 398.3,84.3232 420,76.8242 441.7,69.5557 463.4,62.5166 485.1,55.7041 506.8,49.1162 507.234,48.9888"/>
<polyline fill="none" stroke="#00ff00" stroke-width="2" points="75.7998,374.69 75.2271,376.453 73.7271,377.543 71.873,377.543 70.373,376.453 69.7998,374.69 70.373,372.927 71.873,371.837 73.7271,371.837 75.2271,372.927 75.7998,374.69"/>
<polyline fill="none" stroke="#00ff00" stroke-width="2" points="97.5,352.251 96.9272,354.015 95.4272,355.104 93.5728,355.104 92.0728,354.015 91.5,352.251 92.0728,350.488 93.5728,349.398 95.4272,349.398 96.9272,350.488 97.5,352.251"/>
<polyline fill="none" stroke="#00ff00" stroke-width="2" points="119.2,315.267 118.627,317.03 117.127,318.12 115.273,318.12 113.773,317.03 113.2,315.267 113.773,313.503 115.273,312.414 117.127,312.414 118.627,313.503 119.2,315.267"/>
<polyline fill="none" stroke="#00ff00" stroke-width="2" points="140.9,278.678 140.327,280.441 138.827,281.531 136.973,281.531 135.473,280.441 134.9,278.678 135.473,276.915 136.973,275.825 138.827,275.825 140.327,276.915 140.9,278.678"/>
<polyline fill="none" stroke="#00ff00" stroke-width="2" points="162.6,252.881 162.027,254.645 160.527,255.734 158.673,255.734 157.173,254.645 156.6,252.881 157.173,251.118 158.673,250.028 160.527,250.028 162.027,251.118 162.6,252.881"/>
<polyline fill="none" stroke="#00ff00" stroke-width="2" points="184.3,227.215 183.727,228.979 182.227,230.068 180.373,230.068 178.873,228.979 178.3,227.215 178.873,225.452 180.373,224.362 182.227,224.362 183.727,225.452 184.3,227.215"/>
<polyline fill="none" stroke="#00ff00" stroke-width="2" points="206,209.112 205.427,210.875 203.927,211.965 202.073,211.965 200.573,210.875 200,209.112 200.573,207.348 202.073,206.258 203.927,206.258 205.427,207.348 206,209.112"/>
<polyline fill="none" stroke="#00ff00" stroke-width="2" points="227.7,192.574 227.127,194.337 225.627,195.427 223.773,195.427 222.273,194.337 221.7,192.574 222.273,190.811 223.773,189.721 225.627,189.721 227.127,190.811 227.7,192.574"/>
<polyline fill="none" stroke="#00ff00" stroke-width="2" points="249.4,176.349 248.827,178.112 247.327,179.202 245.473,179.202 243.973,178.112 243.4,176.349 243.973,174.586 245.473,173.496 247.327,173.496 248.827,174.586 249.4,176.349"/>
<polyline fill="none" stroke="#00ff00" stroke-width="2" points="271.1,160.459 270.527,162.223 269.027,163.313 267.173,163.313 265.673,162.223 265.1,160.459 265.673,158.696 267.173,157.606 269.027,157.606 270.527,158.696 271.1,160.459"/>
<polyline fill="none" stroke="#00ff00" stroke-width="2" points="292.8,150.044 292.227,151.807 290.727,152.897 288.873,152.897 287.373,151.807 286.8,150.044 287.373,148.281 288.873,147.191 290.727,147.191 292.227,148.281 292.8,150.044"/>
<polyline fill="none" stroke="#00ff00" stroke-width="2" points="314.5,140.764 313.927,142.527 312.427,143.617 310.573,143.617 309.073,142.527 308.5,140.764 309.073,139 310.573,137.911 312.427,137.911 313.927,139 314.5,140.764"/>
<polyline fill="none" stroke="#00ff00" stroke-width="2" points="336.2,131.708 335.627,133.472 334.127,134.562 332.273,134.562 330.773,133.472 330.2,131.708 330.773,129.945 332.273,128.855 334.127,128.855 335.627,129.945 336.2,131.708"/>
<polyline fill="none" stroke="#00ff00" stroke-width="2" points="357.9,122.881 357.327,124.645 355.827,125.734 353.973,125.734 352.473,124.645 351.9,122.881 352.473,121.118 353.973,120.028 355.827,120.028 357.327,121.118 357.9,122.881"/>
<polyline fill="none" stroke="#00ff00" stroke-width="2" points="379.6,114.285 379.027,116.048 377.527,117.138 375.673,117.138 374.173,116.048 373.6,114.285 374.173,112.521 375.673,111.431 377.527,111.431 379.027,112.521 379.6,114.285"/>
<polyline fill="none" stroke="#00ff00" stroke-width="2" points="401.3,105.919 400.727,107.683 399.227,108.773 397.373,108.773 395.873,107.683 395.3,105.919 395.873,104.156 397.373,103.066 399.227,103.066 400.727,104.156 401.3,105.919"/>
<polyline fill="none" stroke="#00ff00" stroke-width="2" points="423,97.7871 422.427,99.5508 420.927,100.641 419.073,100.641 417.573,99.5508 417,97.7871 417.573,96.0239 419.073,94.9341 420.927,94.9341 422.427,96.0239 423,97.7871"/>
<polyline fill="none" stroke="#00ff00" stroke-width="2" points="444.7,89.8882 444.127,91.6514 442.627,92.7412 440.773,92.7412 439.273,91.6514 438.7,89.8882 439.273,88.1245 440.773,87.0347 442.627,87.0347 444.127,88.1245 444.7,89.8882"/>
<polyline fill="none" stroke="#00ff00" stroke-width="2" points="466.4,82.2212 465.827,83.9844 464.327,85.0742 462.473,85.0742 460.973,83.9844 460.4,82.2212 460.973,80.458 462.473,79.3682 464.327,79.3682 465.827,80.458 466.4,82.2212"/>
<polyline fill="none" stroke="#00ff00" stroke-width="2" points="488.1,74.7861 487.527,76.5498 486.027,77.6396 484.173,77.6396 482.673,76.5498 482.1,74.7861 482.673,73.0229 484.173,71.9331 486.027,71.9331 487.527,73.0229 488.1,74.7861"/>
<polyline fill="none" stroke="#00ff00" stroke-width="2" points="509.8,67.5815 509.227,69.3452 507.727,70.4351 505.873,70.4351 504.373,69.3452 503.8,67.5815 504.373,65.8184 505.873,64.7285 507.727,64.7285 509.227,65.8184 509.8,67.5815"/>
<polyline fill="none" stroke="#0000ff" stroke-width="1" stroke-dasharray="4,5,1,6" points="72.7998,290.27 74.9702,290.27 77.1401,290.27 79.3101,290.27 81.48,290.27 83.6499,290.27 85.8198,290.27 87.9902,290.27 90.1602,290.27 92.3301,290.27 94.5,290.27 96.6699,290.27 98.8398,290.27 101.01,290.27 103.18,290.27 105.35,290.27 107.52,290.27 109.69,290.27 111.86,290.27 114.03,290.27 116.2,290.27 118.37,290.27 120.54,290.27 122.71,290.27 124.88,290.27 127.05,290.27 129.22,290.27 129.37,290.27 131.106,290.27 131.106,225.757 133.276,225.757 135.446,225.757 137.616,225.757 139.786,225.757 141.956,225.757 144.126,225.757 146.296,225.757 148.466,225.757 150.636,225.757 152.806,225.757 154.976,225.757 157.146,225.757 159.316,225.757 161.486,225.757 163.656,225.757 165.826,225.757 167.996,225.757 170.166,225.757 172.336,225.757 174.506,225.757 176.676,225.757 178.846,225.757 181.016,225.757 182.719,225.757 184.455,225.757 184.455,159.649 186.625,159.649 188.795,159.649 190.965,159.649 193.135,159.649 195.305,159.649 197.475,159.649 199.645,159.649 201.815,159.649 203.985,159.649 206.155,159.649 208.325,159.649 210.495,159.649 212.665,159.649 214.835,159.649 217.005,159.649 219.175,159.649 221.345,159.649 223.515,159.649 225.685,159.649 227.855,159.649 230.025,159.649 232.195,159.649 234.365,159.649 236.535,159.649 238.705,159.649 240.875,159.649 243.045,159.649 245.215,159.649 247.385,159.649 249.555,159.649 251.725,159.649 253.895,159.649 256.065,159.649 258.235,159.649 260.405,159.649 262.575,159.649 264.745,159.649 266.915,159.649 269.085,159.649 269.538,159.649 271.273,159.649 271.273,31.2319"/>
<polyline fill="none" stroke="#ff0000" stroke-width="1" stroke-dasharray="4,5,1,6" points="72.7998,374.69 74.9702,374.69 77.1401,374.69 79.3101,374.69 81.48,374.69 83.6499,374.69 85.8198,374.69 87.9902,374.69 90.1602,374.69 92.3301,374.69 94.5,374.69 96.6699,374.69 98.8398,374.69 101.01,374.69 103.18,374.69 105.35,374.69 107.52,374.69 109.69,374.69 111.86,374.69 114.03,374.69 116.2,374.69 118.37,374.69 120.54,374.69 122.71,374.69 124.88,374.69 127.05,374.69 129.22,374.69 129.37,374.69 131.106,374.69 131.106,330.926 133.276,330.926 135.446,330.926 137.616,330.926 139.786,330.926 141.956,330.926 144.126,330.926 146.296,330.926 148.466,330.926 150.636,330.926 152.806,330.926 154.976,330.926 157.146,330.926 159.316,330.926 161.486,330.926 163.656,330.926 165.826,330.926 167.996,330.926 170.166,330.926 172.336,330.926 174.506,330.926 176.676,330.926 178.846,330.926 181.016,330.926 182.719,330.926 184.455,330.926 184.455,267.169 186.625,267.169 188.795,267.169 190.965,267.169 193.135,267.169 195.305,267.169 197.475,267.169 199.645,267.169 201.815,267.169 203.985,267.169 206.155,267.169 208.325,267.169 210.495,267.169 212.665,267.169 214.835,267.169 217.005,267.169 219.175,267.169 221.345,267.169 223.515,267.169 225.685,267.169 227.855,267.169 230.025,267.169 232.195,267.169 234.365,267.169 236.535,267.169 238.705,267.169 240.875,267.169 243.045,267.169 245.215,267.169 247.385,267.169 249.555,267.169 251.725,267.169 253.895,267.169 256.065,267.169 258.235,267.169 260.405,267.169 262.575,267.169 264.745,267.169 266.915,267.169 269.085,267.169 269.538,267.169 271.273,267.169 271.273,199.464 273.443,199.464 275.613,199.464 277.783,199.464 279.954,199.464 282.124,199.464 284.293,199.464 286.463,199.464 288.633,199.464 290.803,199.464 292.973,199.464 295.143,199.464 297.312,199.464 299.482,199.464 301.652,199.464 303.823,199.464 305.993,199.464 308.163,199.464 310.333,199.464 312.502,199.464 314.672,199.464 316.843,199.464 319.013,199.464 321.183,199.464 323.353,199.464 325.522,199.464 327.692,199.464 329.862,199.464 332.033,199.464 334.203,199.464 336.373,199.464 338.542,199.464 340.712,199.464 342.882,199.464 345.053,199.464 347.223,199.464 349.393,199.464 351.562,199.464 353.732,199.464 355.902,199.464 358.073,199.464 360.243,199.464 362.413,199.464 364.583,199.464 366.752,199.464 368.922,199.464 371.093,199.464 373.263,199.464 375.433,199.464 377.603,199.464 379.772,199.464 381.942,199.464 384.112,199.464 386.283,199.464 388.453,199.464 390.623,199.464 392.792,199.464 394.962,199.464 397.132,199.464 399.303,199.464 401.473,199.464 403.643,199.464 405.812,199.464 407.982,199.464 410.152,199.464 412.323,199.464 414.493,199.464 416.663,199.464 418.833,199.464 421.002,199.464 423.172,199.464 425.343,199.464 427.513,199.464 429.683,199.464 431.853,199.464 434.022,199.464 436.192,199.464 438.363,199.464 440.533,199.464 442.703,199.464 444.873,199.464 447.042,199.464 449.212,199.464 451.382,199.464 453.553,199.464 455.723,199.464 457.893,199.464 460.062,199.464 462.232,199.464 464.402,199.464 466.573,199.464 468.743,199.464 470.913,199.464 473.083,199.464 475.252,199.464 477.422,199.464 479.593,199.464 481.763,199.464 483.933,199.464 486.103,199.464 488.272,199.464 490.442,199.464 492.613,199.464 494.783,199.464 496.953,199.464 499.123,199.464 501.292,199.464 503.462,199.464 505.632,199.464 507.234,199.464"/>
<polyline fill="none" stroke="#000000" stroke-width="0.5" stroke-dasharray="16,0" points="375.159,116.427 504.136,116.427"/>
<polyline fill="none" stroke="#000000" stroke-width="0.5" stroke-dasharray="16,0" points="375.159,34.2456 504.136,34.2456"/>
<polyline fill="none" stroke="#000000" stroke-width="0.5" stroke-dasharray="16,0" points="375.159,116.427 375.159,34.2456"/>
<polyline fill="none" stroke="#000000" stroke-width="0.5" stroke-dasharray="16,0" points="504.136,116.427 504.136,34.2456"/>
<text fill="#000000" x="400.471" y="41.0942" font-size="10" text-anchor="start" baseline-shift="-5" font-family="Helvetica">Speed SC CT/DE</text>
<text fill="#000000" x="400.471" y="54.791" font-size="10" text-anchor="start" baseline-shift="-5" font-family="Helvetica">Speed MATLAB</text>
<text fill="#000000" x="400.471" y="68.4883" font-size="10" text-anchor="start" baseline-shift="-5" font-family="Helvetica">Speed SC TDF 1s</text>
<text fill="#000000" x="400.471" y="82.1851" font-size="10" text-anchor="start" baseline-shift="-5" font-family="Helvetica">Speed SC TDF 10ms</text>
<text fill="#000000" x="400.471" y="95.8818" font-size="10" text-anchor="start" baseline-shift="-5" font-family="Helvetica">Up threshold</text>
<text fill="#000000" x="400.471" y="109.579" font-size="10" text-anchor="start" baseline-shift="-5" font-family="Helvetica">Down threshold</text>
<polyline fill="none" stroke="#ff0000" stroke-width="2" points="390.815,41.0942 390.242,42.8574 388.742,43.9473 386.888,43.9473 385.388,42.8574 384.815,41.0942 385.388,39.3311 386.888,38.2412 388.742,38.2412 390.242,39.3311 390.815,41.0942"/>
<polyline fill="none" stroke="#0000ff" stroke-width="2" points="377.824,54.791 397.807,54.791"/>
<polyline fill="none" stroke="#000000" stroke-width="1" stroke-dasharray="0,4,4,4,4,0" points="377.824,68.4883 397.807,68.4883"/>
<polyline fill="none" stroke="#00ff00" stroke-width="2" points="390.815,82.1851 390.242,83.9482 388.742,85.0381 386.888,85.0381 385.388,83.9482 384.815,82.1851 385.388,80.4219 386.888,79.332 388.742,79.332 390.242,80.4219 390.815,82.1851"/>
<polyline fill="none" stroke="#0000ff" stroke-width="1" stroke-dasharray="4,5,1,6" points="377.824,95.8818 397.807,95.8818"/>
<polyline fill="none" stroke="#ff0000" stroke-width="1" stroke-dasharray="4,5,1,6" points="377.824,109.579 397.807,109.579"/>
<text fill="#000000" x="289.8" y="21.5752" font-size="10" text-anchor="middle" baseline-shift="0" font-family="Helvetica">Vehicle speed - SystemC</text>
</g>
</svg>
